{
copyright = "Copyright 2014-2022 Indian Type Foundry. All rights reserved.";
designer = "Lipi Raval, Jonny Pinhorn";
designerURL = "https://www.indiantypefoundry.com/designers";
familyName = Tillana;
customParameters = (
{
name = glyphOrder;
value = (
A,
Aacute,
Abreve,
Acircumflex,
Adieresis,
Agrave,
Amacron,
Aogonek,
Aring,
Atilde,
AE,
B,
C,
Cacute,
Ccaron,
Ccedilla,
D,
Eth,
Dcaron,
Dcroat,
E,
Eacute,
Ecaron,
Ecircumflex,
Edieresis,
Edotaccent,
Egrave,
Emacron,
Eogonek,
F,
G,
Gbreve,
Gcommaaccent,
H,
I,
Iacute,
Icircumflex,
Idieresis,
Idotaccent,
Igrave,
Imacron,
Iogonek,
J,
K,
Kcommaaccent,
L,
Lacute,
Lcaron,
Lcommaaccent,
Lslash,
M,
N,
Nacute,
Ncaron,
Ncommaaccent,
Ntilde,
O,
Oacute,
Ocircumflex,
Odieresis,
Ograve,
Ohungarumlaut,
Omacron,
Oslash,
Otilde,
OE,
P,
Thorn,
Q,
R,
Racute,
Rcaron,
Rcommaaccent,
S,
Sacute,
Scaron,
Scedilla,
Scommaaccent,
T,
Tcaron,
Tcedilla,
Tcommaaccent,
U,
Uacute,
Ucircumflex,
Udieresis,
Ugrave,
Uhungarumlaut,
Umacron,
Uogonek,
Uring,
V,
W,
X,
Y,
Yacute,
Ydieresis,
Z,
Zacute,
Zcaron,
Zdotaccent,
a,
aacute,
abreve,
acircumflex,
adieresis,
agrave,
amacron,
aogonek,
aring,
atilde,
ae,
b,
c,
cacute,
ccaron,
ccedilla,
d,
eth,
dcaron,
dcroat,
e,
eacute,
ecaron,
ecircumflex,
edieresis,
edotaccent,
egrave,
emacron,
eogonek,
f,
g,
gbreve,
gcommaaccent,
h,
i,
dotlessi,
iacute,
icircumflex,
idieresis,
igrave,
imacron,
iogonek,
j,
k,
kcommaaccent,
l,
lacute,
lcaron,
lcommaaccent,
lslash,
m,
n,
nacute,
ncaron,
ncommaaccent,
ntilde,
o,
oacute,
ocircumflex,
odieresis,
ograve,
ohungarumlaut,
omacron,
oslash,
otilde,
oe,
p,
thorn,
q,
r,
racute,
rcaron,
rcommaaccent,
s,
sacute,
scaron,
scedilla,
scommaaccent,
germandbls,
t,
tcaron,
tcedilla,
tcommaaccent,
u,
uacute,
ucircumflex,
udieresis,
ugrave,
uhungarumlaut,
umacron,
uogonek,
uring,
v,
w,
x,
y,
yacute,
ydieresis,
z,
zacute,
zcaron,
zdotaccent,
f_f,
f_t,
fi,
fl,
t_t,
ordfeminine,
ordmasculine,
pi,
micro,
zero,
one,
two,
three,
four,
five,
six,
seven,
eight,
nine,
fraction,
onehalf,
onequarter,

glyphs = (
{
glyphname = A;
layers = (
{
anchors = (
{
name = ogonek;
position = "{648, 0}";
},
{
name = top;
position = "{486, 753}";
}
);
layerId = "5FE12265-991D-4E7A-94BF-8B782DB79986";
paths = (
{
closed = 1;
nodes = (
"475 346 LINE",
"55 347 LINE",
"19 299 OFFCURVE",
"20 273 OFFCURVE",
"52 241 CURVE",
"338 264 LINE",
"782 295 LINE",
"811 343 OFFCURVE",
"812 374 OFFCURVE",
"786 398 CURVE"
);
},
{
closed = 1;
nodes = (
"419 45 LINE",
"499 -8 OFFCURVE",
"662 -18 OFFCURVE",
"705 28 CURVE",
"652 562 LINE",
"676 726 LINE",
"621 757 OFFCURVE",
"452 771 OFFCURVE",
"297 707 CURVE",
"250 511 LINE",
"15 51 LINE",
"42 3 OFFCURVE",
"194 -19 OFFCURVE",
"264 28 CURVE",
"451 604 LINE",
"467 607 LINE",
"476 340 LINE"
);
}
);
width = 801;
},
{
anchors = (
{
name = ogonek;
position = "{469, 0}";
},
{
name = top;
position = "{428, 796}";
}
);
layerId = "31954392-1C4E-4333-A60C-122C4BAF07AE";
paths = (
{
closed = 1;
nodes = (
"387 327 LINE",
"39 310 LINE",
"19 288 OFFCURVE",
"16 261 OFFCURVE",
"32 240 CURVE",
"253 273 LINE",
"544 289 LINE",
"566 319 OFFCURVE",
"567 349 OFFCURVE",
"551 360 CURVE"
);
},
{
closed = 1;
nodes = (
"388 25 LINE",
"403 6 OFFCURVE",
"429 -5 OFFCURVE",
"474 0 CURVE",
"433 550 LINE",
"448 724 LINE",
"415 734 OFFCURVE",
"368 738 OFFCURVE",
"324 710 CURVE",
"210 438 LINE",
"-11 24 LINE",
"2 2 OFFCURVE",
"27 -4 OFFCURVE",
"72 0 CURVE",
"367 644 LINE",
"376 646 LINE",
"387 315 LINE"
);
}
);
width = 567;
}
);
unicode = 0041;
},
{
glyphname = Aacute;
layers = (
{
layerId = "5FE12265-991D-4E7A-94BF-8B782DB79986";
paths = (
{
closed = 1;
nodes = (
"475 346 LINE",
"55 347 LINE",
"19 299 OFFCURVE",
"20 273 OFFCURVE",
"52 241 CURVE",
"338 264 LINE",
"782 295 LINE",
"811 343 OFFCURVE",
"812 374 OFFCURVE",
"786 398 CURVE"
);
},
{
closed = 1;
nodes = (
"419 45 LINE",
"499 -8 OFFCURVE",
"662 -18 OFFCURVE",
"705 28 CURVE",
"652 562 LINE",
"676 726 LINE",
"621 757 OFFCURVE",
"452 771 OFFCURVE",
"297 707 CURVE",
"250 511 LINE",
"15 51 LINE",
"42 3 OFFCURVE",
"194 -19 OFFCURVE",
"264 28 CURVE",
"451 604 LINE",
"467 607 LINE",
"476 340 LINE"
);
},
{
closed = 1;
nodes = (
"525 952 LINE",
"450 857 LINE",
"446 825 OFFCURVE",
"493 806 OFFCURVE",
"535 807 CURVE",
"747 987 LINE",
"714 1055 OFFCURVE",
"659 1071 OFFCURVE",
"555 1058 CURVE"
);
}
);
width = 801;
},
{
layerId = "31954392-1C4E-4333-A60C-122C4BAF07AE";
paths = (
{
closed = 1;
nodes = (
"387 327 LINE",
"39 310 LINE",
"19 288 OFFCURVE",
"16 261 OFFCURVE",
"32 240 CURVE",
"253 273 LINE",
"544 289 LINE",
"566 319 OFFCURVE",
"567 349 OFFCURVE",
"551 360 CURVE"
);
},
{
closed = 1;
nodes = (
"388 25 LINE",
"403 6 OFFCURVE",
"429 -5 OFFCURVE",
"474 0 CURVE",
"433 550 LINE",
"448 724 LINE",
"415 734 OFFCURVE",
"368 738 OFFCURVE",
"324 710 CURVE",
"210 438 LINE",
"-11 24 LINE",
"2 2 OFFCURVE",
"27 -4 OFFCURVE",
"72 0 CURVE",
"367 644 LINE",
"376 646 LINE",
"387 315 LINE"
);
},
{
closed = 1;
nodes = (
"482 894 LINE",
"420 801 LINE",
"422 790 OFFCURVE",
"433 784 OFFCURVE",
"453 784 CURVE",
"612 940 LINE",
"611 962 OFFCURVE",
"556 984 OFFCURVE",
"512 972 CURVE"
);
}
);
width = 567;
}
);
unicode = 00C1;
},
{
glyphname = Abreve;
layers = (
{
layerId = "5FE12265-991D-4E7A-94BF-8B782DB79986";
paths = (
{
closed = 1;
nodes = (
"475 346 LINE",
"55 347 LINE",
"19 299 OFFCURVE",
"20 273 OFFCURVE",
"52 241 CURVE",
"338 264 LINE",
"782 295 LINE",
"811 343 OFFCURVE",
"812 374 OFFCURVE",
"786 398 CURVE"
);
},
{
closed = 1;
nodes = (
"419 45 LINE",
"499 -8 OFFCURVE",
"662 -18 OFFCURVE",
"705 28 CURVE",
"652 562 LINE",
"676 726 LINE",
"621 757 OFFCURVE",
"452 771 OFFCURVE",
"297 707 CURVE",
"250 511 LINE",
"15 51 LINE",
"42 3 OFFCURVE",
"194 -19 OFFCURVE",
"264 28 CURVE",
"451 604 LINE",
"467 607 LINE",
"476 340 LINE"
);
},
{
closed = 1;
nodes = (
"340 873 OFFCURVE",
"437 815 OFFCURVE",
"527 815 CURVE SMOOTH",
"617 815 OFFCURVE",
"696 883 OFFCURVE",
"719 955 CURVE",
"709 997 OFFCURVE",
"660 1022 OFFCURVE",
"581 1011 CURVE",
"574 962 OFFCURVE",
"541 924 OFFCURVE",
"477 913 CURVE",
"431 926 OFFCURVE",
"402 960 OFFCURVE",
"385 1011 CURVE",
"363 1015 OFFCURVE",
"336 999 OFFCURVE",
"325 985 CURVE"
);
}
);
width = 801;
},
{
layerId = "31954392-1C4E-4333-A60C-122C4BAF07AE";
paths = (
{
closed = 1;
nodes = (
"387 327 LINE",
"39 310 LINE",
"19 288 OFFCURVE",
"16 261 OFFCURVE",
"32 240 CURVE",
"253 273 LINE",
"544 289 LINE",
"566 319 OFFCURVE",
"567 349 OFFCURVE",
"551 360 CURVE"
);
},
{
closed = 1;
nodes = (
"388 25 LINE",
"403 6 OFFCURVE",
"429 -5 OFFCURVE",
"474 0 CURVE",
"433 550 LINE",
"448 724 LINE",
"415 734 OFFCURVE",
"368 738 OFFCURVE",
"324 710 CURVE",
"210 438 LINE",
"-11 24 LINE",
"2 2 OFFCURVE",
"27 -4 OFFCURVE",
"72 0 CURVE",
"367 644 LINE",
"376 646 LINE",
"387 315 LINE"
);
},
{
closed = 1;
nodes = (
"321 841 OFFCURVE",
"367 799 OFFCURVE",
"436 799 CURVE SMOOTH",
"498 799 OFFCURVE",
"547 841 OFFCURVE",
"561 902 CURVE",
"547 923 OFFCURVE",
"522 935 OFFCURVE",
"479 923 CURVE",
"474 887 OFFCURVE",
"449 859 OFFCURVE",
"402 851 CURVE",
"368 861 OFFCURVE",
"346 886 OFFCURVE",
"334 923 CURVE",
"318 923 OFFCURVE",
"307 921 OFFCURVE",
"300 915 CURVE"
);
}
);
width = 567;
}
);
unicode = 0102;
},
{
glyphname = Acircumflex;
layers = (
{
layerId = "5FE12265-991D-4E7A-94BF-8B782DB79986";
paths = (
{
closed = 1;
nodes = (
"475 346 LINE",
"55 347 LINE",
"19 299 OFFCURVE",
"20 273 OFFCURVE",
"52 241 CURVE",
"338 264 LINE",
"782 295 LINE",
"811 343 OFFCURVE",
"812 374 OFFCURVE",
"786 398 CURVE"
);
},
{
closed = 1;
nodes = (
"419 45 LINE",
"499 -8 OFFCURVE",
"662 -18 OFFCURVE",
"705 28 CURVE",
"652 562 LINE",
"676 726 LINE",
"621 757 OFFCURVE",
"452 771 OFFCURVE",
"297 707 CURVE",
"250 511 LINE",
"15 51 LINE",
"42 3 OFFCURVE",
"194 -19 OFFCURVE",
"264 28 CURVE",
"451 604 LINE",
"467 607 LINE",
"476 340 LINE"
);
},
{
closed = 1;
nodes = (
"250 855 LINE",
"254 822 OFFCURVE",
"294 806 OFFCURVE",
"342 808 CURVE",
"509 955 LINE",
"572 827 LINE",
"612 810 OFFCURVE",
"709 785 OFFCURVE",
"781 847 CURVE",
"670 1026 LINE",
"616 1057 OFFCURVE",
"551 1067 OFFCURVE",
"465 1053 CURVE"
);
}
);
width = 801;
},
{
layerId = "31954392-1C4E-4333-A60C-122C4BAF07AE";
paths = (
{
closed = 1;
nodes = (
"387 327 LINE",
"39 310 LINE",
"19 288 OFFCURVE",
"16 261 OFFCURVE",
"32 240 CURVE",
"253 273 LINE",
"544 289 LINE",
"566 319 OFFCURVE",
"567 349 OFFCURVE",
"551 360 CURVE"
);
},
{
closed = 1;
nodes = (
"388 25 LINE",
"403 6 OFFCURVE",
"429 -5 OFFCURVE",
"474 0 CURVE",
"433 550 LINE",
"448 724 LINE",
"415 734 OFFCURVE",
"368 738 OFFCURVE",
"324 710 CURVE",
"210 438 LINE",
"-11 24 LINE",
"2 2 OFFCURVE",
"27 -4 OFFCURVE",
"72 0 CURVE",
"367 644 LINE",
"376 646 LINE",
"387 315 LINE"
);
},
{
closed = 1;
nodes = (
"299 818 LINE",
"301 800 OFFCURVE",
"316 794 OFFCURVE",
"329 792 CURVE",
"455 903 LINE",
"506 795 LINE",
"521 785 OFFCURVE",
"553 781 OFFCURVE",
"576 802 CURVE",
"510 940 LINE",
"494 952 OFFCURVE",
"467 955 OFFCURVE",
"440 948 CURVE"
);
}
);
width = 567;
}
);
unicode = 00C2;
},
{
glyphname = Adieresis;
layers = (
{
layerId = "5FE12265-991D-4E7A-94BF-8B782DB79986";
paths = (
{
closed = 1;
nodes = (
"475 346 LINE",
"55 347 LINE",
"19 299 OFFCURVE",
"20 273 OFFCURVE",
"52 241 CURVE",
"338 264 LINE",
"782 295 LINE",
"811 343 OFFCURVE",
"812 374 OFFCURVE",
"786 398 CURVE"
);
},
{
closed = 1;
nodes = (
"419 45 LINE",
"499 -8 OFFCURVE",
"662 -18 OFFCURVE",
"705 28 CURVE",
"652 562 LINE",
"676 726 LINE",
"621 757 OFFCURVE",
"452 771 OFFCURVE",
"297 707 CURVE",
"250 511 LINE",
"15 51 LINE",
"42 3 OFFCURVE",
"194 -19 OFFCURVE",
"264 28 CURVE",
"451 604 LINE",
"467 607 LINE",
"476 340 LINE"
);
},
{
closed = 1;
nodes = (
"274 870 OFFCURVE",
"319 826 OFFCURVE",
"374 826 CURVE SMOOTH",
"428 826 OFFCURVE",
"471 870 OFFCURVE",
"471 923 CURVE SMOOTH",
"471 975 OFFCURVE",
"428 1018 OFFCURVE",
"374 1018 CURVE SMOOTH",
"319 1018 OFFCURVE",
"274 975 OFFCURVE",
"274 923 CURVE SMOOTH"
);
},
{
closed = 1;
nodes = (
"753 975 OFFCURVE",
"710 1018 OFFCURVE",
"657 1018 CURVE SMOOTH",
"602 1018 OFFCURVE",
"556 975 OFFCURVE",
"556 923 CURVE SMOOTH",
"556 870 OFFCURVE",
"602 826 OFFCURVE",
"657 826 CURVE SMOOTH",
"710 826 OFFCURVE",
"753 870 OFFCURVE",
"753 923 CURVE SMOOTH"
);
}
);
width = 801;
},
{
layerId = "31954392-1C4E-4333-A60C-122C4BAF07AE";
paths = (
{
closed = 1;
nodes = (
"387 327 LINE",
"39 310 LINE",
"19 288 OFFCURVE",
"16 261 OFFCURVE",
"32 240 CURVE",
"253 273 LINE",
"544 289 LINE",
"566 319 OFFCURVE",
"567 349 OFFCURVE",
"551 360 CURVE"
);
},
{
closed = 1;
nodes = (
"388 25 LINE",
"403 6 OFFCURVE",
"429 -5 OFFCURVE",
"474 0 CURVE",
"433 550 LINE",
"448 724 LINE",
"415 734 OFFCURVE",
"368 738 OFFCURVE",
"324 710 CURVE",
"210 438 LINE",
"-11 24 LINE",
"2 2 OFFCURVE",
"27 -4 OFFCURVE",
"72 0 CURVE",
"367 644 LINE",
"376 646 LINE",
"387 315 LINE"
);
},
{
closed = 1;
nodes = (
"293 833 OFFCURVE",
"313 811 OFFCURVE",
"340 811 CURVE SMOOTH",
"366 811 OFFCURVE",
"387 833 OFFCURVE",
"387 858 CURVE SMOOTH",
"387 885 OFFCURVE",
"366 905 OFFCURVE",
"340 905 CURVE SMOOTH",
"313 905 OFFCURVE",
"293 885 OFFCURVE",
"293 858 CURVE SMOOTH"
);
},
{
closed = 1;
nodes = (
"549 885 OFFCURVE",
"528 905 OFFCURVE",
"502 905 CURVE SMOOTH",
"475 905 OFFCURVE",
"455 885 OFFCURVE",
"455 858 CURVE SMOOTH",
"455 833 OFFCURVE",
"475 811 OFFCURVE",
"502 811 CURVE SMOOTH",
"528 811 OFFCURVE",
"549 833 OFFCURVE",
"549 858 CURVE SMOOTH"
);
}
);
width = 567;
}
);
unicode = 00C4;
},
{
glyphname = Agrave;
layers = (
{
layerId = "5FE12265-991D-4E7A-94BF-8B782DB79986";
paths = (
{
closed = 1;
nodes = (
"475 346 LINE",
"55 347 LINE",
"19 299 OFFCURVE",
"20 273 OFFCURVE",
"52 241 CURVE",
"338 264 LINE",
"782 295 LINE",
"811 343 OFFCURVE",
"812 374 OFFCURVE",
"786 398 CURVE"
);
},
{
closed = 1;
nodes = (
"419 45 LINE",
"499 -8 OFFCURVE",
"662 -18 OFFCURVE",
"705 28 CURVE",
"652 562 LINE",
"676 726 LINE",
"621 757 OFFCURVE",
"452 771 OFFCURVE",
"297 707 CURVE",
"250 511 LINE",
"15 51 LINE",
"42 3 OFFCURVE",
"194 -19 OFFCURVE",
"264 28 CURVE",
"451 604 LINE",
"467 607 LINE",
"476 340 LINE"
);
},
{
closed = 1;
nodes = (
"534 1045 LINE",
"494 1072 OFFCURVE",
"383 1065 OFFCURVE",
"342 986 CURVE",
"429 915 LINE",
"501 813 LINE",
"536 799 OFFCURVE",
"585 813 OFFCURVE",
"605 842 CURVE"
);
}
);
width = 801;
},
{
layerId = "31954392-1C4E-4333-A60C-122C4BAF07AE";
paths = (
{
closed = 1;
nodes = (
"387 327 LINE",
"39 310 LINE",
"19 288 OFFCURVE",
"16 261 OFFCURVE",
"32 240 CURVE",
"253 273 LINE",
"544 289 LINE",
"566 319 OFFCURVE",
"567 349 OFFCURVE",
"551 360 CURVE"
);
},
{
closed = 1;
nodes = (
"388 25 LINE",
"403 6 OFFCURVE",
"429 -5 OFFCURVE",
"474 0 CURVE",
"433 550 LINE",
"448 724 LINE",
"415 734 OFFCURVE",
"368 738 OFFCURVE",
"324 710 CURVE",
"210 438 LINE",
"-11 24 LINE",
"2 2 OFFCURVE",
"27 -4 OFFCURVE",
"72 0 CURVE",
"367 644 LINE",
"376 646 LINE",
"387 315 LINE"
);
},
{
closed = 1;
nodes = (
"370 989 LINE",
"327 998 OFFCURVE",
"290 985 OFFCURVE",
"280 949 CURVE",
"366 861 LINE",
"417 788 LINE",
"436 786 OFFCURVE",
"448 791 OFFCURVE",
"451 802 CURVE"
);
}
);
width = 567;
}
);
unicode = 00C0;
},
{
glyphname = Amacron;
layers = (
{
layerId = "5FE12265-991D-4E7A-94BF-8B782DB79986";
paths = (
{
closed = 1;
nodes = (
"475 346 LINE",
"55 347 LINE",
"19 299 OFFCURVE",
"20 273 OFFCURVE",
"52 241 CURVE",
"338 264 LINE",
"782 295 LINE",
"811 343 OFFCURVE",
"812 374 OFFCURVE",
"786 398 CURVE"
);
},
{
closed = 1;
nodes = (
"419 45 LINE",
"499 -8 OFFCURVE",
"662 -18 OFFCURVE",
"705 28 CURVE",
"652 562 LINE",
"676 726 LINE",
"621 757 OFFCURVE",
"452 771 OFFCURVE",
"297 707 CURVE",
"250 511 LINE",
"15 51 LINE",
"42 3 OFFCURVE",
"194 -19 OFFCURVE",
"264 28 CURVE",
"451 604 LINE",
"467 607 LINE",
"476 340 LINE"
);
},
{
closed = 1;
nodes = (
"518 889 LINE",
"327 894 LINE",
"302 858 OFFCURVE",
"298 832 OFFCURVE",
"313 813 CURVE",
"697 825 LINE",
"729 864 OFFCURVE",
"733 897 OFFCURVE",
"713 909 CURVE"
);
}
);
width = 801;
},
{
layerId = "31954392-1C4E-4333-A60C-122C4BAF07AE";
paths = (
{
closed = 1;
nodes = (
"387 327 LINE",
"39 310 LINE",
"19 288 OFFCURVE",
"16 261 OFFCURVE",
"32 240 CURVE",
"253 273 LINE",
"544 289 LINE",
"566 319 OFFCURVE",
"567 349 OFFCURVE",
"551 360 CURVE"
);
},
{
closed = 1;
nodes = (
"388 25 LINE",
"403 6 OFFCURVE",
"429 -5 OFFCURVE",
"474 0 CURVE",
"433 550 LINE",
"448 724 LINE",
"415 734 OFFCURVE",
"368 738 OFFCURVE",
"324 710 CURVE",
"210 438 LINE",
"-11 24 LINE",
"2 2 OFFCURVE",
"27 -4 OFFCURVE",
"72 0 CURVE",
"367 644 LINE",
"376 646 LINE",
"387 315 LINE"
);
},
{
closed = 1;
nodes = (
"425 867 LINE",
"273 872 LINE",
"252 846 OFFCURVE",
"248 827 OFFCURVE",
"262 813 CURVE",
"548 821 LINE",
"574 850 OFFCURVE",
"579 873 OFFCURVE",
"563 882 CURVE"
);
}
);
width = 567;
}
);
unicode = 0100;
},
{
glyphname = Aogonek;
layers = (
{
layerId = "975719B3-E082-4404-B156-488762B4AD4B";
name = public.background;
paths = (
{
closed = 1;
nodes = (
"722 21 OFFCURVE",
"697 41 OFFCURVE",
"657 50 CURVE",
"529 40 OFFCURVE",
"413 -7 OFFCURVE",
"399 -108 CURVE SMOOTH",
"383 -212 OFFCURVE",
"486 -268 OFFCURVE",
"608 -268 CURVE SMOOTH",
"706 -268 OFFCURVE",
"775 -235 OFFCURVE",
"831 -175 CURVE",
"833 -145 OFFCURVE",
"818 -120 OFFCURVE",
"799 -119 CURVE",
"769 -145 OFFCURVE",
"726 -163 OFFCURVE",
"684 -163 CURVE SMOOTH",
"644 -163 OFFCURVE",
"610 -153 OFFCURVE",
"595 -122 CURVE",
"602 -61 OFFCURVE",
"668 -18 OFFCURVE",
"723 -7 CURVE"
);
}
);
width = 567;
},
{
layerId = "5FE12265-991D-4E7A-94BF-8B782DB79986";
paths = (
{
closed = 1;
nodes = (
"687 59 OFFCURVE",
"679 76 OFFCURVE",
"639 85 CURVE",
"531 62 OFFCURVE",
"359 -34 OFFCURVE",
"359 -148 CURVE SMOOTH",
"359 -212 OFFCURVE",
"456 -268 OFFCURVE",
"549 -268 CURVE SMOOTH",
"666 -268 OFFCURVE",
"735 -235 OFFCURVE",
"791 -175 CURVE",
"793 -135 OFFCURVE",
"775 -111 OFFCURVE",
"746 -113 CURVE",
"710 -138 OFFCURVE",
"664 -155 OFFCURVE",
"623 -155 CURVE SMOOTH",
"592 -155 OFFCURVE",
"564 -145 OFFCURVE",
"547 -122 CURVE",
"572 -47 OFFCURVE",
"635 -6 OFFCURVE",
"687 15 CURVE"
);
},
{
closed = 1;
nodes = (
"475 346 LINE",
"55 347 LINE",
"19 299 OFFCURVE",
"20 273 OFFCURVE",
"52 241 CURVE",
"338 264 LINE",
"782 295 LINE",
"811 343 OFFCURVE",
"812 374 OFFCURVE",
"786 398 CURVE"
);
},
{
closed = 1;
nodes = (
"419 45 LINE",
"499 -8 OFFCURVE",
"662 -18 OFFCURVE",
"705 28 CURVE",
"652 562 LINE",
"676 726 LINE",
"621 757 OFFCURVE",
"452 771 OFFCURVE",
"297 707 CURVE",
"250 511 LINE",
"15 51 LINE",
"42 3 OFFCURVE",
"194 -19 OFFCURVE",
"264 28 CURVE",
"451 604 LINE",
"467 607 LINE",
"476 340 LINE"
);
}
);
width = 801;
},
{
layerId = "31954392-1C4E-4333-A60C-122C4BAF07AE";
paths = (
{
closed = 1;
nodes = (
"462 13 OFFCURVE",
"451 20 OFFCURVE",
"429 23 CURVE",
"373 4 OFFCURVE",
"293 -51 OFFCURVE",
"293 -118 CURVE SMOOTH",
"293 -160 OFFCURVE",
"353 -198 OFFCURVE",
"414 -198 CURVE SMOOTH",
"468 -198 OFFCURVE",
"513 -171 OFFCURVE",
"545 -137 CURVE",
"541 -119 OFFCURVE",
"532 -113 OFFCURVE",
"518 -112 CURVE",
"491 -135 OFFCURVE",
"455 -147 OFFCURVE",
"420 -147 CURVE SMOOTH",
"383 -147 OFFCURVE",
"356 -132 OFFCURVE",
"345 -110 CURVE",
"356 -65 OFFCURVE",
"400 -14 OFFCURVE",
"462 -1 CURVE"
);
},
{
closed = 1;
nodes = (
"387 327 LINE",
"39 310 LINE",
"19 288 OFFCURVE",
"16 261 OFFCURVE",
"32 240 CURVE",
"253 273 LINE",
"544 289 LINE",
"566 319 OFFCURVE",
"567 349 OFFCURVE",
"551 360 CURVE"
);
},
{
closed = 1;
nodes = (
"388 25 LINE",
"403 6 OFFCURVE",
"429 -5 OFFCURVE",
"474 0 CURVE",
"433 550 LINE",
"448 724 LINE",
"415 734 OFFCURVE",
"368 738 OFFCURVE",
"324 710 CURVE",
"210 438 LINE",
"-11 24 LINE",
"2 2 OFFCURVE",
"27 -4 OFFCURVE",
"72 0 CURVE",
"367 644 LINE",
"376 646 LINE",
"387 315 LINE"
);
}
);
width = 567;
}
);
unicode = 0104;
},
{
glyphname = Aring;
layers = (
{
layerId = "5FE12265-991D-4E7A-94BF-8B782DB79986";
paths = (
{
closed = 1;
nodes = (
"475 346 LINE",
"55 347 LINE",
"19 299 OFFCURVE",
"20 273 OFFCURVE",
"52 241 CURVE",
"338 264 LINE",
"782 295 LINE",
"811 343 OFFCURVE",
"812 374 OFFCURVE",
"786 398 CURVE"
);
},
{
closed = 1;
nodes = (
"419 45 LINE",
"499 -8 OFFCURVE",
"662 -18 OFFCURVE",
"705 28 CURVE",
"652 562 LINE",
"676 726 LINE",
"621 757 OFFCURVE",
"452 771 OFFCURVE",
"297 707 CURVE",
"250 511 LINE",
"15 51 LINE",
"42 3 OFFCURVE",
"194 -19 OFFCURVE",
"264 28 CURVE",
"451 604 LINE",
"467 607 LINE",
"476 340 LINE"
);
},
{
closed = 1;
nodes = (
"455 1062 OFFCURVE",
"359 1028 OFFCURVE",
"330 930 CURVE SMOOTH",
"303 840 OFFCURVE",
"389 802 OFFCURVE",
"480 802 CURVE SMOOTH",
"595 802 OFFCURVE",
"692 841 OFFCURVE",
"720 930 CURVE",
"757 1036 OFFCURVE",
"655 1062 OFFCURVE",
"568 1062 CURVE"
);
},
{
closed = 1;
nodes = (
"550 1010 OFFCURVE",
"566 988 OFFCURVE",
"552 930 CURVE",
"543 897 OFFCURVE",
"532 870 OFFCURVE",
"517 852 CURVE",
"513 851 OFFCURVE",
"510 851 OFFCURVE",
"507 851 CURVE SMOOTH",
"495 851 OFFCURVE",
"478 873 OFFCURVE",
"493 930 CURVE",
"499 962 OFFCURVE",
"512 990 OFFCURVE",
"524 1007 CURVE",
"528 1010 OFFCURVE",
"533 1010 OFFCURVE",
"539 1010 CURVE"
);
}
);
width = 801;
},
{
layerId = "31954392-1C4E-4333-A60C-122C4BAF07AE";
paths = (
{
closed = 1;
nodes = (
"387 327 LINE",
"39 310 LINE",
"19 288 OFFCURVE",
"16 261 OFFCURVE",
"32 240 CURVE",
"253 273 LINE",
"544 289 LINE",
"566 319 OFFCURVE",
"567 349 OFFCURVE",
"551 360 CURVE"
);
},
{
closed = 1;
nodes = (
"388 25 LINE",
"403 6 OFFCURVE",
"429 -5 OFFCURVE",
"474 0 CURVE",
"433 550 LINE",
"448 724 LINE",
"415 734 OFFCURVE",
"368 738 OFFCURVE",
"324 710 CURVE",
"210 438 LINE",
"-11 24 LINE",
"2 2 OFFCURVE",
"27 -4 OFFCURVE",
"72 0 CURVE",
"367 644 LINE",
"376 646 LINE",
"387 315 LINE"
);
},
{
closed = 1;
nodes = (
"449 985 OFFCURVE",
"399 933 OFFCURVE",
"380 885 CURVE",
"361 828 OFFCURVE",
"387 784 OFFCURVE",
"442 784 CURVE SMOOTH",
"497 784 OFFCURVE",
"548 836 OFFCURVE",
"567 885 CURVE",
"586 941 OFFCURVE",
"560 985 OFFCURVE",
"505 985 CURVE"
);
},
{
closed = 1;
nodes = (
"525 955 OFFCURVE",
"525 921 OFFCURVE",
"514 885 CURVE",
"509 862 OFFCURVE",
"500 842 OFFCURVE",
"489 826 CURVE",
"480 820 OFFCURVE",
"472 814 OFFCURVE",
"457 814 CURVE SMOOTH",
"421 814 OFFCURVE",
"420 848 OFFCURVE",
"432 885 CURVE SMOOTH",
"439 907 OFFCURVE",
"449 929 OFFCURVE",
"460 944 CURVE",
"470 949 OFFCURVE",
"479 955 OFFCURVE",
"488 955 CURVE"
);
}
);
width = 567;
}
);
unicode = 00C5;
},
{
glyphname = Atilde;
layers = (
{
layerId = "5FE12265-991D-4E7A-94BF-8B782DB79986";
paths = (
{
closed = 1;
nodes = (
"475 346 LINE",
"55 347 LINE",
"19 299 OFFCURVE",
"20 273 OFFCURVE",
"52 241 CURVE",
"338 264 LINE",
"782 295 LINE",
"811 343 OFFCURVE",
"812 374 OFFCURVE",
"786 398 CURVE"
);
},
{
closed = 1;
nodes = (
"419 45 LINE",
"499 -8 OFFCURVE",
"662 -18 OFFCURVE",
"705 28 CURVE",
"652 562 LINE",
"676 726 LINE",
"621 757 OFFCURVE",
"452 771 OFFCURVE",
"297 707 CURVE",
"250 511 LINE",
"15 51 LINE",
"42 3 OFFCURVE",
"194 -19 OFFCURVE",
"264 28 CURVE",
"451 604 LINE",
"467 607 LINE",
"476 340 LINE"
);
},
{
closed = 1;
nodes = (
"361 969 OFFCURVE",
"323 941 OFFCURVE",
"265 871 CURVE",
"261 826 OFFCURVE",
"321 800 OFFCURVE",
"360 809 CURVE",
"434 897 LINE",
"442 899 LINE",
"485 862 OFFCURVE",
"535 821 OFFCURVE",
"649 807 CURVE",
"738 836 OFFCURVE",
"796 907 OFFCURVE",
"828 955 CURVE",
"831 992 OFFCURVE",
"787 1012 OFFCURVE",
"743 1004 CURVE",
"672 908 LINE",
"667 908 LINE",
"631 940 OFFCURVE",
"555 993 OFFCURVE",
"439 1015 CURVE"
);
}
);
width = 801;
},
{
layerId = "31954392-1C4E-4333-A60C-122C4BAF07AE";
paths = (
{
closed = 1;
nodes = (
"387 327 LINE",
"39 310 LINE",
"19 288 OFFCURVE",
"16 261 OFFCURVE",
"32 240 CURVE",
"253 273 LINE",
"544 289 LINE",
"566 319 OFFCURVE",
"567 349 OFFCURVE",
"551 360 CURVE"
);
},
{
closed = 1;
nodes = (
"388 25 LINE",
"403 6 OFFCURVE",
"429 -5 OFFCURVE",
"474 0 CURVE",
"433 550 LINE",
"448 724 LINE",
"415 734 OFFCURVE",
"368 738 OFFCURVE",
"324 710 CURVE",
"210 438 LINE",
"-11 24 LINE",
"2 2 OFFCURVE",
"27 -4 OFFCURVE",
"72 0 CURVE",
"367 644 LINE",
"376 646 LINE",
"387 315 LINE"
);
},
{
closed = 1;
nodes = (
"321 895 OFFCURVE",
"288 851 OFFCURVE",
"266 820 CURVE",
"265 804 OFFCURVE",
"284 790 OFFCURVE",
"309 791 CURVE",
"361 862 LINE",
"366 864 LINE",
"388 828 OFFCURVE",
"424 809 OFFCURVE",
"488 787 CURVE",
"546 817 OFFCURVE",
"579 845 OFFCURVE",
"599 879 CURVE",
"605 899 OFFCURVE",
"585 914 OFFCURVE",
"557 908 CURVE",
"498 839 LINE",
"494 840 LINE",
"473 872 OFFCURVE",
"444 891 OFFCURVE",
"386 915 CURVE"
);
}
);
width = 567;
}
);
unicode = 00C3;
},
{
glyphname = AE;
layers = (
{
layerId = "5FE12265-991D-4E7A-94BF-8B782DB79986";
paths = (
{
closed = 1;
nodes = (
"907 750 OFFCURVE",
"819 754 OFFCURVE",
"735 754 CURVE SMOOTH",
"563 754 OFFCURVE",
"397 740 OFFCURVE",
"299 707 CURVE",
"253 530 LINE",
"184 383 LINE",
"63 382 LINE",
"25 334 OFFCURVE",
"25 308 OFFCURVE",
"56 276 CURVE",
"131 283 LINE",
"2 51 LINE",
"27 3 OFFCURVE",
"179 -19 OFFCURVE",
"251 28 CURVE",
"343 295 LINE",
"478 307 LINE",
"417 62 LINE",
"446 24 OFFCURVE",
"500 0 OFFCURVE",
"581 0 CURVE SMOOTH",
"650 0 OFFCURVE",
"821 11 OFFCURVE",
"902 27 CURVE",
"920 61 OFFCURVE",
"947 150 OFFCURVE",
"886 180 CURVE",
"782 157 OFFCURVE",
"683 137 OFFCURVE",
"606 128 CURVE",
"606 208 LINE",
"639 320 LINE",
"728 333 OFFCURVE",
"798 332 OFFCURVE",
"884 327 CURVE",
"923 360 OFFCURVE",
"930 430 OFFCURVE",
"886 444 CURVE",
"802 439 OFFCURVE",
"699 424 OFFCURVE",
"645 413 CURVE",
"637 563 LINE",
"665 624 LINE",
"726 634 OFFCURVE",
"774 638 OFFCURVE",
"815 630 CURVE",
"898 563 LINE",
"980 619 OFFCURVE",
"1017 682 OFFCURVE",
"969 747 CURVE"
);
},
{
closed = 1;
nodes = (
"457 617 LINE",
"474 620 LINE",
"486 388 LINE",
"373 374 LINE"
);
}
);
width = 975;
},
{
layerId = "31954392-1C4E-4333-A60C-122C4BAF07AE";
paths = (
{
closed = 1;
nodes = (
"711 730 OFFCURVE",
"666 731 OFFCURVE",
"617 731 CURVE SMOOTH",
"509 731 OFFCURVE",
"408 725 OFFCURVE",
"327 705 CURVE",
"208 428 LINE",
"165 361 LINE",
"51 362 LINE",
"31 340 OFFCURVE",
"27 313 OFFCURVE",
"42 292 CURVE",
"130 298 LINE",
"-24 24 LINE",
"-12 2 OFFCURVE",
"13 -4 OFFCURVE",
"58 0 CURVE",
"206 303 LINE",
"366 309 LINE",
"312 50 LINE",
"340 18 OFFCURVE",
"349 0 OFFCURVE",
"405 0 CURVE SMOOTH",
"488 0 OFFCURVE",
"597 13 OFFCURVE",
"679 29 CURVE",
"691 55 OFFCURVE",
"699 100 OFFCURVE",
"664 113 CURVE",
"602 91 OFFCURVE",
"482 65 OFFCURVE",
"402 63 CURVE",
"402 124 LINE",
"432 305 LINE",
"528 314 OFFCURVE",
"556 314 OFFCURVE",
"649 306 CURVE",
"667 336 OFFCURVE",
"669 370 OFFCURVE",
"658 389 CURVE",
"563 374 OFFCURVE",
"530 373 OFFCURVE",
"442 369 CURVE",
"457 577 LINE",
"487 663 LINE",
"548 670 OFFCURVE",
"600 673 OFFCURVE",
"658 664 CURVE",
"713 615 LINE",
"755 644 OFFCURVE",
"771 708 OFFCURVE",
"744 728 CURVE"
);
},
{
closed = 1;
nodes = (
"370 644 LINE",
"378 646 LINE",
"368 362 LINE",
"232 359 LINE"
);
}
);
width = 757;
}
);
unicode = 00C6;
},
{
glyphname = B;
layers = (
{
layerId = "5FE12265-991D-4E7A-94BF-8B782DB79986";
paths = (
{
closed = 1;
nodes = (
"375 641 LINE",
"479 660 OFFCURVE",
"517 601 OFFCURVE",
"505 533 CURVE SMOOTH",
"499 498 OFFCURVE",
"480 461 OFFCURVE",
"450 430 CURVE",
"419 415 OFFCURVE",
"390 411 OFFCURVE",
"347 412 CURVE"
);
},
{
closed = 1;
nodes = (
"384 108 OFFCURVE",
"329 100 OFFCURVE",
"277 108 CURVE",
"332 334 LINE",
"387 338 OFFCURVE",
"421 330 OFFCURVE",
"457 320 CURVE",
"476 288 OFFCURVE",
"482 266 OFFCURVE",
"482 244 CURVE SMOOTH",
"483 205 OFFCURVE",
"469 165 OFFCURVE",
"439 125 CURVE"
);
},
{
closed = 1;
nodes = (
"565 394 LINE",
"678 433 OFFCURVE",
"738 494 OFFCURVE",
"739 578 CURVE SMOOTH",
"741 670 OFFCURVE",
"643 750 OFFCURVE",
"411 750 CURVE SMOOTH",
"337 750 OFFCURVE",
"179 737 OFFCURVE",
"105 713 CURVE",
"85 694 OFFCURVE",
"89 660 OFFCURVE",
"114 641 CURVE",
"164 640 LINE",
"187 507 LINE",
"162 386 OFFCURVE",
"118 259 OFFCURVE",
"62 129 CURVE",
"66 53 OFFCURVE",
"163 9 OFFCURVE",
"232 0 CURVE",
"416 -6 OFFCURVE",
"484 8 OFFCURVE",
"601 44 CURVE",
"693 123 OFFCURVE",
"719 181 OFFCURVE",
"720 248 CURVE SMOOTH",
"721 283 OFFCURVE",
"710 314 OFFCURVE",
"680 346 CURVE",
"655 364 OFFCURVE",
"618 379 OFFCURVE",
"564 385 CURVE"
);
}
);
width = 753;
},
{
layerId = "31954392-1C4E-4333-A60C-122C4BAF07AE";
paths = (
{
closed = 1;
nodes = (
"257 673 LINE",
"402 685 OFFCURVE",
"473 620 OFFCURVE",
"473 546 CURVE SMOOTH",
"472 464 OFFCURVE",
"456 460 OFFCURVE",
"409 420 CURVE",
"348 393 OFFCURVE",
"288 386 OFFCURVE",
"207 387 CURVE"
);
},
{
closed = 1;
nodes = (
"336 63 OFFCURVE",
"240 54 OFFCURVE",
"157 55 CURVE",
"203 337 LINE",
"334 350 OFFCURVE",
"394 334 OFFCURVE",
"453 282 CURVE",
"458 266 OFFCURVE",
"460 249 OFFCURVE",
"460 233 CURVE SMOOTH",
"459 178 OFFCURVE",
"446 137 OFFCURVE",
"402 86 CURVE"
);
},
{
closed = 1;
nodes = (
"430 368 LINE",
"518 418 OFFCURVE",
"555 455 OFFCURVE",
"556 551 CURVE SMOOTH",
"556 644 OFFCURVE",
"461 735 OFFCURVE",
"284 735 CURVE SMOOTH",
"227 735 OFFCURVE",
"183 731 OFFCURVE",
"131 720 CURVE",
"119 702 OFFCURVE",
"118 674 OFFCURVE",
"148 654 CURVE",
"184 662 LINE",
"149 435 LINE",
"127 315 OFFCURVE",
"106 224 OFFCURVE",
"65 70 CURVE",
"70 35 OFFCURVE",
"95 15 OFFCURVE",
"147 0 CURVE",
"247 -5 OFFCURVE",
"348 1 OFFCURVE",
"461 41 CURVE",
"523 109 OFFCURVE",
"541 177 OFFCURVE",
"541 238 CURVE SMOOTH",
"541 262 OFFCURVE",
"536 287 OFFCURVE",
"525 310 CURVE",
"498 332 OFFCURVE",
"464 351 OFFCURVE",
"429 361 CURVE"
);
}
);
width = 585;
}
);
unicode = 0042;
},
{
glyphname = C;
layers = (
{
anchors = (
{
name = bottom;
position = "{421, 0}";
},
{
name = top;
position = "{445, 753}";
}
);
layerId = "5FE12265-991D-4E7A-94BF-8B782DB79986";
paths = (
{
closed = 1;
nodes = (
"450 660 LINE",
"483 624 OFFCURVE",
"489 542 OFFCURVE",
"491 484 CURVE",
"586 437 OFFCURVE",
"700 484 OFFCURVE",
"719 537 CURVE",
"704 640 OFFCURVE",
"653 719 OFFCURVE",
"523 766 CURVE",
"380 748 OFFCURVE",
"271 710 OFFCURVE",
"152 605 CURVE",
"91 508 OFFCURVE",
"56 427 OFFCURVE",
"54 330 CURVE SMOOTH",
"51 158 OFFCURVE",
"168 28 OFFCURVE",
"381 0 CURVE",
"504 36 OFFCURVE",
"616 96 OFFCURVE",
"685 167 CURVE",
"687 220 OFFCURVE",
"668 254 OFFCURVE",
"610 250 CURVE",
"551 208 OFFCURVE",
"497 181 OFFCURVE",
"405 149 CURVE",
"328 191 OFFCURVE",
"290 250 OFFCURVE",
"291 350 CURVE SMOOTH",
"292 443 OFFCURVE",
"332 557 OFFCURVE",
"428 654 CURVE"
);
}
);
width = 725;
},
{
anchors = (
{
name = bottom;
position = "{325, 0}";
},
{
name = top;
position = "{383, 796}";
}
);
layerId = "31954392-1C4E-4333-A60C-122C4BAF07AE";
paths = (
{
closed = 1;
nodes = (
"416 679 LINE",
"453 637 OFFCURVE",
"462 596 OFFCURVE",
"468 536 CURVE",
"498 525 OFFCURVE",
"531 531 OFFCURVE",
"564 557 CURVE",
"559 626 OFFCURVE",
"514 713 OFFCURVE",
"431 744 CURVE",
"264 716 OFFCURVE",
"164 605 OFFCURVE",
"108 535 CURVE",
"65 456 OFFCURVE",
"42 387 OFFCURVE",
"42 318 CURVE SMOOTH",
"44 164 OFFCURVE",
"111 51 OFFCURVE",
"307 0 CURVE",
"390 35 OFFCURVE",
"487 97 OFFCURVE",
"526 147 CURVE",
"528 168 OFFCURVE",
"511 197 OFFCURVE",
"478 189 CURVE",
"443 147 OFFCURVE",
"368 92 OFFCURVE",
"296 62 CURVE",
"174 108 OFFCURVE",
"116 178 OFFCURVE",
"116 319 CURVE SMOOTH",
"116 473 OFFCURVE",
"246 639 OFFCURVE",
"401 678 CURVE"
);
}
);
width = 580;
}
);
unicode = 0043;
},
{
glyphname = Cacute;
layers = (
{
layerId = "5FE12265-991D-4E7A-94BF-8B782DB79986";
paths = (
{
closed = 1;
nodes = (
"450 660 LINE",
"483 624 OFFCURVE",
"489 542 OFFCURVE",
"491 484 CURVE",
"586 437 OFFCURVE",
"700 484 OFFCURVE",
"719 537 CURVE",
"704 640 OFFCURVE",
"653 719 OFFCURVE",
"523 766 CURVE",
"380 748 OFFCURVE",
"271 710 OFFCURVE",
"152 605 CURVE",
"91 508 OFFCURVE",
"56 427 OFFCURVE",
"54 330 CURVE SMOOTH",
"51 158 OFFCURVE",
"168 28 OFFCURVE",
"381 0 CURVE",
"504 36 OFFCURVE",
"616 96 OFFCURVE",
"685 167 CURVE",
"687 220 OFFCURVE",
"668 254 OFFCURVE",
"610 250 CURVE",
"551 208 OFFCURVE",
"497 181 OFFCURVE",
"405 149 CURVE",
"328 191 OFFCURVE",
"290 250 OFFCURVE",
"291 350 CURVE SMOOTH",
"292 443 OFFCURVE",
"332 557 OFFCURVE",
"428 654 CURVE"
);
},
{
closed = 1;
nodes = (
"484 952 LINE",
"409 857 LINE",
"405 825 OFFCURVE",
"452 806 OFFCURVE",
"494 807 CURVE",
"706 987 LINE",
"673 1055 OFFCURVE",
"618 1071 OFFCURVE",
"514 1058 CURVE"
);
}
);
width = 725;
},
{
layerId = "31954392-1C4E-4333-A60C-122C4BAF07AE";
paths = (
{
closed = 1;
nodes = (
"416 679 LINE",
"453 637 OFFCURVE",
"462 596 OFFCURVE",
"468 536 CURVE",
"498 525 OFFCURVE",
"531 531 OFFCURVE",
"564 557 CURVE",
"559 626 OFFCURVE",
"514 713 OFFCURVE",
"431 744 CURVE",
"264 716 OFFCURVE",
"164 605 OFFCURVE",
"108 535 CURVE",
"65 456 OFFCURVE",
"42 387 OFFCURVE",
"42 318 CURVE SMOOTH",
"44 164 OFFCURVE",
"111 51 OFFCURVE",
"307 0 CURVE",
"390 35 OFFCURVE",
"487 97 OFFCURVE",
"526 147 CURVE",
"528 168 OFFCURVE",
"511 197 OFFCURVE",
"478 189 CURVE",
"443 147 OFFCURVE",
"368 92 OFFCURVE",
"296 62 CURVE",
"174 108 OFFCURVE",
"116 178 OFFCURVE",
"116 319 CURVE SMOOTH",
"116 473 OFFCURVE",
"246 639 OFFCURVE",
"401 678 CURVE"
);
},
{
closed = 1;
nodes = (
"437 894 LINE",
"375 801 LINE",
"377 790 OFFCURVE",
"388 784 OFFCURVE",
"408 784 CURVE",
"567 940 LINE",
"566 962 OFFCURVE",
"511 984 OFFCURVE",
"467 972 CURVE"
);
}
);
width = 580;
}
);
unicode = 0106;
},
{
glyphname = Ccaron;
layers = (
{
layerId = "5FE12265-991D-4E7A-94BF-8B782DB79986";
paths = (
{
closed = 1;
nodes = (
"450 660 LINE",
"483 624 OFFCURVE",
"489 542 OFFCURVE",
"491 484 CURVE",
"586 437 OFFCURVE",
"700 484 OFFCURVE",
"719 537 CURVE",
"704 640 OFFCURVE",
"653 719 OFFCURVE",
"523 766 CURVE",
"380 748 OFFCURVE",
"271 710 OFFCURVE",
"152 605 CURVE",
"91 508 OFFCURVE",
"56 427 OFFCURVE",
"54 330 CURVE SMOOTH",
"51 158 OFFCURVE",
"168 28 OFFCURVE",
"381 0 CURVE",
"504 36 OFFCURVE",
"616 96 OFFCURVE",
"685 167 CURVE",
"687 220 OFFCURVE",
"668 254 OFFCURVE",
"610 250 CURVE",
"551 208 OFFCURVE",
"497 181 OFFCURVE",
"405 149 CURVE",
"328 191 OFFCURVE",
"290 250 OFFCURVE",
"291 350 CURVE SMOOTH",
"292 443 OFFCURVE",
"332 557 OFFCURVE",
"428 654 CURVE"
);
},
{
closed = 1;
nodes = (
"387 825 LINE",
"447 793 OFFCURVE",
"529 808 OFFCURVE",
"599 837 CURVE",
"778 1015 LINE",
"746 1079 OFFCURVE",
"635 1057 OFFCURVE",
"603 1048 CURVE",
"467 891 LINE",
"355 1056 LINE",
"313 1066 OFFCURVE",
"269 1047 OFFCURVE",
"255 1017 CURVE"
);
}
);
width = 725;
},
{
layerId = "31954392-1C4E-4333-A60C-122C4BAF07AE";
paths = (
{
closed = 1;
nodes = (
"416 679 LINE",
"453 637 OFFCURVE",
"462 596 OFFCURVE",
"468 536 CURVE",
"498 525 OFFCURVE",
"531 531 OFFCURVE",
"564 557 CURVE",
"559 626 OFFCURVE",
"514 713 OFFCURVE",
"431 744 CURVE",
"264 716 OFFCURVE",
"164 605 OFFCURVE",
"108 535 CURVE",
"65 456 OFFCURVE",
"42 387 OFFCURVE",
"42 318 CURVE SMOOTH",
"44 164 OFFCURVE",
"111 51 OFFCURVE",
"307 0 CURVE",
"390 35 OFFCURVE",
"487 97 OFFCURVE",
"526 147 CURVE",
"528 168 OFFCURVE",
"511 197 OFFCURVE",
"478 189 CURVE",
"443 147 OFFCURVE",
"368 92 OFFCURVE",
"296 62 CURVE",
"174 108 OFFCURVE",
"116 178 OFFCURVE",
"116 319 CURVE SMOOTH",
"116 473 OFFCURVE",
"246 639 OFFCURVE",
"401 678 CURVE"
);
},
{
closed = 1;
nodes = (
"330 800 LINE",
"343 790 OFFCURVE",
"372 784 OFFCURVE",
"400 792 CURVE",
"525 908 LINE",
"519 936 OFFCURVE",
"495 945 OFFCURVE",
"461 935 CURVE",
"359 827 LINE",
"309 926 LINE",
"294 932 OFFCURVE",
"278 929 OFFCURVE",
"269 914 CURVE"
);
}
);
width = 580;
}
);
unicode = 010C;
},
{
glyphname = Ccedilla;
layers = (
{
layerId = "5FE12265-991D-4E7A-94BF-8B782DB79986";
paths = (
{
closed = 1;
nodes = (
"450 660 LINE",
"483 624 OFFCURVE",
"489 542 OFFCURVE",
"491 484 CURVE",
"586 437 OFFCURVE",
"700 484 OFFCURVE",
"719 537 CURVE",
"704 640 OFFCURVE",
"653 719 OFFCURVE",
"523 766 CURVE",
"380 748 OFFCURVE",
"271 710 OFFCURVE",
"152 605 CURVE",
"91 508 OFFCURVE",
"56 427 OFFCURVE",
"54 330 CURVE SMOOTH",
"51 158 OFFCURVE",
"168 28 OFFCURVE",
"381 0 CURVE",
"504 36 OFFCURVE",
"616 96 OFFCURVE",
"685 167 CURVE",
"687 220 OFFCURVE",
"668 254 OFFCURVE",
"610 250 CURVE",
"551 208 OFFCURVE",
"497 181 OFFCURVE",
"405 149 CURVE",
"328 191 OFFCURVE",
"290 250 OFFCURVE",
"291 350 CURVE SMOOTH",
"292 443 OFFCURVE",
"332 557 OFFCURVE",
"428 654 CURVE"
);
},
{
closed = 1;
nodes = (
"345 35 LINE",
"279 -97 LINE",
"284 -122 OFFCURVE",
"318 -142 OFFCURVE",
"351 -142 CURVE",
"368 -132 OFFCURVE",
"381 -124 OFFCURVE",
"402 -120 CURVE",
"413 -132 OFFCURVE",
"419 -150 OFFCURVE",
"416 -164 CURVE",
"413 -188 OFFCURVE",
"392 -210 OFFCURVE",
"340 -210 CURVE SMOOTH",
"278 -210 OFFCURVE",
"236 -191 OFFCURVE",
"189 -141 CURVE",
"170 -142 OFFCURVE",
"154 -165 OFFCURVE",
"157 -195 CURVE",
"189 -253 OFFCURVE",
"270 -299 OFFCURVE",
"360 -301 CURVE SMOOTH",
"458 -303 OFFCURVE",
"540 -252 OFFCURVE",
"557 -153 CURVE SMOOTH",
"568 -87 OFFCURVE",
"525 -40 OFFCURVE",
"470 -40 CURVE SMOOTH",
"442 -40 OFFCURVE",
"413 -50 OFFCURVE",
"390 -68 CURVE",
"443 35 LINE"
);
}
);
width = 725;
},
{
layerId = "31954392-1C4E-4333-A60C-122C4BAF07AE";
paths = (
{
closed = 1;
nodes = (
"416 679 LINE",
"453 637 OFFCURVE",
"462 596 OFFCURVE",
"468 536 CURVE",
"498 525 OFFCURVE",
"531 531 OFFCURVE",
"564 557 CURVE",
"559 626 OFFCURVE",
"514 713 OFFCURVE",
"431 744 CURVE",
"264 716 OFFCURVE",
"164 605 OFFCURVE",
"108 535 CURVE",
"65 456 OFFCURVE",
"42 387 OFFCURVE",
"42 318 CURVE SMOOTH",
"44 164 OFFCURVE",
"111 51 OFFCURVE",
"307 0 CURVE",
"390 35 OFFCURVE",
"487 97 OFFCURVE",
"526 147 CURVE",
"528 168 OFFCURVE",
"511 197 OFFCURVE",
"478 189 CURVE",
"443 147 OFFCURVE",
"368 92 OFFCURVE",
"296 62 CURVE",
"174 108 OFFCURVE",
"116 178 OFFCURVE",
"116 319 CURVE SMOOTH",
"116 473 OFFCURVE",
"246 639 OFFCURVE",
"401 678 CURVE"
);
},
{
closed = 1;
nodes = (
"279 19 LINE",
"223 -100 LINE",
"230 -122 OFFCURVE",
"251 -127 OFFCURVE",
"268 -127 CURVE",
"288 -110 OFFCURVE",
"308 -100 OFFCURVE",
"333 -97 CURVE",
"339 -106 OFFCURVE",
"345 -121 OFFCURVE",
"341 -140 CURVE SMOOTH",
"333 -172 OFFCURVE",
"306 -188 OFFCURVE",
"267 -188 CURVE SMOOTH",
"224 -188 OFFCURVE",
"188 -168 OFFCURVE",
"154 -134 CURVE",
"142 -135 OFFCURVE",
"133 -151 OFFCURVE",
"132 -171 CURVE",
"167 -215 OFFCURVE",
"228 -240 OFFCURVE",
"287 -240 CURVE SMOOTH",
"358 -240 OFFCURVE",
"411 -203 OFFCURVE",
"423 -144 CURVE",
"433 -87 OFFCURVE",
"403 -51 OFFCURVE",
"360 -51 CURVE SMOOTH",
"333 -51 OFFCURVE",
"310 -62 OFFCURVE",
"290 -81 CURVE",
"342 19 LINE"
);
}
);
width = 580;
}
);
unicode = 00C7;
},
{
glyphname = D;
layers = (
{
anchors = (
{
name = top;
position = "{415, 753}";
}
);
layerId = "5FE12265-991D-4E7A-94BF-8B782DB79986";
paths = (
{
closed = 1;
nodes = (
"55 61 OFFCURVE",
"123 19 OFFCURVE",
"191 0 CURVE",
"358 -4 OFFCURVE",
"478 25 OFFCURVE",
"574 57 CURVE",
"703 151 OFFCURVE",
"791 275 OFFCURVE",
"794 419 CURVE SMOOTH",
"798 615 OFFCURVE",
"679 753 OFFCURVE",
"431 753 CURVE SMOOTH",
"344 753 OFFCURVE",
"195 733 OFFCURVE",
"105 697 CURVE",
"79 671 OFFCURVE",
"79 626 OFFCURVE",
"122 588 CURVE",
"168 594 LINE",
"164 451 LINE",
"136 333 OFFCURVE",
"95 243 OFFCURVE",
"42 133 CURVE"
);
},
{
closed = 1;
nodes = (
"372 111 OFFCURVE",
"313 101 OFFCURVE",
"225 99 CURVE",
"283 72 LINE",
"315 320 LINE",
"364 473 OFFCURVE",
"395 583 OFFCURVE",
"427 684 CURVE",
"344 622 LINE",
"524 635 OFFCURVE",
"564 548 OFFCURVE",
"561 402 CURVE SMOOTH",
"559 300 OFFCURVE",
"502 200 OFFCURVE",
"416 131 CURVE"
);
}
);
width = 794;
},
{
anchors = (
{
name = top;
position = "{323, 796}";
}
);
layerId = "31954392-1C4E-4333-A60C-122C4BAF07AE";
paths = (
{
closed = 1;
nodes = (
"63 28 OFFCURVE",
"89 12 OFFCURVE",
"134 0 CURVE",
"225 1 OFFCURVE",
"306 16 OFFCURVE",
"381 41 CURVE",
"532 125 OFFCURVE",
"606 259 OFFCURVE",
"603 413 CURVE SMOOTH",
"599 596 OFFCURVE",
"486 735 OFFCURVE",
"285 735 CURVE SMOOTH",
"204 735 OFFCURVE",
"160 731 OFFCURVE",
"108 720 CURVE",
"96 702 OFFCURVE",
"95 674 OFFCURVE",
"125 654 CURVE",
"161 662 LINE",
"159 499 LINE",
"129 329 OFFCURVE",
"100 227 OFFCURVE",
"50 62 CURVE"
);
},
{
closed = 1;
nodes = (
"261 68 OFFCURVE",
"191 71 OFFCURVE",
"93 71 CURVE",
"146 43 LINE",
"189 355 LINE",
"207 443 OFFCURVE",
"237 575 OFFCURVE",
"266 705 CURVE",
"207 658 LINE",
"409 703 OFFCURVE",
"517 572 OFFCURVE",
"521 402 CURVE SMOOTH",
"523 275 OFFCURVE",
"476 177 OFFCURVE",
"357 92 CURVE"
);
}
);
width = 618;
}
);
unicode = 0044;
},
{
glyphname = Eth;
layers = (
{
layerId = "5FE12265-991D-4E7A-94BF-8B782DB79986";
paths = (
{
closed = 1;
nodes = (
"495 340 LINE",
"532 394 OFFCURVE",
"522 445 OFFCURVE",
"473 466 CURVE",
"205 408 LINE",
"63 427 LINE",
"28 390 OFFCURVE",
"24 342 OFFCURVE",
"79 293 CURVE",
"346 348 LINE"
);
},
{
closed = 1;
nodes = (
"87 61 OFFCURVE",
"155 19 OFFCURVE",
"223 0 CURVE",
"390 -4 OFFCURVE",
"510 25 OFFCURVE",
"606 57 CURVE",
"735 151 OFFCURVE",
"823 275 OFFCURVE",
"826 419 CURVE SMOOTH",
"830 615 OFFCURVE",
"711 753 OFFCURVE",
"463 753 CURVE SMOOTH",
"376 753 OFFCURVE",
"227 733 OFFCURVE",
"137 697 CURVE",
"111 671 OFFCURVE",
"111 626 OFFCURVE",
"154 588 CURVE",
"200 594 LINE",
"196 451 LINE",
"168 333 OFFCURVE",
"127 243 OFFCURVE",
"74 133 CURVE"
);
},
{
closed = 1;
nodes = (
"404 111 OFFCURVE",
"345 101 OFFCURVE",
"257 99 CURVE",
"315 72 LINE",
"347 320 LINE",
"396 473 OFFCURVE",
"427 583 OFFCURVE",
"459 684 CURVE",
"376 622 LINE",
"556 635 OFFCURVE",
"596 548 OFFCURVE",
"593 402 CURVE SMOOTH",
"591 300 OFFCURVE",
"534 200 OFFCURVE",
"448 131 CURVE"
);
}
);
width = 826;
},
{
layerId = "31954392-1C4E-4333-A60C-122C4BAF07AE";
paths = (
{
closed = 1;
nodes = (
"382 359 LINE",
"405 378 OFFCURVE",
"392 407 OFFCURVE",
"373 415 CURVE",
"166 395 LINE",
"30 405 LINE",
"11 394 OFFCURVE",
"12 363 OFFCURVE",
"39 345 CURVE",
"190 357 LINE"
);
},
{
closed = 1;
nodes = (
"63 28 OFFCURVE",
"89 12 OFFCURVE",
"134 0 CURVE",
"225 1 OFFCURVE",
"306 16 OFFCURVE",
"381 41 CURVE",
"532 125 OFFCURVE",
"606 259 OFFCURVE",
"603 413 CURVE SMOOTH",
"599 596 OFFCURVE",
"486 735 OFFCURVE",
"285 735 CURVE SMOOTH",
"204 735 OFFCURVE",
"160 731 OFFCURVE",
"108 720 CURVE",
"96 702 OFFCURVE",
"95 674 OFFCURVE",
"125 654 CURVE",
"161 662 LINE",
"159 499 LINE",
"129 329 OFFCURVE",
"100 227 OFFCURVE",
"50 62 CURVE"
);
},
{
closed = 1;
nodes = (
"261 68 OFFCURVE",
"191 71 OFFCURVE",
"93 71 CURVE",
"146 43 LINE",
"189 355 LINE",
"207 443 OFFCURVE",
"237 575 OFFCURVE",
"266 705 CURVE",
"207 658 LINE",
"409 703 OFFCURVE",
"517 572 OFFCURVE",
"521 402 CURVE SMOOTH",
"523 275 OFFCURVE",
"476 177 OFFCURVE",
"357 92 CURVE"
);
}
);
width = 618;
}
);
unicode = 00D0;
},
{
glyphname = Dcaron;
layers = (
{
layerId = "5FE12265-991D-4E7A-94BF-8B782DB79986";
paths = (
{
closed = 1;
nodes = (
"55 61 OFFCURVE",
"123 19 OFFCURVE",
"191 0 CURVE",
"358 -4 OFFCURVE",
"478 25 OFFCURVE",
"574 57 CURVE",
"703 151 OFFCURVE",
"791 275 OFFCURVE",
"794 419 CURVE SMOOTH",
"798 615 OFFCURVE",
"679 753 OFFCURVE",
"431 753 CURVE SMOOTH",
"344 753 OFFCURVE",
"195 733 OFFCURVE",
"105 697 CURVE",
"79 671 OFFCURVE",
"79 626 OFFCURVE",
"122 588 CURVE",
"168 594 LINE",
"164 451 LINE",
"136 333 OFFCURVE",
"95 243 OFFCURVE",
"42 133 CURVE"
);
},
{
closed = 1;
nodes = (
"372 111 OFFCURVE",
"313 101 OFFCURVE",
"225 99 CURVE",
"283 72 LINE",
"315 320 LINE",
"364 473 OFFCURVE",
"395 583 OFFCURVE",
"427 684 CURVE",
"344 622 LINE",
"524 635 OFFCURVE",
"564 548 OFFCURVE",
"561 402 CURVE SMOOTH",
"559 300 OFFCURVE",
"502 200 OFFCURVE",
"416 131 CURVE"
);
},
{
closed = 1;
nodes = (
"357 825 LINE",
"417 793 OFFCURVE",
"499 808 OFFCURVE",
"569 837 CURVE",
"748 1015 LINE",
"716 1079 OFFCURVE",
"605 1057 OFFCURVE",
"573 1048 CURVE",
"437 891 LINE",
"325 1056 LINE",
"283 1066 OFFCURVE",
"239 1047 OFFCURVE",
"225 1017 CURVE"
);
}
);
width = 794;
},
{
layerId = "31954392-1C4E-4333-A60C-122C4BAF07AE";
paths = (
{
closed = 1;
nodes = (
"63 28 OFFCURVE",
"89 12 OFFCURVE",
"134 0 CURVE",
"225 1 OFFCURVE",
"306 16 OFFCURVE",
"381 41 CURVE",
"532 125 OFFCURVE",
"606 259 OFFCURVE",
"603 413 CURVE SMOOTH",
"599 596 OFFCURVE",
"486 735 OFFCURVE",
"285 735 CURVE SMOOTH",
"204 735 OFFCURVE",
"160 731 OFFCURVE",
"108 720 CURVE",
"96 702 OFFCURVE",
"95 674 OFFCURVE",
"125 654 CURVE",
"161 662 LINE",
"159 499 LINE",
"129 329 OFFCURVE",
"100 227 OFFCURVE",
"50 62 CURVE"
);
},
{
closed = 1;
nodes = (
"261 68 OFFCURVE",
"191 71 OFFCURVE",
"93 71 CURVE",
"146 43 LINE",
"189 355 LINE",
"207 443 OFFCURVE",
"237 575 OFFCURVE",
"266 705 CURVE",
"207 658 LINE",
"409 703 OFFCURVE",
"517 572 OFFCURVE",
"521 402 CURVE SMOOTH",
"523 275 OFFCURVE",
"476 177 OFFCURVE",
"357 92 CURVE"
);
},
{
closed = 1;
nodes = (
"270 800 LINE",
"283 790 OFFCURVE",
"312 784 OFFCURVE",
"340 792 CURVE",
"465 908 LINE",
"459 936 OFFCURVE",
"435 945 OFFCURVE",
"401 935 CURVE",
"299 827 LINE",
"249 926 LINE",
"234 932 OFFCURVE",
"218 929 OFFCURVE",
"209 914 CURVE"
);
}
);
width = 618;
}
);
unicode = 010E;
},
{
glyphname = Dcroat;
layers = (
{
layerId = "5FE12265-991D-4E7A-94BF-8B782DB79986";
paths = (
{
closed = 1;
nodes = (
"495 340 LINE",
"532 394 OFFCURVE",
"522 445 OFFCURVE",
"473 466 CURVE",
"205 408 LINE",
"63 427 LINE",
"28 390 OFFCURVE",
"24 342 OFFCURVE",
"79 293 CURVE",
"346 348 LINE"
);
},
{
closed = 1;
nodes = (
"87 61 OFFCURVE",
"155 19 OFFCURVE",
"223 0 CURVE",
"390 -4 OFFCURVE",
"510 25 OFFCURVE",
"606 57 CURVE",
"735 151 OFFCURVE",
"823 275 OFFCURVE",
"826 419 CURVE SMOOTH",
"830 615 OFFCURVE",
"711 753 OFFCURVE",
"463 753 CURVE SMOOTH",
"376 753 OFFCURVE",
"227 733 OFFCURVE",
"137 697 CURVE",
"111 671 OFFCURVE",
"111 626 OFFCURVE",
"154 588 CURVE",
"200 594 LINE",
"196 451 LINE",
"168 333 OFFCURVE",
"127 243 OFFCURVE",
"74 133 CURVE"
);
},
{
closed = 1;
nodes = (
"404 111 OFFCURVE",
"345 101 OFFCURVE",
"257 99 CURVE",
"315 72 LINE",
"347 320 LINE",
"396 473 OFFCURVE",
"427 583 OFFCURVE",
"459 684 CURVE",
"376 622 LINE",
"556 635 OFFCURVE",
"596 548 OFFCURVE",
"593 402 CURVE SMOOTH",
"591 300 OFFCURVE",
"534 200 OFFCURVE",
"448 131 CURVE"
);
}
);
width = 826;
},
{
layerId = "31954392-1C4E-4333-A60C-122C4BAF07AE";
paths = (
{
closed = 1;
nodes = (
"382 359 LINE",
"405 378 OFFCURVE",
"392 407 OFFCURVE",
"373 415 CURVE",
"166 395 LINE",
"30 405 LINE",
"11 394 OFFCURVE",
"12 363 OFFCURVE",
"39 345 CURVE",
"190 357 LINE"
);
},
{
closed = 1;
nodes = (
"63 28 OFFCURVE",
"89 12 OFFCURVE",
"134 0 CURVE",
"225 1 OFFCURVE",
"306 16 OFFCURVE",
"381 41 CURVE",
"532 125 OFFCURVE",
"606 259 OFFCURVE",
"603 413 CURVE SMOOTH",
"599 596 OFFCURVE",
"486 735 OFFCURVE",
"285 735 CURVE SMOOTH",
"204 735 OFFCURVE",
"160 731 OFFCURVE",
"108 720 CURVE",
"96 702 OFFCURVE",
"95 674 OFFCURVE",
"125 654 CURVE",
"161 662 LINE",
"159 499 LINE",
"129 329 OFFCURVE",
"100 227 OFFCURVE",
"50 62 CURVE"
);
},
{
closed = 1;
nodes = (
"261 68 OFFCURVE",
"191 71 OFFCURVE",
"93 71 CURVE",
"146 43 LINE",
"189 355 LINE",
"207 443 OFFCURVE",
"237 575 OFFCURVE",
"266 705 CURVE",
"207 658 LINE",
"409 703 OFFCURVE",
"517 572 OFFCURVE",
"521 402 CURVE SMOOTH",
"523 275 OFFCURVE",
"476 177 OFFCURVE",
"357 92 CURVE"
);
}
);
width = 618;
}
);
unicode = 0110;
},
{
glyphname = E;
layers = (
{
anchors = (
{
name = ogonek;
position = "{576, 0}";
},
{
name = top;
position = "{453, 753}";
}
);
layerId = "5FE12265-991D-4E7A-94BF-8B782DB79986";
paths = (
{
closed = 1;
nodes = (
"405 628 LINE",
"465 639 OFFCURVE",
"497 636 OFFCURVE",
"541 636 CURVE",
"640 542 LINE",
"734 585 OFFCURVE",
"768 652 OFFCURVE",
"728 741 CURVE",
"489 758 OFFCURVE",
"353 755 OFFCURVE",
"109 735 CURVE",
"92 718 OFFCURVE",
"89 683 OFFCURVE",
"99 652 CURVE",
"129 645 OFFCURVE",
"152 637 OFFCURVE",
"173 629 CURVE",
"184 493 LINE",
"148 341 OFFCURVE",
"124 282 OFFCURVE",
"70 133 CURVE",
"76 66 OFFCURVE",
"130 24 OFFCURVE",
"233 0 CURVE",
"638 24 LINE",
"681 76 OFFCURVE",
"703 164 OFFCURVE",
"627 188 CURVE",
"526 161 OFFCURVE",
"400 139 OFFCURVE",
"301 123 CURVE",
"336 326 LINE",
"424 325 OFFCURVE",
"504 319 OFFCURVE",
"581 311 CURVE",
"606 355 OFFCURVE",
"623 417 OFFCURVE",
"580 450 CURVE",
"500 443 OFFCURVE",
"429 430 OFFCURVE",
"348 418 CURVE",
"374 554 LINE"
);
}
);
width = 727;
},
{
anchors = (
{
name = ogonek;
position = "{399, 0}";
},
{
name = top;
position = "{359, 796}";
}
);
layerId = "31954392-1C4E-4333-A60C-122C4BAF07AE";
paths = (
{
closed = 1;
nodes = (
"264 661 LINE",
"337 669 OFFCURVE",
"394 663 OFFCURVE",
"438 656 CURVE",
"501 615 LINE",
"536 644 OFFCURVE",
"553 708 OFFCURVE",
"526 728 CURVE",
"352 730 OFFCURVE",
"249 726 OFFCURVE",
"135 715 CURVE",
"124 704 OFFCURVE",
"124 684 OFFCURVE",
"135 664 CURVE",
"152 663 OFFCURVE",
"170 660 OFFCURVE",
"181 653 CURVE",
"162 492 LINE",
"134 334 OFFCURVE",
"94 205 OFFCURVE",
"41 66 CURVE",
"42 33 OFFCURVE",
"71 13 OFFCURVE",
"118 0 CURVE",
"409 29 LINE",
"427 57 OFFCURVE",
"435 103 OFFCURVE",
"405 113 CURVE",
"324 97 OFFCURVE",
"230 80 OFFCURVE",
"127 67 CURVE",
"197 332 LINE",
"268 335 OFFCURVE",
"339 330 OFFCURVE",
"411 325 CURVE",
"431 355 OFFCURVE",
"433 390 OFFCURVE",
"422 408 CURVE",
"364 401 OFFCURVE",
"288 397 OFFCURVE",
"206 389 CURVE",
"235 552 LINE"
);
}
);
width = 497;
}
);
unicode = 0045;
},
{
glyphname = Eacute;
layers = (
{
layerId = "5FE12265-991D-4E7A-94BF-8B782DB79986";
paths = (
{
closed = 1;
nodes = (
"405 628 LINE",
"465 639 OFFCURVE",
"497 636 OFFCURVE",
"541 636 CURVE",
"640 542 LINE",
"734 585 OFFCURVE",
"768 652 OFFCURVE",
"728 741 CURVE",
"489 758 OFFCURVE",
"353 755 OFFCURVE",
"109 735 CURVE",
"92 718 OFFCURVE",
"89 683 OFFCURVE",
"99 652 CURVE",
"129 645 OFFCURVE",
"152 637 OFFCURVE",
"173 629 CURVE",
"184 493 LINE",
"148 341 OFFCURVE",
"124 282 OFFCURVE",
"70 133 CURVE",
"76 66 OFFCURVE",
"130 24 OFFCURVE",
"233 0 CURVE",
"638 24 LINE",
"681 76 OFFCURVE",
"703 164 OFFCURVE",
"627 188 CURVE",
"526 161 OFFCURVE",
"400 139 OFFCURVE",
"301 123 CURVE",
"336 326 LINE",
"424 325 OFFCURVE",
"504 319 OFFCURVE",
"581 311 CURVE",
"606 355 OFFCURVE",
"623 417 OFFCURVE",
"580 450 CURVE",
"500 443 OFFCURVE",
"429 430 OFFCURVE",
"348 418 CURVE",
"374 554 LINE"
);
},
{
closed = 1;
nodes = (
"492 952 LINE",
"417 857 LINE",
"413 825 OFFCURVE",
"460 806 OFFCURVE",
"502 807 CURVE",
"714 987 LINE",
"681 1055 OFFCURVE",
"626 1071 OFFCURVE",
"522 1058 CURVE"
);
}
);
width = 727;
},
{
layerId = "31954392-1C4E-4333-A60C-122C4BAF07AE";
paths = (
{
closed = 1;
nodes = (
"264 661 LINE",
"337 669 OFFCURVE",
"394 663 OFFCURVE",
"438 656 CURVE",
"501 615 LINE",
"536 644 OFFCURVE",
"553 708 OFFCURVE",
"526 728 CURVE",
"352 730 OFFCURVE",
"249 726 OFFCURVE",
"135 715 CURVE",
"124 704 OFFCURVE",
"124 684 OFFCURVE",
"135 664 CURVE",
"152 663 OFFCURVE",
"170 660 OFFCURVE",
"181 653 CURVE",
"162 492 LINE",
"134 334 OFFCURVE",
"94 205 OFFCURVE",
"41 66 CURVE",
"42 33 OFFCURVE",
"71 13 OFFCURVE",
"118 0 CURVE",
"409 29 LINE",
"427 57 OFFCURVE",
"435 103 OFFCURVE",
"405 113 CURVE",
"324 97 OFFCURVE",
"230 80 OFFCURVE",
"127 67 CURVE",
"197 332 LINE",
"268 335 OFFCURVE",
"339 330 OFFCURVE",
"411 325 CURVE",
"431 355 OFFCURVE",
"433 390 OFFCURVE",
"422 408 CURVE",
"364 401 OFFCURVE",
"288 397 OFFCURVE",
"206 389 CURVE",
"235 552 LINE"
);
},
{
closed = 1;
nodes = (
"413 894 LINE",
"351 801 LINE",
"353 790 OFFCURVE",
"364 784 OFFCURVE",
"384 784 CURVE",
"543 940 LINE",
"542 962 OFFCURVE",
"487 984 OFFCURVE",
"443 972 CURVE"
);
}
);
width = 497;
}
);
unicode = 00C9;
},
{
glyphname = Ecaron;
layers = (
{
layerId = "5FE12265-991D-4E7A-94BF-8B782DB79986";
paths = (
{
closed = 1;
nodes = (
"405 628 LINE",
"465 639 OFFCURVE",
"497 636 OFFCURVE",
"541 636 CURVE",
"640 542 LINE",
"734 585 OFFCURVE",
"768 652 OFFCURVE",
"728 741 CURVE",
"489 758 OFFCURVE",
"353 755 OFFCURVE",
"109 735 CURVE",
"92 718 OFFCURVE",
"89 683 OFFCURVE",
"99 652 CURVE",
"129 645 OFFCURVE",
"152 637 OFFCURVE",
"173 629 CURVE",
"184 493 LINE",
"148 341 OFFCURVE",
"124 282 OFFCURVE",
"70 133 CURVE",
"76 66 OFFCURVE",
"130 24 OFFCURVE",
"233 0 CURVE",
"638 24 LINE",
"681 76 OFFCURVE",
"703 164 OFFCURVE",
"627 188 CURVE",
"526 161 OFFCURVE",
"400 139 OFFCURVE",
"301 123 CURVE",
"336 326 LINE",
"424 325 OFFCURVE",
"504 319 OFFCURVE",
"581 311 CURVE",
"606 355 OFFCURVE",
"623 417 OFFCURVE",
"580 450 CURVE",
"500 443 OFFCURVE",
"429 430 OFFCURVE",
"348 418 CURVE",
"374 554 LINE"
);
},
{
closed = 1;
nodes = (
"395 825 LINE",
"455 793 OFFCURVE",
"537 808 OFFCURVE",
"607 837 CURVE",
"786 1015 LINE",
"754 1079 OFFCURVE",
"643 1057 OFFCURVE",
"611 1048 CURVE",
"475 891 LINE",
"363 1056 LINE",
"321 1066 OFFCURVE",
"277 1047 OFFCURVE",
"263 1017 CURVE"
);
}
);
width = 727;
},
{
layerId = "31954392-1C4E-4333-A60C-122C4BAF07AE";
paths = (
{
closed = 1;
nodes = (
"264 661 LINE",
"337 669 OFFCURVE",
"394 663 OFFCURVE",
"438 656 CURVE",
"501 615 LINE",
"536 644 OFFCURVE",
"553 708 OFFCURVE",
"526 728 CURVE",
"352 730 OFFCURVE",
"249 726 OFFCURVE",
"135 715 CURVE",
"124 704 OFFCURVE",
"124 684 OFFCURVE",
"135 664 CURVE",
"152 663 OFFCURVE",
"170 660 OFFCURVE",
"181 653 CURVE",
"162 492 LINE",
"134 334 OFFCURVE",
"94 205 OFFCURVE",
"41 66 CURVE",
"42 33 OFFCURVE",
"71 13 OFFCURVE",
"118 0 CURVE",
"409 29 LINE",
"427 57 OFFCURVE",
"435 103 OFFCURVE",
"405 113 CURVE",
"324 97 OFFCURVE",
"230 80 OFFCURVE",
"127 67 CURVE",
"197 332 LINE",
"268 335 OFFCURVE",
"339 330 OFFCURVE",
"411 325 CURVE",
"431 355 OFFCURVE",
"433 390 OFFCURVE",
"422 408 CURVE",
"364 401 OFFCURVE",
"288 397 OFFCURVE",
"206 389 CURVE",
"235 552 LINE"
);
},
{
closed = 1;
nodes = (
"306 800 LINE",
"319 790 OFFCURVE",
"348 784 OFFCURVE",
"376 792 CURVE",
"501 908 LINE",
"495 936 OFFCURVE",
"471 945 OFFCURVE",
"437 935 CURVE",
"335 827 LINE",
"285 926 LINE",
"270 932 OFFCURVE",
"254 929 OFFCURVE",
"245 914 CURVE"
);
}
);
width = 497;
}
);
unicode = 011A;
},
{
glyphname = Ecircumflex;
layers = (
{
layerId = "5FE12265-991D-4E7A-94BF-8B782DB79986";
paths = (
{
closed = 1;
nodes = (
"405 628 LINE",
"465 639 OFFCURVE",
"497 636 OFFCURVE",
"541 636 CURVE",
"640 542 LINE",
"734 585 OFFCURVE",
"768 652 OFFCURVE",
"728 741 CURVE",
"489 758 OFFCURVE",
"353 755 OFFCURVE",
"109 735 CURVE",
"92 718 OFFCURVE",
"89 683 OFFCURVE",
"99 652 CURVE",
"129 645 OFFCURVE",
"152 637 OFFCURVE",
"173 629 CURVE",
"184 493 LINE",
"148 341 OFFCURVE",
"124 282 OFFCURVE",
"70 133 CURVE",
"76 66 OFFCURVE",
"130 24 OFFCURVE",
"233 0 CURVE",
"638 24 LINE",
"681 76 OFFCURVE",
"703 164 OFFCURVE",
"627 188 CURVE",
"526 161 OFFCURVE",
"400 139 OFFCURVE",
"301 123 CURVE",
"336 326 LINE",
"424 325 OFFCURVE",
"504 319 OFFCURVE",
"581 311 CURVE",
"606 355 OFFCURVE",
"623 417 OFFCURVE",
"580 450 CURVE",
"500 443 OFFCURVE",
"429 430 OFFCURVE",
"348 418 CURVE",
"374 554 LINE"
);
},
{
closed = 1;
nodes = (
"217 855 LINE",
"221 822 OFFCURVE",
"261 806 OFFCURVE",
"309 808 CURVE",
"476 955 LINE",
"539 827 LINE",
"579 810 OFFCURVE",
"676 785 OFFCURVE",
"748 847 CURVE",
"637 1026 LINE",
"583 1057 OFFCURVE",
"518 1067 OFFCURVE",
"432 1053 CURVE"
);
}
);
width = 727;
},
{
layerId = "31954392-1C4E-4333-A60C-122C4BAF07AE";
paths = (
{
closed = 1;
nodes = (
"264 661 LINE",
"337 669 OFFCURVE",
"394 663 OFFCURVE",
"438 656 CURVE",
"501 615 LINE",
"536 644 OFFCURVE",
"553 708 OFFCURVE",
"526 728 CURVE",
"352 730 OFFCURVE",
"249 726 OFFCURVE",
"135 715 CURVE",
"124 704 OFFCURVE",
"124 684 OFFCURVE",
"135 664 CURVE",
"152 663 OFFCURVE",
"170 660 OFFCURVE",
"181 653 CURVE",
"162 492 LINE",
"134 334 OFFCURVE",
"94 205 OFFCURVE",
"41 66 CURVE",
"42 33 OFFCURVE",
"71 13 OFFCURVE",
"118 0 CURVE",
"409 29 LINE",
"427 57 OFFCURVE",
"435 103 OFFCURVE",
"405 113 CURVE",
"324 97 OFFCURVE",
"230 80 OFFCURVE",
"127 67 CURVE",
"197 332 LINE",
"268 335 OFFCURVE",
"339 330 OFFCURVE",
"411 325 CURVE",
"431 355 OFFCURVE",
"433 390 OFFCURVE",
"422 408 CURVE",
"364 401 OFFCURVE",
"288 397 OFFCURVE",
"206 389 CURVE",
"235 552 LINE"
);
},
{
closed = 1;
nodes = (
"230 818 LINE",
"232 800 OFFCURVE",
"247 794 OFFCURVE",
"260 792 CURVE",
"386 903 LINE",
"437 795 LINE",
"452 785 OFFCURVE",
"484 781 OFFCURVE",
"507 802 CURVE",
"441 940 LINE",
"425 952 OFFCURVE",
"398 955 OFFCURVE",
"371 948 CURVE"
);
}
);
width = 497;
}
);
unicode = 00CA;
},
{
glyphname = Edieresis;
layers = (
{
layerId = "5FE12265-991D-4E7A-94BF-8B782DB79986";
paths = (
{
closed = 1;
nodes = (
"405 628 LINE",
"465 639 OFFCURVE",
"497 636 OFFCURVE",
"541 636 CURVE",
"640 542 LINE",
"734 585 OFFCURVE",
"768 652 OFFCURVE",
"728 741 CURVE",
"489 758 OFFCURVE",
"353 755 OFFCURVE",
"109 735 CURVE",
"92 718 OFFCURVE",
"89 683 OFFCURVE",
"99 652 CURVE",
"129 645 OFFCURVE",
"152 637 OFFCURVE",
"173 629 CURVE",
"184 493 LINE",
"148 341 OFFCURVE",
"124 282 OFFCURVE",
"70 133 CURVE",
"76 66 OFFCURVE",
"130 24 OFFCURVE",
"233 0 CURVE",
"638 24 LINE",
"681 76 OFFCURVE",
"703 164 OFFCURVE",
"627 188 CURVE",
"526 161 OFFCURVE",
"400 139 OFFCURVE",
"301 123 CURVE",
"336 326 LINE",
"424 325 OFFCURVE",
"504 319 OFFCURVE",
"581 311 CURVE",
"606 355 OFFCURVE",
"623 417 OFFCURVE",
"580 450 CURVE",
"500 443 OFFCURVE",
"429 430 OFFCURVE",
"348 418 CURVE",
"374 554 LINE"
);
},
{
closed = 1;
nodes = (
"241 870 OFFCURVE",
"286 826 OFFCURVE",
"341 826 CURVE SMOOTH",
"395 826 OFFCURVE",
"438 870 OFFCURVE",
"438 923 CURVE SMOOTH",
"438 975 OFFCURVE",
"395 1018 OFFCURVE",
"341 1018 CURVE SMOOTH",
"286 1018 OFFCURVE",
"241 975 OFFCURVE",
"241 923 CURVE SMOOTH"
);
},
{
closed = 1;
nodes = (
"720 975 OFFCURVE",
"677 1018 OFFCURVE",
"624 1018 CURVE SMOOTH",
"569 1018 OFFCURVE",
"523 975 OFFCURVE",
"523 923 CURVE SMOOTH",
"523 870 OFFCURVE",
"569 826 OFFCURVE",
"624 826 CURVE SMOOTH",
"677 826 OFFCURVE",
"720 870 OFFCURVE",
"720 923 CURVE SMOOTH"
);
}
);
width = 727;
},
{
layerId = "31954392-1C4E-4333-A60C-122C4BAF07AE";
paths = (
{
closed = 1;
nodes = (
"264 661 LINE",
"337 669 OFFCURVE",
"394 663 OFFCURVE",
"438 656 CURVE",
"501 615 LINE",
"536 644 OFFCURVE",
"553 708 OFFCURVE",
"526 728 CURVE",
"352 730 OFFCURVE",
"249 726 OFFCURVE",
"135 715 CURVE",
"124 704 OFFCURVE",
"124 684 OFFCURVE",
"135 664 CURVE",
"152 663 OFFCURVE",
"170 660 OFFCURVE",
"181 653 CURVE",
"162 492 LINE",
"134 334 OFFCURVE",
"94 205 OFFCURVE",
"41 66 CURVE",
"42 33 OFFCURVE",
"71 13 OFFCURVE",
"118 0 CURVE",
"409 29 LINE",
"427 57 OFFCURVE",
"435 103 OFFCURVE",
"405 113 CURVE",
"324 97 OFFCURVE",
"230 80 OFFCURVE",
"127 67 CURVE",
"197 332 LINE",
"268 335 OFFCURVE",
"339 330 OFFCURVE",
"411 325 CURVE",
"431 355 OFFCURVE",
"433 390 OFFCURVE",
"422 408 CURVE",
"364 401 OFFCURVE",
"288 397 OFFCURVE",
"206 389 CURVE",
"235 552 LINE"
);
},
{
closed = 1;
nodes = (
"224 833 OFFCURVE",
"244 811 OFFCURVE",
"271 811 CURVE SMOOTH",
"297 811 OFFCURVE",
"318 833 OFFCURVE",
"318 858 CURVE SMOOTH",
"318 885 OFFCURVE",
"297 905 OFFCURVE",
"271 905 CURVE SMOOTH",
"244 905 OFFCURVE",
"224 885 OFFCURVE",
"224 858 CURVE SMOOTH"
);
},
{
closed = 1;
nodes = (
"480 885 OFFCURVE",
"459 905 OFFCURVE",
"433 905 CURVE SMOOTH",
"406 905 OFFCURVE",
"386 885 OFFCURVE",
"386 858 CURVE SMOOTH",
"386 833 OFFCURVE",
"406 811 OFFCURVE",
"433 811 CURVE SMOOTH",
"459 811 OFFCURVE",
"480 833 OFFCURVE",
"480 858 CURVE SMOOTH"
);
}
);
width = 497;
}
);
unicode = 00CB;
},
{
glyphname = Edotaccent;
layers = (
{
layerId = "5FE12265-991D-4E7A-94BF-8B782DB79986";
paths = (
{
closed = 1;
nodes = (
"405 628 LINE",
"465 639 OFFCURVE",
"497 636 OFFCURVE",
"541 636 CURVE",
"640 542 LINE",
"734 585 OFFCURVE",
"768 652 OFFCURVE",
"728 741 CURVE",
"489 758 OFFCURVE",
"353 755 OFFCURVE",
"109 735 CURVE",
"92 718 OFFCURVE",
"89 683 OFFCURVE",
"99 652 CURVE",
"129 645 OFFCURVE",
"152 637 OFFCURVE",
"173 629 CURVE",
"184 493 LINE",
"148 341 OFFCURVE",
"124 282 OFFCURVE",
"70 133 CURVE",
"76 66 OFFCURVE",
"130 24 OFFCURVE",
"233 0 CURVE",
"638 24 LINE",
"681 76 OFFCURVE",
"703 164 OFFCURVE",
"627 188 CURVE",
"526 161 OFFCURVE",
"400 139 OFFCURVE",
"301 123 CURVE",
"336 326 LINE",
"424 325 OFFCURVE",
"504 319 OFFCURVE",
"581 311 CURVE",
"606 355 OFFCURVE",
"623 417 OFFCURVE",
"580 450 CURVE",
"500 443 OFFCURVE",
"429 430 OFFCURVE",
"348 418 CURVE",
"374 554 LINE"
);
},
{
closed = 1;
nodes = (
"367 879 OFFCURVE",
"412 836 OFFCURVE",
"467 836 CURVE SMOOTH",
"521 836 OFFCURVE",
"564 879 OFFCURVE",
"564 932 CURVE SMOOTH",
"564 985 OFFCURVE",
"521 1028 OFFCURVE",
"467 1028 CURVE SMOOTH",
"412 1028 OFFCURVE",
"367 985 OFFCURVE",
"367 932 CURVE SMOOTH"
);
}
);
width = 727;
},
{
layerId = "31954392-1C4E-4333-A60C-122C4BAF07AE";
paths = (
{
closed = 1;
nodes = (
"264 661 LINE",
"337 669 OFFCURVE",
"394 663 OFFCURVE",
"438 656 CURVE",
"501 615 LINE",
"536 644 OFFCURVE",
"553 708 OFFCURVE",
"526 728 CURVE",
"352 730 OFFCURVE",
"249 726 OFFCURVE",
"135 715 CURVE",
"124 704 OFFCURVE",
"124 684 OFFCURVE",
"135 664 CURVE",
"152 663 OFFCURVE",
"170 660 OFFCURVE",
"181 653 CURVE",
"162 492 LINE",
"134 334 OFFCURVE",
"94 205 OFFCURVE",
"41 66 CURVE",
"42 33 OFFCURVE",
"71 13 OFFCURVE",
"118 0 CURVE",
"409 29 LINE",
"427 57 OFFCURVE",
"435 103 OFFCURVE",
"405 113 CURVE",
"324 97 OFFCURVE",
"230 80 OFFCURVE",
"127 67 CURVE",
"197 332 LINE",
"268 335 OFFCURVE",
"339 330 OFFCURVE",
"411 325 CURVE",
"431 355 OFFCURVE",
"433 390 OFFCURVE",
"422 408 CURVE",
"364 401 OFFCURVE",
"288 397 OFFCURVE",
"206 389 CURVE",
"235 552 LINE"
);
},
{
closed = 1;
nodes = (
"321 833 OFFCURVE",
"341 811 OFFCURVE",
"368 811 CURVE SMOOTH",
"394 811 OFFCURVE",
"415 833 OFFCURVE",
"415 858 CURVE SMOOTH",
"415 885 OFFCURVE",
"394 905 OFFCURVE",
"368 905 CURVE SMOOTH",
"341 905 OFFCURVE",
"321 885 OFFCURVE",
"321 858 CURVE SMOOTH"
);
}
);
width = 497;
}
);
unicode = 0116;
},
{
glyphname = Egrave;
layers = (
{
layerId = "5FE12265-991D-4E7A-94BF-8B782DB79986";
paths = (
{
closed = 1;
nodes = (
"405 628 LINE",
"465 639 OFFCURVE",
"497 636 OFFCURVE",
"541 636 CURVE",
"640 542 LINE",
"734 585 OFFCURVE",
"768 652 OFFCURVE",
"728 741 CURVE",
"489 758 OFFCURVE",
"353 755 OFFCURVE",
"109 735 CURVE",
"92 718 OFFCURVE",
"89 683 OFFCURVE",
"99 652 CURVE",
"129 645 OFFCURVE",
"152 637 OFFCURVE",
"173 629 CURVE",
"184 493 LINE",
"148 341 OFFCURVE",
"124 282 OFFCURVE",
"70 133 CURVE",
"76 66 OFFCURVE",
"130 24 OFFCURVE",
"233 0 CURVE",
"638 24 LINE",
"681 76 OFFCURVE",
"703 164 OFFCURVE",
"627 188 CURVE",
"526 161 OFFCURVE",
"400 139 OFFCURVE",
"301 123 CURVE",
"336 326 LINE",
"424 325 OFFCURVE",
"504 319 OFFCURVE",
"581 311 CURVE",
"606 355 OFFCURVE",
"623 417 OFFCURVE",
"580 450 CURVE",
"500 443 OFFCURVE",
"429 430 OFFCURVE",
"348 418 CURVE",
"374 554 LINE"
);
},
{
closed = 1;
nodes = (
"501 1045 LINE",
"461 1072 OFFCURVE",
"350 1065 OFFCURVE",
"309 986 CURVE",
"396 915 LINE",
"468 813 LINE",
"503 799 OFFCURVE",
"552 813 OFFCURVE",
"572 842 CURVE"
);
}
);
width = 727;
},
{
layerId = "31954392-1C4E-4333-A60C-122C4BAF07AE";
paths = (
{
closed = 1;
nodes = (
"264 661 LINE",
"337 669 OFFCURVE",
"394 663 OFFCURVE",
"438 656 CURVE",
"501 615 LINE",
"536 644 OFFCURVE",
"553 708 OFFCURVE",
"526 728 CURVE",
"352 730 OFFCURVE",
"249 726 OFFCURVE",
"135 715 CURVE",
"124 704 OFFCURVE",
"124 684 OFFCURVE",
"135 664 CURVE",
"152 663 OFFCURVE",
"170 660 OFFCURVE",
"181 653 CURVE",
"162 492 LINE",
"134 334 OFFCURVE",
"94 205 OFFCURVE",
"41 66 CURVE",
"42 33 OFFCURVE",
"71 13 OFFCURVE",
"118 0 CURVE",
"409 29 LINE",
"427 57 OFFCURVE",
"435 103 OFFCURVE",
"405 113 CURVE",
"324 97 OFFCURVE",
"230 80 OFFCURVE",
"127 67 CURVE",
"197 332 LINE",
"268 335 OFFCURVE",
"339 330 OFFCURVE",
"411 325 CURVE",
"431 355 OFFCURVE",
"433 390 OFFCURVE",
"422 408 CURVE",
"364 401 OFFCURVE",
"288 397 OFFCURVE",
"206 389 CURVE",
"235 552 LINE"
);
},
{
closed = 1;
nodes = (
"301 989 LINE",
"258 998 OFFCURVE",
"221 985 OFFCURVE",
"211 949 CURVE",
"297 861 LINE",
"348 788 LINE",
"367 786 OFFCURVE",
"379 791 OFFCURVE",
"382 802 CURVE"
);
}
);
width = 497;
}
);
unicode = 00C8;
},
{
glyphname = Emacron;
layers = (
{
layerId = "5FE12265-991D-4E7A-94BF-8B782DB79986";
paths = (
{
closed = 1;
nodes = (
"405 628 LINE",
"465 639 OFFCURVE",
"497 636 OFFCURVE",
"541 636 CURVE",
"640 542 LINE",
"734 585 OFFCURVE",
"768 652 OFFCURVE",
"728 741 CURVE",
"489 758 OFFCURVE",
"353 755 OFFCURVE",
"109 735 CURVE",
"92 718 OFFCURVE",
"89 683 OFFCURVE",
"99 652 CURVE",
"129 645 OFFCURVE",
"152 637 OFFCURVE",
"173 629 CURVE",
"184 493 LINE",
"148 341 OFFCURVE",
"124 282 OFFCURVE",
"70 133 CURVE",
"76 66 OFFCURVE",
"130 24 OFFCURVE",
"233 0 CURVE",
"638 24 LINE",
"681 76 OFFCURVE",
"703 164 OFFCURVE",
"627 188 CURVE",
"526 161 OFFCURVE",
"400 139 OFFCURVE",
"301 123 CURVE",
"336 326 LINE",
"424 325 OFFCURVE",
"504 319 OFFCURVE",
"581 311 CURVE",
"606 355 OFFCURVE",
"623 417 OFFCURVE",
"580 450 CURVE",
"500 443 OFFCURVE",
"429 430 OFFCURVE",
"348 418 CURVE",
"374 554 LINE"
);
},
{
closed = 1;
nodes = (
"485 889 LINE",
"294 894 LINE",
"269 858 OFFCURVE",
"265 832 OFFCURVE",
"280 813 CURVE",
"664 825 LINE",
"696 864 OFFCURVE",
"700 897 OFFCURVE",
"680 909 CURVE"
);
}
);
width = 727;
},
{
layerId = "31954392-1C4E-4333-A60C-122C4BAF07AE";
paths = (
{
closed = 1;
nodes = (
"264 661 LINE",
"337 669 OFFCURVE",
"394 663 OFFCURVE",
"438 656 CURVE",
"501 615 LINE",
"536 644 OFFCURVE",
"553 708 OFFCURVE",
"526 728 CURVE",
"352 730 OFFCURVE",
"249 726 OFFCURVE",
"135 715 CURVE",
"124 704 OFFCURVE",
"124 684 OFFCURVE",
"135 664 CURVE",
"152 663 OFFCURVE",
"170 660 OFFCURVE",
"181 653 CURVE",
"162 492 LINE",
"134 334 OFFCURVE",
"94 205 OFFCURVE",
"41 66 CURVE",
"42 33 OFFCURVE",
"71 13 OFFCURVE",
"118 0 CURVE",
"409 29 LINE",
"427 57 OFFCURVE",
"435 103 OFFCURVE",
"405 113 CURVE",
"324 97 OFFCURVE",
"230 80 OFFCURVE",
"127 67 CURVE",
"197 332 LINE",
"268 335 OFFCURVE",
"339 330 OFFCURVE",
"411 325 CURVE",
"431 355 OFFCURVE",
"433 390 OFFCURVE",
"422 408 CURVE",
"364 401 OFFCURVE",
"288 397 OFFCURVE",
"206 389 CURVE",
"235 552 LINE"
);
},
{
closed = 1;
nodes = (
"356 867 LINE",
"204 872 LINE",
"183 846 OFFCURVE",
"179 827 OFFCURVE",
"193 813 CURVE",
"479 821 LINE",
"505 850 OFFCURVE",
"510 873 OFFCURVE",
"494 882 CURVE"
);
}
);
width = 497;
}
);
unicode = 0112;
},
{
glyphname = Eogonek;
layers = (
{
layerId = "975719B3-E082-4404-B156-488762B4AD4B";
name = public.background;
paths = (
{
closed = 1;
nodes = (
"410 1 OFFCURVE",
"398 9 OFFCURVE",
"370 9 CURVE",
"289 -8 OFFCURVE",
"244 -40 OFFCURVE",
"235 -95 CURVE SMOOTH",
"225 -154 OFFCURVE",
"289 -198 OFFCURVE",
"366 -198 CURVE SMOOTH",
"420 -198 OFFCURVE",
"465 -171 OFFCURVE",
"497 -137 CURVE",
"493 -119 OFFCURVE",
"484 -113 OFFCURVE",
"470 -112 CURVE",
"443 -135 OFFCURVE",
"407 -147 OFFCURVE",
"372 -147 CURVE SMOOTH",
"339 -147 OFFCURVE",
"312 -138 OFFCURVE",
"298 -113 CURVE",
"305 -62 OFFCURVE",
"343 -26 OFFCURVE",
"406 -14 CURVE"
);
}
);
width = 490;
},
{
layerId = "975719B3-E082-4404-B156-488762B4AD4B";
name = public.background;
paths = (
{
closed = 1;
nodes = (
"650 21 OFFCURVE",
"625 41 OFFCURVE",
"585 50 CURVE",
"457 40 OFFCURVE",
"341 -7 OFFCURVE",
"327 -108 CURVE SMOOTH",
"311 -212 OFFCURVE",
"414 -268 OFFCURVE",
"536 -268 CURVE SMOOTH",
"634 -268 OFFCURVE",
"703 -235 OFFCURVE",
"759 -175 CURVE",
"761 -145 OFFCURVE",
"746 -120 OFFCURVE",
"727 -119 CURVE",
"697 -145 OFFCURVE",
"654 -163 OFFCURVE",
"612 -163 CURVE SMOOTH",
"572 -163 OFFCURVE",
"538 -153 OFFCURVE",
"523 -122 CURVE",
"530 -61 OFFCURVE",
"596 -18 OFFCURVE",
"651 -7 CURVE"
);
}
);
width = 490;
},
{
layerId = "5FE12265-991D-4E7A-94BF-8B782DB79986";
paths = (
{
closed = 1;
nodes = (
"644 60 OFFCURVE",
"622 80 OFFCURVE",
"606 84 CURVE",
"450 62 OFFCURVE",
"327 -45 OFFCURVE",
"327 -135 CURVE SMOOTH",
"327 -207 OFFCURVE",
"405 -268 OFFCURVE",
"516 -268 CURVE SMOOTH",
"604 -268 OFFCURVE",
"673 -235 OFFCURVE",
"729 -175 CURVE",
"731 -143 OFFCURVE",
"716 -118 OFFCURVE",
"682 -119 CURVE",
"643 -151 OFFCURVE",
"595 -167 OFFCURVE",
"552 -167 CURVE SMOOTH",
"522 -167 OFFCURVE",
"495 -159 OFFCURVE",
"474 -143 CURVE",
"496 -58 OFFCURVE",
"564 -6 OFFCURVE",
"638 24 CURVE"
);
},
{
closed = 1;
nodes = (
"405 628 LINE",
"465 639 OFFCURVE",
"497 636 OFFCURVE",
"541 636 CURVE",
"640 542 LINE",
"734 585 OFFCURVE",
"768 652 OFFCURVE",
"728 741 CURVE",
"489 758 OFFCURVE",
"353 755 OFFCURVE",
"109 735 CURVE",
"92 718 OFFCURVE",
"89 683 OFFCURVE",
"99 652 CURVE",
"129 645 OFFCURVE",
"152 637 OFFCURVE",
"173 629 CURVE",
"184 493 LINE",
"148 341 OFFCURVE",
"124 282 OFFCURVE",
"70 133 CURVE",
"76 66 OFFCURVE",
"130 24 OFFCURVE",
"233 0 CURVE",
"638 24 LINE",
"681 76 OFFCURVE",
"703 164 OFFCURVE",
"627 188 CURVE",
"526 161 OFFCURVE",
"400 139 OFFCURVE",
"301 123 CURVE",
"336 326 LINE",
"424 325 OFFCURVE",
"504 319 OFFCURVE",
"581 311 CURVE",
"606 355 OFFCURVE",
"623 417 OFFCURVE",
"580 450 CURVE",
"500 443 OFFCURVE",
"429 430 OFFCURVE",
"348 418 CURVE",
"374 554 LINE"
);
}
);
width = 727;
},
{
layerId = "31954392-1C4E-4333-A60C-122C4BAF07AE";
paths = (
{
closed = 1;
nodes = (
"413 44 OFFCURVE",
"401 52 OFFCURVE",
"373 52 CURVE",
"304 21 OFFCURVE",
"203 -38 OFFCURVE",
"203 -106 CURVE SMOOTH",
"203 -160 OFFCURVE",
"266 -198 OFFCURVE",
"336 -198 CURVE SMOOTH",
"394 -198 OFFCURVE",
"440 -171 OFFCURVE",
"467 -137 CURVE",
"465 -118 OFFCURVE",
"458 -111 OFFCURVE",
"440 -112 CURVE",
"411 -135 OFFCURVE",
"376 -150 OFFCURVE",
"341 -150 CURVE SMOOTH",
"299 -150 OFFCURVE",
"270 -135 OFFCURVE",
"256 -113 CURVE",
"260 -60 OFFCURVE",
"351 10 OFFCURVE",
"409 29 CURVE"
);
},
{
closed = 1;
nodes = (
"264 661 LINE",
"337 669 OFFCURVE",
"394 663 OFFCURVE",
"438 656 CURVE",
"501 615 LINE",
"536 644 OFFCURVE",
"553 708 OFFCURVE",
"526 728 CURVE",
"352 730 OFFCURVE",
"249 726 OFFCURVE",
"135 715 CURVE",
"124 704 OFFCURVE",
"124 684 OFFCURVE",
"135 664 CURVE",
"152 663 OFFCURVE",
"170 660 OFFCURVE",
"181 653 CURVE",
"162 492 LINE",
"134 334 OFFCURVE",
"94 205 OFFCURVE",
"41 66 CURVE",
"42 33 OFFCURVE",
"71 13 OFFCURVE",
"118 0 CURVE",
"409 29 LINE",
"427 57 OFFCURVE",
"435 103 OFFCURVE",
"405 113 CURVE",
"324 97 OFFCURVE",
"230 80 OFFCURVE",
"127 67 CURVE",
"197 332 LINE",
"268 335 OFFCURVE",
"339 330 OFFCURVE",
"411 325 CURVE",
"431 355 OFFCURVE",
"433 390 OFFCURVE",
"422 408 CURVE",
"364 401 OFFCURVE",
"288 397 OFFCURVE",
"206 389 CURVE",
"235 552 LINE"
);
}
);
width = 490;
}
);
unicode = 0118;
},
{
glyphname = F;
layers = (
{
layerId = "5FE12265-991D-4E7A-94BF-8B782DB79986";
paths = (
{
closed = 1;
nodes = (
"405 628 LINE",
"465 639 OFFCURVE",
"497 636 OFFCURVE",
"541 636 CURVE",
"640 542 LINE",
"734 585 OFFCURVE",
"768 652 OFFCURVE",
"728 741 CURVE",
"489 758 OFFCURVE",
"353 755 OFFCURVE",
"109 735 CURVE",
"92 718 OFFCURVE",
"89 683 OFFCURVE",
"99 652 CURVE",
"129 645 OFFCURVE",
"152 637 OFFCURVE",
"173 629 CURVE",
"184 493 LINE",
"158 333 OFFCURVE",
"124 215 OFFCURVE",
"57 56 CURVE",
"97 0 OFFCURVE",
"265 -18 OFFCURVE",
"319 30 CURVE",
"319 152 OFFCURVE",
"320 213 OFFCURVE",
"330 302 CURVE",
"424 301 OFFCURVE",
"503 297 OFFCURVE",
"574 286 CURVE",
"609 338 OFFCURVE",
"610 404 OFFCURVE",
"575 426 CURVE",
"504 419 OFFCURVE",
"420 407 OFFCURVE",
"343 393 CURVE",
"374 554 LINE"
);
}
);
width = 697;
},
{
layerId = "31954392-1C4E-4333-A60C-122C4BAF07AE";
paths = (
{
closed = 1;
nodes = (
"264 662 LINE",
"337 670 OFFCURVE",
"394 664 OFFCURVE",
"438 657 CURVE",
"501 616 LINE",
"536 645 OFFCURVE",
"553 710 OFFCURVE",
"526 729 CURVE",
"352 731 OFFCURVE",
"249 727 OFFCURVE",
"135 716 CURVE",
"124 705 OFFCURVE",
"124 685 OFFCURVE",
"135 665 CURVE",
"152 664 OFFCURVE",
"170 661 OFFCURVE",
"181 654 CURVE",
"173 518 LINE",
"143 354 OFFCURVE",
"120 222 OFFCURVE",
"68 28 CURVE",
"89 2 OFFCURVE",
"136 -5 OFFCURVE",
"162 3 CURVE",
"175 127 OFFCURVE",
"187 221 OFFCURVE",
"200 314 CURVE",
"271 318 OFFCURVE",
"342 313 OFFCURVE",
"415 308 CURVE",
"435 338 OFFCURVE",
"437 373 OFFCURVE",
"428 391 CURVE",
"369 382 OFFCURVE",
"294 380 OFFCURVE",
"211 372 CURVE",
"235 553 LINE"
);
}
);
width = 500;
}
);
unicode = 0046;
},
{
glyphname = G;
layers = (
{
anchors = (
{
name = bottom;
position = "{401, 0}";
},
{
name = top;
position = "{476, 753}";
}
);
layerId = "5FE12265-991D-4E7A-94BF-8B782DB79986";
paths = (
{
closed = 1;
nodes = (
"592 211 LINE",
"580 171 OFFCURVE",
"557 106 OFFCURVE",
"525 40 CURVE",
"547 1 OFFCURVE",
"608 -12 OFFCURVE",
"660 14 CURVE",
"736 215 OFFCURVE",
"757 322 OFFCURVE",
"698 397 CURVE",
"607 389 OFFCURVE",
"500 396 OFFCURVE",
"410 407 CURVE",
"367 369 OFFCURVE",
"376 293 OFFCURVE",
"422 267 CURVE",
"538 291 LINE",
"542 285 LINE",
"496 224 OFFCURVE",
"442 179 OFFCURVE",
"380 134 CURVE",
"316 191 OFFCURVE",
"277 255 OFFCURVE",
"279 349 CURVE",
"285 473 OFFCURVE",
"354 566 OFFCURVE",
"456 660 CURVE",
"471 660 LINE",
"521 611 OFFCURVE",
"524 556 OFFCURVE",
"534 490 CURVE",
"627 425 OFFCURVE",
"735 493 OFFCURVE",
"751 569 CURVE",
"715 660 OFFCURVE",
"680 719 OFFCURVE",
"492 761 CURVE",
"388 744 OFFCURVE",
"231 684 OFFCURVE",
"138 590 CURVE",
"92 536 OFFCURVE",
"46 436 OFFCURVE",
"44 330 CURVE SMOOTH",
"41 172 OFFCURVE",
"139 27 OFFCURVE",
"385 0 CURVE",
"474 69 OFFCURVE",
"542 140 OFFCURVE",
"585 217 CURVE"
);
}
);
width = 769;
},
{
anchors = (
{
name = bottom;
position = "{325, 0}";
},
{
name = top;
position = "{458, 796}";
}
);
layerId = "31954392-1C4E-4333-A60C-122C4BAF07AE";
paths = (
{
closed = 1;
nodes = (
"519 247 LINE",
"505 181 OFFCURVE",
"460 85 OFFCURVE",
"431 26 CURVE",
"442 6 OFFCURVE",
"470 -2 OFFCURVE",
"498 0 CURVE",
"554 168 OFFCURVE",
"595 284 OFFCURVE",
"553 366 CURVE",
"476 354 OFFCURVE",
"383 356 OFFCURVE",
"326 366 CURVE",
"300 348 OFFCURVE",
"306 315 OFFCURVE",
"328 287 CURVE",
"494 315 LINE",
"498 310 LINE",
"453 211 OFFCURVE",
"380 124 OFFCURVE",
"309 62 CURVE",
"187 116 OFFCURVE",
"129 162 OFFCURVE",
"129 306 CURVE SMOOTH",
"129 473 OFFCURVE",
"259 637 OFFCURVE",
"414 676 CURVE",
"429 677 LINE",
"465 635 OFFCURVE",
"475 594 OFFCURVE",
"481 534 CURVE",
"511 523 OFFCURVE",
"544 529 OFFCURVE",
"577 555 CURVE",
"572 624 OFFCURVE",
"527 711 OFFCURVE",
"444 742 CURVE",
"276 714 OFFCURVE",
"177 613 OFFCURVE",
"121 522 CURVE",
"89 464 OFFCURVE",
"54 374 OFFCURVE",
"55 305 CURVE SMOOTH",
"57 148 OFFCURVE",
"124 58 OFFCURVE",
"320 0 CURVE",
"411 63 OFFCURVE",
"476 160 OFFCURVE",
"511 249 CURVE"
);
}
);
width = 616;
}
);
unicode = 0047;
},
{
glyphname = Gbreve;
layers = (
{
layerId = "5FE12265-991D-4E7A-94BF-8B782DB79986";
paths = (
{
closed = 1;
nodes = (
"592 211 LINE",
"580 171 OFFCURVE",
"557 106 OFFCURVE",
"525 40 CURVE",
"547 1 OFFCURVE",
"608 -12 OFFCURVE",
"660 14 CURVE",
"736 215 OFFCURVE",
"757 322 OFFCURVE",
"698 397 CURVE",
"607 389 OFFCURVE",
"500 396 OFFCURVE",
"410 407 CURVE",
"367 369 OFFCURVE",
"376 293 OFFCURVE",
"422 267 CURVE",
"538 291 LINE",
"542 285 LINE",
"496 224 OFFCURVE",
"442 179 OFFCURVE",
"380 134 CURVE",
"316 191 OFFCURVE",
"277 255 OFFCURVE",
"279 349 CURVE",
"285 473 OFFCURVE",
"354 566 OFFCURVE",
"456 660 CURVE",
"471 660 LINE",
"521 611 OFFCURVE",
"524 556 OFFCURVE",
"534 490 CURVE",
"627 425 OFFCURVE",
"735 493 OFFCURVE",
"751 569 CURVE",
"715 660 OFFCURVE",
"680 719 OFFCURVE",
"492 761 CURVE",
"388 744 OFFCURVE",
"231 684 OFFCURVE",
"138 590 CURVE",
"92 536 OFFCURVE",
"46 436 OFFCURVE",
"44 330 CURVE SMOOTH",
"41 172 OFFCURVE",
"139 27 OFFCURVE",
"385 0 CURVE",
"474 69 OFFCURVE",
"542 140 OFFCURVE",
"585 217 CURVE"
);
},
{
closed = 1;
nodes = (
"330 873 OFFCURVE",
"427 815 OFFCURVE",
"517 815 CURVE SMOOTH",
"607 815 OFFCURVE",
"686 883 OFFCURVE",
"709 955 CURVE",
"699 997 OFFCURVE",
"650 1022 OFFCURVE",
"571 1011 CURVE",
"564 962 OFFCURVE",
"531 924 OFFCURVE",
"467 913 CURVE",
"421 926 OFFCURVE",
"392 960 OFFCURVE",
"375 1011 CURVE",
"353 1015 OFFCURVE",
"326 999 OFFCURVE",
"315 985 CURVE"
);
}
);
width = 769;
},
{
layerId = "31954392-1C4E-4333-A60C-122C4BAF07AE";
paths = (
{
closed = 1;
nodes = (
"519 247 LINE",
"505 181 OFFCURVE",
"460 85 OFFCURVE",
"431 26 CURVE",
"442 6 OFFCURVE",
"470 -2 OFFCURVE",
"498 0 CURVE",
"554 168 OFFCURVE",
"595 284 OFFCURVE",
"553 366 CURVE",
"476 354 OFFCURVE",
"383 356 OFFCURVE",
"326 366 CURVE",
"300 348 OFFCURVE",
"306 315 OFFCURVE",
"328 287 CURVE",
"494 315 LINE",
"498 310 LINE",
"453 211 OFFCURVE",
"380 124 OFFCURVE",
"309 62 CURVE",
"187 116 OFFCURVE",
"129 162 OFFCURVE",
"129 306 CURVE SMOOTH",
"129 473 OFFCURVE",
"259 637 OFFCURVE",
"414 676 CURVE",
"429 677 LINE",
"465 635 OFFCURVE",
"475 594 OFFCURVE",
"481 534 CURVE",
"511 523 OFFCURVE",
"544 529 OFFCURVE",
"577 555 CURVE",
"572 624 OFFCURVE",
"527 711 OFFCURVE",
"444 742 CURVE",
"276 714 OFFCURVE",
"177 613 OFFCURVE",
"121 522 CURVE",
"89 464 OFFCURVE",
"54 374 OFFCURVE",
"55 305 CURVE SMOOTH",
"57 148 OFFCURVE",
"124 58 OFFCURVE",
"320 0 CURVE",
"411 63 OFFCURVE",
"476 160 OFFCURVE",
"511 249 CURVE"
);
},
{
closed = 1;
nodes = (
"351 841 OFFCURVE",
"397 799 OFFCURVE",
"466 799 CURVE SMOOTH",
"528 799 OFFCURVE",
"577 841 OFFCURVE",
"591 902 CURVE",
"577 923 OFFCURVE",
"552 935 OFFCURVE",
"509 923 CURVE",
"504 887 OFFCURVE",
"479 859 OFFCURVE",
"432 851 CURVE",
"398 861 OFFCURVE",
"376 886 OFFCURVE",
"364 923 CURVE",
"348 923 OFFCURVE",
"337 921 OFFCURVE",
"330 915 CURVE"
);
}
);
width = 616;
}
);
unicode = 011E;
},
{
glyphname = Gcommaaccent;
layers = (
{
layerId = "5FE12265-991D-4E7A-94BF-8B782DB79986";
paths = (
{
closed = 1;
nodes = (
"232 -313 LINE",
"241 -340 OFFCURVE",
"263 -354 OFFCURVE",
"303 -355 CURVE",
"419 -269 OFFCURVE",
"467 -177 OFFCURVE",
"473 -86 CURVE",
"456 -38 OFFCURVE",
"372 20 OFFCURVE",
"278 -51 CURVE",
"295 -220 LINE"
);
},
{
closed = 1;
nodes = (
"592 211 LINE",
"580 171 OFFCURVE",
"557 106 OFFCURVE",
"525 40 CURVE",
"547 1 OFFCURVE",
"608 -12 OFFCURVE",
"660 14 CURVE",
"736 215 OFFCURVE",
"757 322 OFFCURVE",
"698 397 CURVE",
"607 389 OFFCURVE",
"500 396 OFFCURVE",
"410 407 CURVE",
"367 369 OFFCURVE",
"376 293 OFFCURVE",
"422 267 CURVE",
"538 291 LINE",
"542 285 LINE",
"496 224 OFFCURVE",
"442 179 OFFCURVE",
"380 134 CURVE",
"316 191 OFFCURVE",
"277 255 OFFCURVE",
"279 349 CURVE",
"285 473 OFFCURVE",
"354 566 OFFCURVE",
"456 660 CURVE",
"471 660 LINE",
"521 611 OFFCURVE",
"524 556 OFFCURVE",
"534 490 CURVE",
"627 425 OFFCURVE",
"735 493 OFFCURVE",
"751 569 CURVE",
"715 660 OFFCURVE",
"680 719 OFFCURVE",
"492 761 CURVE",
"388 744 OFFCURVE",
"231 684 OFFCURVE",
"138 590 CURVE",
"92 536 OFFCURVE",
"46 436 OFFCURVE",
"44 330 CURVE SMOOTH",
"41 172 OFFCURVE",
"139 27 OFFCURVE",
"385 0 CURVE",
"474 69 OFFCURVE",
"542 140 OFFCURVE",
"585 217 CURVE"
);
}
);
width = 769;
},
{
layerId = "31954392-1C4E-4333-A60C-122C4BAF07AE";
paths = (
{
closed = 1;
nodes = (
"222 -231 LINE",
"229 -242 OFFCURVE",
"243 -246 OFFCURVE",
"254 -245 CURVE",
"296 -207 OFFCURVE",
"351 -136 OFFCURVE",
"358 -70 CURVE",
"342 -26 OFFCURVE",
"295 -2 OFFCURVE",
"253 -36 CURVE",
"276 -148 LINE"
);
},
{
closed = 1;
nodes = (
"519 247 LINE",
"505 181 OFFCURVE",
"460 85 OFFCURVE",
"431 26 CURVE",
"442 6 OFFCURVE",
"470 -2 OFFCURVE",
"498 0 CURVE",
"554 168 OFFCURVE",
"595 284 OFFCURVE",
"553 366 CURVE",
"476 354 OFFCURVE",
"383 356 OFFCURVE",
"326 366 CURVE",
"300 348 OFFCURVE",
"306 315 OFFCURVE",
"328 287 CURVE",
"494 315 LINE",
"498 310 LINE",
"453 211 OFFCURVE",
"380 124 OFFCURVE",
"309 62 CURVE",
"187 116 OFFCURVE",
"129 162 OFFCURVE",
"129 306 CURVE SMOOTH",
"129 473 OFFCURVE",
"259 637 OFFCURVE",
"414 676 CURVE",
"429 677 LINE",
"465 635 OFFCURVE",
"475 594 OFFCURVE",
"481 534 CURVE",
"511 523 OFFCURVE",
"544 529 OFFCURVE",
"577 555 CURVE",
"572 624 OFFCURVE",
"527 711 OFFCURVE",
"444 742 CURVE",
"276 714 OFFCURVE",
"177 613 OFFCURVE",
"121 522 CURVE",
"89 464 OFFCURVE",
"54 374 OFFCURVE",
"55 305 CURVE SMOOTH",
"57 148 OFFCURVE",
"124 58 OFFCURVE",
"320 0 CURVE",
"411 63 OFFCURVE",
"476 160 OFFCURVE",
"511 249 CURVE"
);
}
);
width = 616;
}
);
unicode = 0122;
},
{
glyphname = H;
layers = (
{
layerId = "5FE12265-991D-4E7A-94BF-8B782DB79986";
paths = (
{
closed = 1;
nodes = (
"369 415 LINE",
"63 426 LINE",
"27 376 OFFCURVE",
"28 346 OFFCURVE",
"59 309 CURVE",
"334 331 LINE",
"854 367 LINE",
"885 424 OFFCURVE",
"887 459 OFFCURVE",
"852 481 CURVE"
);
},
{
closed = 1;
nodes = (
"437 735 LINE",
"412 747 OFFCURVE",
"381 753 OFFCURVE",
"344 753 CURVE SMOOTH",
"294 753 OFFCURVE",
"233 740 OFFCURVE",
"173 711 CURVE",
"176 545 LINE",
"146 378 OFFCURVE",
"110 204 OFFCURVE",
"54 56 CURVE",
"79 3 OFFCURVE",
"253 -22 OFFCURVE",
"315 31 CURVE",
"327 194 OFFCURVE",
"331 343 OFFCURVE",
"342 460 CURVE"
);
},
{
closed = 1;
nodes = (
"857 735 LINE",
"832 747 OFFCURVE",
"801 753 OFFCURVE",
"764 753 CURVE SMOOTH",
"714 753 OFFCURVE",
"653 740 OFFCURVE",
"593 711 CURVE",
"596 545 LINE",
"566 378 OFFCURVE",
"530 204 OFFCURVE",
"474 56 CURVE",
"499 3 OFFCURVE",
"673 -22 OFFCURVE",
"735 31 CURVE",
"747 194 OFFCURVE",
"751 343 OFFCURVE",
"762 460 CURVE"
);
}
);
width = 861;
},
{
layerId = "31954392-1C4E-4333-A60C-122C4BAF07AE";
paths = (
{
closed = 1;
nodes = (
"374 390 LINE",
"78 379 LINE",
"57 357 OFFCURVE",
"53 330 OFFCURVE",
"68 309 CURVE",
"207 330 LINE",
"626 362 LINE",
"649 391 OFFCURVE",
"651 421 OFFCURVE",
"635 432 CURVE"
);
},
{
closed = 1;
nodes = (
"279 726 LINE",
"266 732 OFFCURVE",
"255 735 OFFCURVE",
"243 735 CURVE SMOOTH",
"222 735 OFFCURVE",
"202 727 OFFCURVE",
"174 710 CURVE",
"159 497 LINE",
"127 302 OFFCURVE",
"105 217 OFFCURVE",
"59 31 CURVE",
"77 2 OFFCURVE",
"113 -4 OFFCURVE",
"154 0 CURVE",
"171 154 OFFCURVE",
"194 299 OFFCURVE",
"204 401 CURVE"
);
},
{
closed = 1;
nodes = (
"632 726 LINE",
"619 732 OFFCURVE",
"608 735 OFFCURVE",
"596 735 CURVE SMOOTH",
"576 735 OFFCURVE",
"555 727 OFFCURVE",
"527 710 CURVE",
"512 497 LINE",
"481 302 OFFCURVE",
"458 217 OFFCURVE",
"413 31 CURVE",
"430 2 OFFCURVE",
"467 -4 OFFCURVE",
"508 0 CURVE",
"524 154 OFFCURVE",
"548 299 OFFCURVE",
"557 401 CURVE"
);
}
);
width = 669;
}
);
unicode = 0048;
},
{
glyphname = I;
layers = (
{
anchors = (
{
name = ogonek;
position = "{219, 0}";
},
{
name = top;
position = "{272, 753}";
}
);
layerId = "5FE12265-991D-4E7A-94BF-8B782DB79986";
paths = (
{
closed = 1;
nodes = (
"133 545 LINE",
"103 378 OFFCURVE",
"67 204 OFFCURVE",
"11 56 CURVE",
"36 3 OFFCURVE",
"210 -22 OFFCURVE",
"272 31 CURVE",
"284 194 OFFCURVE",
"288 343 OFFCURVE",
"299 460 CURVE",
"394 735 LINE",
"369 747 OFFCURVE",
"338 753 OFFCURVE",
"301 753 CURVE SMOOTH",
"251 753 OFFCURVE",
"190 740 OFFCURVE",
"130 711 CURVE"
);
}
);
width = 356;
},
{
anchors = (
{
name = ogonek;
position = "{114, 0}";
},
{
name = top;
position = "{194, 796}";
}
);
layerId = "31954392-1C4E-4333-A60C-122C4BAF07AE";
paths = (
{
closed = 1;
nodes = (
"122 497 LINE",
"91 302 OFFCURVE",
"68 217 OFFCURVE",
"23 31 CURVE",
"40 2 OFFCURVE",
"77 -4 OFFCURVE",
"118 0 CURVE",
"134 154 OFFCURVE",
"158 299 OFFCURVE",
"167 401 CURVE",
"242 726 LINE",
"229 732 OFFCURVE",
"218 735 OFFCURVE",
"206 735 CURVE SMOOTH",
"186 735 OFFCURVE",
"165 727 OFFCURVE",
"137 710 CURVE"
);
}
);
width = 225;
}
);
unicode = 0049;
},
{
glyphname = Iacute;
layers = (
{
layerId = "5FE12265-991D-4E7A-94BF-8B782DB79986";
paths = (
{
closed = 1;
nodes = (
"133 545 LINE",
"103 378 OFFCURVE",
"67 204 OFFCURVE",
"11 56 CURVE",
"36 3 OFFCURVE",
"210 -22 OFFCURVE",
"272 31 CURVE",
"284 194 OFFCURVE",
"288 343 OFFCURVE",
"299 460 CURVE",
"394 735 LINE",
"369 747 OFFCURVE",
"338 753 OFFCURVE",
"301 753 CURVE SMOOTH",
"251 753 OFFCURVE",
"190 740 OFFCURVE",
"130 711 CURVE"
);
},
{
closed = 1;
nodes = (
"311 952 LINE",
"236 857 LINE",
"232 825 OFFCURVE",
"279 806 OFFCURVE",
"321 807 CURVE",
"533 987 LINE",
"500 1055 OFFCURVE",
"445 1071 OFFCURVE",
"341 1058 CURVE"
);
}
);
width = 356;
},
{
layerId = "31954392-1C4E-4333-A60C-122C4BAF07AE";
paths = (
{
closed = 1;
nodes = (
"122 497 LINE",
"91 302 OFFCURVE",
"68 217 OFFCURVE",
"23 31 CURVE",
"40 2 OFFCURVE",
"77 -4 OFFCURVE",
"118 0 CURVE",
"134 154 OFFCURVE",
"158 299 OFFCURVE",
"167 401 CURVE",
"242 726 LINE",
"229 732 OFFCURVE",
"218 735 OFFCURVE",
"206 735 CURVE SMOOTH",
"186 735 OFFCURVE",
"165 727 OFFCURVE",
"137 710 CURVE"
);
},
{
closed = 1;
nodes = (
"248 894 LINE",
"186 801 LINE",
"188 790 OFFCURVE",
"199 784 OFFCURVE",
"219 784 CURVE",
"378 940 LINE",
"377 962 OFFCURVE",
"322 984 OFFCURVE",
"278 972 CURVE"
);
}
);
width = 225;
}
);
unicode = 00CD;
},
{
glyphname = Icircumflex;
layers = (
{
layerId = "5FE12265-991D-4E7A-94BF-8B782DB79986";
paths = (
{
closed = 1;
nodes = (
"133 545 LINE",
"103 378 OFFCURVE",
"67 204 OFFCURVE",
"11 56 CURVE",
"36 3 OFFCURVE",
"210 -22 OFFCURVE",
"272 31 CURVE",
"284 194 OFFCURVE",
"288 343 OFFCURVE",
"299 460 CURVE",
"394 735 LINE",
"369 747 OFFCURVE",
"338 753 OFFCURVE",
"301 753 CURVE SMOOTH",
"251 753 OFFCURVE",
"190 740 OFFCURVE",
"130 711 CURVE"
);
},
{
closed = 1;
nodes = (
"36 855 LINE",
"40 822 OFFCURVE",
"80 806 OFFCURVE",
"128 808 CURVE",
"295 955 LINE",
"358 827 LINE",
"398 810 OFFCURVE",
"495 785 OFFCURVE",
"567 847 CURVE",
"456 1026 LINE",
"402 1057 OFFCURVE",
"337 1067 OFFCURVE",
"251 1053 CURVE"
);
}
);
width = 356;
},
{
layerId = "31954392-1C4E-4333-A60C-122C4BAF07AE";
paths = (
{
closed = 1;
nodes = (
"122 497 LINE",
"91 302 OFFCURVE",
"68 217 OFFCURVE",
"23 31 CURVE",
"40 2 OFFCURVE",
"77 -4 OFFCURVE",
"118 0 CURVE",
"134 154 OFFCURVE",
"158 299 OFFCURVE",
"167 401 CURVE",
"242 726 LINE",
"229 732 OFFCURVE",
"218 735 OFFCURVE",
"206 735 CURVE SMOOTH",
"186 735 OFFCURVE",
"165 727 OFFCURVE",
"137 710 CURVE"
);
},
{
closed = 1;
nodes = (
"65 818 LINE",
"67 800 OFFCURVE",
"82 794 OFFCURVE",
"95 792 CURVE",
"221 903 LINE",
"272 795 LINE",
"287 785 OFFCURVE",
"319 781 OFFCURVE",
"342 802 CURVE",
"276 940 LINE",
"260 952 OFFCURVE",
"233 955 OFFCURVE",
"206 948 CURVE"
);
}
);
width = 225;
}
);
unicode = 00CE;
},
{
glyphname = Idieresis;
layers = (
{
layerId = "5FE12265-991D-4E7A-94BF-8B782DB79986";
paths = (
{
closed = 1;
nodes = (
"133 545 LINE",
"103 378 OFFCURVE",
"67 204 OFFCURVE",
"11 56 CURVE",
"36 3 OFFCURVE",
"210 -22 OFFCURVE",
"272 31 CURVE",
"284 194 OFFCURVE",
"288 343 OFFCURVE",
"299 460 CURVE",
"394 735 LINE",
"369 747 OFFCURVE",
"338 753 OFFCURVE",
"301 753 CURVE SMOOTH",
"251 753 OFFCURVE",
"190 740 OFFCURVE",
"130 711 CURVE"
);
},
{
closed = 1;
nodes = (
"60 870 OFFCURVE",
"105 826 OFFCURVE",
"160 826 CURVE SMOOTH",
"214 826 OFFCURVE",
"257 870 OFFCURVE",
"257 923 CURVE SMOOTH",
"257 975 OFFCURVE",
"214 1018 OFFCURVE",
"160 1018 CURVE SMOOTH",
"105 1018 OFFCURVE",
"60 975 OFFCURVE",
"60 923 CURVE SMOOTH"
);
},
{
closed = 1;
nodes = (
"539 975 OFFCURVE",
"496 1018 OFFCURVE",
"443 1018 CURVE SMOOTH",
"388 1018 OFFCURVE",
"342 975 OFFCURVE",
"342 923 CURVE SMOOTH",
"342 870 OFFCURVE",
"388 826 OFFCURVE",
"443 826 CURVE SMOOTH",
"496 826 OFFCURVE",
"539 870 OFFCURVE",
"539 923 CURVE SMOOTH"
);
}
);
width = 356;
},
{
layerId = "31954392-1C4E-4333-A60C-122C4BAF07AE";
paths = (
{
closed = 1;
nodes = (
"122 497 LINE",
"91 302 OFFCURVE",
"68 217 OFFCURVE",
"23 31 CURVE",
"40 2 OFFCURVE",
"77 -4 OFFCURVE",
"118 0 CURVE",
"134 154 OFFCURVE",
"158 299 OFFCURVE",
"167 401 CURVE",
"242 726 LINE",
"229 732 OFFCURVE",
"218 735 OFFCURVE",
"206 735 CURVE SMOOTH",
"186 735 OFFCURVE",
"165 727 OFFCURVE",
"137 710 CURVE"
);
},
{
closed = 1;
nodes = (
"59 833 OFFCURVE",
"79 811 OFFCURVE",
"106 811 CURVE SMOOTH",
"132 811 OFFCURVE",
"153 833 OFFCURVE",
"153 858 CURVE SMOOTH",
"153 885 OFFCURVE",
"132 905 OFFCURVE",
"106 905 CURVE SMOOTH",
"79 905 OFFCURVE",
"59 885 OFFCURVE",
"59 858 CURVE SMOOTH"
);
},
{
closed = 1;
nodes = (
"315 885 OFFCURVE",
"294 905 OFFCURVE",
"268 905 CURVE SMOOTH",
"241 905 OFFCURVE",
"221 885 OFFCURVE",
"221 858 CURVE SMOOTH",
"221 833 OFFCURVE",
"241 811 OFFCURVE",
"268 811 CURVE SMOOTH",
"294 811 OFFCURVE",
"315 833 OFFCURVE",
"315 858 CURVE SMOOTH"
);
}
);
width = 225;
}
);
unicode = 00CF;
},
{
glyphname = Idotaccent;
layers = (
{
layerId = "5FE12265-991D-4E7A-94BF-8B782DB79986";
paths = (
{
closed = 1;
nodes = (
"133 545 LINE",
"103 378 OFFCURVE",
"67 204 OFFCURVE",
"11 56 CURVE",
"36 3 OFFCURVE",
"210 -22 OFFCURVE",
"272 31 CURVE",
"284 194 OFFCURVE",
"288 343 OFFCURVE",
"299 460 CURVE",
"394 735 LINE",
"369 747 OFFCURVE",
"338 753 OFFCURVE",
"301 753 CURVE SMOOTH",
"251 753 OFFCURVE",
"190 740 OFFCURVE",
"130 711 CURVE"
);
},
{
closed = 1;
nodes = (
"186 879 OFFCURVE",
"231 836 OFFCURVE",
"286 836 CURVE SMOOTH",
"340 836 OFFCURVE",
"383 879 OFFCURVE",
"383 932 CURVE SMOOTH",
"383 985 OFFCURVE",
"340 1028 OFFCURVE",
"286 1028 CURVE SMOOTH",
"231 1028 OFFCURVE",
"186 985 OFFCURVE",
"186 932 CURVE SMOOTH"
);
}
);
width = 356;
},
{
layerId = "31954392-1C4E-4333-A60C-122C4BAF07AE";
paths = (
{
closed = 1;
nodes = (
"122 497 LINE",
"91 302 OFFCURVE",
"68 217 OFFCURVE",
"23 31 CURVE",
"40 2 OFFCURVE",
"77 -4 OFFCURVE",
"118 0 CURVE",
"134 154 OFFCURVE",
"158 299 OFFCURVE",
"167 401 CURVE",
"242 726 LINE",
"229 732 OFFCURVE",
"218 735 OFFCURVE",
"206 735 CURVE SMOOTH",
"186 735 OFFCURVE",
"165 727 OFFCURVE",
"137 710 CURVE"
);
},
{
closed = 1;
nodes = (
"156 833 OFFCURVE",
"176 811 OFFCURVE",
"203 811 CURVE SMOOTH",
"229 811 OFFCURVE",
"250 833 OFFCURVE",
"250 858 CURVE SMOOTH",
"250 885 OFFCURVE",
"229 905 OFFCURVE",
"203 905 CURVE SMOOTH",
"176 905 OFFCURVE",
"156 885 OFFCURVE",
"156 858 CURVE SMOOTH"
);
}
);
width = 225;
}
);
unicode = 0130;
},
{
glyphname = Igrave;
layers = (
{
layerId = "5FE12265-991D-4E7A-94BF-8B782DB79986";
paths = (
{
closed = 1;
nodes = (
"133 545 LINE",
"103 378 OFFCURVE",
"67 204 OFFCURVE",
"11 56 CURVE",
"36 3 OFFCURVE",
"210 -22 OFFCURVE",
"272 31 CURVE",
"284 194 OFFCURVE",
"288 343 OFFCURVE",
"299 460 CURVE",
"394 735 LINE",
"369 747 OFFCURVE",
"338 753 OFFCURVE",
"301 753 CURVE SMOOTH",
"251 753 OFFCURVE",
"190 740 OFFCURVE",
"130 711 CURVE"
);
},
{
closed = 1;
nodes = (
"320 1045 LINE",
"280 1072 OFFCURVE",
"169 1065 OFFCURVE",
"128 986 CURVE",
"215 915 LINE",
"287 813 LINE",
"322 799 OFFCURVE",
"371 813 OFFCURVE",
"391 842 CURVE"
);
}
);
width = 356;
},
{
layerId = "31954392-1C4E-4333-A60C-122C4BAF07AE";
paths = (
{
closed = 1;
nodes = (
"122 497 LINE",
"91 302 OFFCURVE",
"68 217 OFFCURVE",
"23 31 CURVE",
"40 2 OFFCURVE",
"77 -4 OFFCURVE",
"118 0 CURVE",
"134 154 OFFCURVE",
"158 299 OFFCURVE",
"167 401 CURVE",
"242 726 LINE",
"229 732 OFFCURVE",
"218 735 OFFCURVE",
"206 735 CURVE SMOOTH",
"186 735 OFFCURVE",
"165 727 OFFCURVE",
"137 710 CURVE"
);
},
{
closed = 1;
nodes = (
"136 989 LINE",
"93 998 OFFCURVE",
"56 985 OFFCURVE",
"46 949 CURVE",
"132 861 LINE",
"183 788 LINE",
"202 786 OFFCURVE",
"214 791 OFFCURVE",
"217 802 CURVE"
);
}
);
width = 225;
}
);
unicode = 00CC;
},
{
glyphname = Imacron;
layers = (
{
layerId = "5FE12265-991D-4E7A-94BF-8B782DB79986";
paths = (
{
closed = 1;
nodes = (
"133 545 LINE",
"103 378 OFFCURVE",
"67 204 OFFCURVE",
"11 56 CURVE",
"36 3 OFFCURVE",
"210 -22 OFFCURVE",
"272 31 CURVE",
"284 194 OFFCURVE",
"288 343 OFFCURVE",
"299 460 CURVE",
"394 735 LINE",
"369 747 OFFCURVE",
"338 753 OFFCURVE",
"301 753 CURVE SMOOTH",
"251 753 OFFCURVE",
"190 740 OFFCURVE",
"130 711 CURVE"
);
},
{
closed = 1;
nodes = (
"304 889 LINE",
"113 894 LINE",
"88 858 OFFCURVE",
"84 832 OFFCURVE",
"99 813 CURVE",
"483 825 LINE",
"515 864 OFFCURVE",
"519 897 OFFCURVE",
"499 909 CURVE"
);
}
);
width = 356;
},
{
layerId = "31954392-1C4E-4333-A60C-122C4BAF07AE";
paths = (
{
closed = 1;
nodes = (
"122 497 LINE",
"91 302 OFFCURVE",
"68 217 OFFCURVE",
"23 31 CURVE",
"40 2 OFFCURVE",
"77 -4 OFFCURVE",
"118 0 CURVE",
"134 154 OFFCURVE",
"158 299 OFFCURVE",
"167 401 CURVE",
"242 726 LINE",
"229 732 OFFCURVE",
"218 735 OFFCURVE",
"206 735 CURVE SMOOTH",
"186 735 OFFCURVE",
"165 727 OFFCURVE",
"137 710 CURVE"
);
},
{
closed = 1;
nodes = (
"191 867 LINE",
"39 872 LINE",
"18 846 OFFCURVE",
"14 827 OFFCURVE",
"28 813 CURVE",
"314 821 LINE",
"340 850 OFFCURVE",
"345 873 OFFCURVE",
"329 882 CURVE"
);
}
);
width = 225;
}
);
unicode = 012A;
},
{
glyphname = Iogonek;
layers = (
{
layerId = "975719B3-E082-4404-B156-488762B4AD4B";
name = public.background;
paths = (
{
closed = 1;
nodes = (
"125 1 OFFCURVE",
"113 9 OFFCURVE",
"85 9 CURVE",
"4 -8 OFFCURVE",
"-41 -40 OFFCURVE",
"-50 -95 CURVE SMOOTH",
"-60 -154 OFFCURVE",
"4 -198 OFFCURVE",
"81 -198 CURVE SMOOTH",
"135 -198 OFFCURVE",
"180 -171 OFFCURVE",
"212 -137 CURVE",
"208 -119 OFFCURVE",
"199 -113 OFFCURVE",
"185 -112 CURVE",
"158 -135 OFFCURVE",
"122 -147 OFFCURVE",
"87 -147 CURVE SMOOTH",
"54 -147 OFFCURVE",
"27 -138 OFFCURVE",
"13 -113 CURVE",
"20 -62 OFFCURVE",
"58 -26 OFFCURVE",
"121 -14 CURVE"
);
}
);
width = 225;
},
{
layerId = "975719B3-E082-4404-B156-488762B4AD4B";
name = public.background;
paths = (
{
closed = 1;
nodes = (
"293 21 OFFCURVE",
"268 41 OFFCURVE",
"228 50 CURVE",
"100 40 OFFCURVE",
"-16 -7 OFFCURVE",
"-30 -108 CURVE SMOOTH",
"-46 -212 OFFCURVE",
"57 -268 OFFCURVE",
"179 -268 CURVE SMOOTH",
"277 -268 OFFCURVE",
"346 -235 OFFCURVE",
"402 -175 CURVE",
"404 -145 OFFCURVE",
"389 -120 OFFCURVE",
"370 -119 CURVE",
"340 -145 OFFCURVE",
"297 -163 OFFCURVE",
"255 -163 CURVE SMOOTH",
"215 -163 OFFCURVE",
"181 -153 OFFCURVE",
"166 -122 CURVE",
"173 -61 OFFCURVE",
"239 -18 OFFCURVE",
"294 -7 CURVE"
);
}
);
width = 225;
},
{
layerId = "5FE12265-991D-4E7A-94BF-8B782DB79986";
paths = (
{
closed = 1;
nodes = (
"249 45 OFFCURVE",
"240 66 OFFCURVE",
"199 65 CURVE",
"94 49 OFFCURVE",
"-41 -31 OFFCURVE",
"-41 -137 CURVE SMOOTH",
"-41 -207 OFFCURVE",
"46 -270 OFFCURVE",
"149 -270 CURVE SMOOTH",
"233 -270 OFFCURVE",
"320 -238 OFFCURVE",
"362 -175 CURVE",
"374 -140 OFFCURVE",
"357 -116 OFFCURVE",
"310 -119 CURVE",
"273 -148 OFFCURVE",
"231 -162 OFFCURVE",
"193 -162 CURVE SMOOTH",
"159 -162 OFFCURVE",
"128 -151 OFFCURVE",
"106 -129 CURVE",
"114 -64 OFFCURVE",
"211 1 OFFCURVE",
"247 16 CURVE"
);
},
{
closed = 1;
nodes = (
"133 545 LINE",
"103 378 OFFCURVE",
"67 204 OFFCURVE",
"11 56 CURVE",
"36 3 OFFCURVE",
"210 -22 OFFCURVE",
"272 31 CURVE",
"284 194 OFFCURVE",
"288 343 OFFCURVE",
"299 460 CURVE",
"394 735 LINE",
"369 747 OFFCURVE",
"338 753 OFFCURVE",
"301 753 CURVE SMOOTH",
"251 753 OFFCURVE",
"190 740 OFFCURVE",
"130 711 CURVE"
);
}
);
width = 356;
},
{
layerId = "31954392-1C4E-4333-A60C-122C4BAF07AE";
paths = (
{
closed = 1;
nodes = (
"118 15 OFFCURVE",
"107 23 OFFCURVE",
"89 23 CURVE",
"5 -3 OFFCURVE",
"-40 -62 OFFCURVE",
"-40 -112 CURVE SMOOTH",
"-40 -158 OFFCURVE",
"-1 -198 OFFCURVE",
"81 -198 CURVE SMOOTH",
"135 -198 OFFCURVE",
"180 -171 OFFCURVE",
"212 -137 CURVE",
"208 -119 OFFCURVE",
"199 -113 OFFCURVE",
"185 -112 CURVE",
"159 -137 OFFCURVE",
"120 -151 OFFCURVE",
"83 -151 CURVE SMOOTH",
"56 -151 OFFCURVE",
"29 -143 OFFCURVE",
"11 -125 CURVE",
"12 -65 OFFCURVE",
"64 -22 OFFCURVE",
"118 0 CURVE"
);
},
{
closed = 1;
nodes = (
"122 497 LINE",
"91 302 OFFCURVE",
"68 217 OFFCURVE",
"23 31 CURVE",
"40 2 OFFCURVE",
"77 -4 OFFCURVE",
"118 0 CURVE",
"134 154 OFFCURVE",
"158 299 OFFCURVE",
"167 401 CURVE",
"242 726 LINE",
"229 732 OFFCURVE",
"218 735 OFFCURVE",
"206 735 CURVE SMOOTH",
"186 735 OFFCURVE",
"165 727 OFFCURVE",
"137 710 CURVE"
);
}
);
width = 225;
}
);
unicode = 012E;
},
{
glyphname = J;
layers = (
{
layerId = "5FE12265-991D-4E7A-94BF-8B782DB79986";
paths = (
{
closed = 1;
nodes = (
"523 760 OFFCURVE",
"400 756 OFFCURVE",
"141 735 CURVE",
"120 685 OFFCURVE",
"124 641 OFFCURVE",
"168 584 CURVE",
"552 635 LINE",
"766 589 LINE",
"820 667 OFFCURVE",
"812 711 OFFCURVE",
"789 741 CURVE"
);
},
{
closed = 1;
nodes = (
"527 262 OFFCURVE",
"528 318 OFFCURVE",
"533 443 CURVE",
"586 657 LINE",
"528 730 OFFCURVE",
"438 728 OFFCURVE",
"381 682 CURVE",
"383 540 LINE",
"369 378 OFFCURVE",
"344 279 OFFCURVE",
"308 127 CURVE",
"285 119 LINE",
"259 164 OFFCURVE",
"251 184 OFFCURVE",
"236 260 CURVE",
"164 299 OFFCURVE",
"79 272 OFFCURVE",
"15 195 CURVE",
"58 100 OFFCURVE",
"122 45 OFFCURVE",
"201 8 CURVE",
"373 -19 OFFCURVE",
"460 21 OFFCURVE",
"527 101 CURVE"
);
}
);
width = 744;
},
{
layerId = "31954392-1C4E-4333-A60C-122C4BAF07AE";
paths = (
{
closed = 1;
nodes = (
"415 728 OFFCURVE",
"298 724 OFFCURVE",
"124 715 CURVE",
"111 698 OFFCURVE",
"109 681 OFFCURVE",
"133 657 CURVE",
"350 676 LINE",
"588 660 LINE",
"613 683 OFFCURVE",
"617 710 OFFCURVE",
"603 721 CURVE"
);
},
{
closed = 1;
nodes = (
"309 183 OFFCURVE",
"325 292 OFFCURVE",
"336 389 CURVE",
"410 703 LINE",
"388 715 OFFCURVE",
"356 713 OFFCURVE",
"309 688 CURVE",
"299 505 LINE",
"269 333 OFFCURVE",
"242 221 OFFCURVE",
"208 67 CURVE",
"194 60 LINE",
"147 103 OFFCURVE",
"114 160 OFFCURVE",
"108 224 CURVE",
"82 240 OFFCURVE",
"50 224 OFFCURVE",
"28 189 CURVE",
"38 129 OFFCURVE",
"91 49 OFFCURVE",
"176 0 CURVE",
"221 0 OFFCURVE",
"276 19 OFFCURVE",
"295 60 CURVE"
);
}
);
width = 532;
}
);
unicode = 004A;
},
{
glyphname = K;
layers = (
{
anchors = (
{
name = bottom;
position = "{414, 0}";
}
);
layerId = "5FE12265-991D-4E7A-94BF-8B782DB79986";
paths = (
{
closed = 1;
nodes = (
"143 545 LINE",
"113 378 OFFCURVE",
"77 204 OFFCURVE",
"21 56 CURVE",
"46 3 OFFCURVE",
"220 -22 OFFCURVE",
"282 31 CURVE",
"294 194 OFFCURVE",
"298 343 OFFCURVE",
"309 460 CURVE",
"407 747 LINE",
"382 759 OFFCURVE",
"351 765 OFFCURVE",
"314 765 CURVE SMOOTH",
"264 765 OFFCURVE",
"203 752 OFFCURVE",
"143 723 CURVE"
);
},
{
closed = 1;
nodes = (
"275 319 LINE",
"334 348 LINE",
"332 201 OFFCURVE",
"401 76 OFFCURVE",
"552 0 CURVE",
"682 29 OFFCURVE",
"721 139 OFFCURVE",
"683 197 CURVE",
"526 211 OFFCURVE",
"444 272 OFFCURVE",
"394 405 CURVE",
"365 363 LINE",
"495 439 OFFCURVE",
"649 526 OFFCURVE",
"751 600 CURVE",
"761 690 OFFCURVE",
"701 750 OFFCURVE",
"574 765 CURVE",
"432 510 LINE",
"238 386 LINE"
);
}
);
width = 752;
},
{
anchors = (
{
name = bottom;
position = "{275, 0}";
}
);
layerId = "31954392-1C4E-4333-A60C-122C4BAF07AE";
paths = (
{
closed = 1;
nodes = (
"136 497 LINE",
"105 302 OFFCURVE",
"82 217 OFFCURVE",
"37 31 CURVE",
"54 2 OFFCURVE",
"91 -4 OFFCURVE",
"132 0 CURVE",
"148 154 OFFCURVE",
"172 299 OFFCURVE",
"181 401 CURVE",
"256 726 LINE",
"243 732 OFFCURVE",
"232 735 OFFCURVE",
"220 735 CURVE SMOOTH",
"200 735 OFFCURVE",
"179 727 OFFCURVE",
"151 710 CURVE"
);
},
{
closed = 1;
nodes = (
"163 335 LINE",
"195 360 LINE",
"257 210 OFFCURVE",
"356 63 OFFCURVE",
"470 0 CURVE",
"509 15 OFFCURVE",
"528 40 OFFCURVE",
"515 76 CURVE",
"360 140 OFFCURVE",
"278 269 OFFCURVE",
"233 389 CURVE",
"210 364 LINE",
"342 440 OFFCURVE",
"525 607 OFFCURVE",
"592 687 CURVE",
"584 715 OFFCURVE",
"572 730 OFFCURVE",
"536 735 CURVE",
"314 484 LINE",
"148 370 LINE"
);
}
);
width = 588;
}
);
unicode = 004B;
},
{
glyphname = Kcommaaccent;
layers = (
{
layerId = "5FE12265-991D-4E7A-94BF-8B782DB79986";
paths = (
{
closed = 1;
nodes = (
"222 -313 LINE",
"231 -340 OFFCURVE",
"253 -354 OFFCURVE",
"293 -355 CURVE",
"409 -269 OFFCURVE",
"457 -177 OFFCURVE",
"463 -86 CURVE",
"446 -38 OFFCURVE",
"362 20 OFFCURVE",
"268 -51 CURVE",
"285 -220 LINE"
);
},
{
closed = 1;
nodes = (
"143 545 LINE",
"113 378 OFFCURVE",
"77 204 OFFCURVE",
"21 56 CURVE",
"46 3 OFFCURVE",
"220 -22 OFFCURVE",
"282 31 CURVE",
"294 194 OFFCURVE",
"298 343 OFFCURVE",
"309 460 CURVE",
"407 747 LINE",
"382 759 OFFCURVE",
"351 765 OFFCURVE",
"314 765 CURVE SMOOTH",
"264 765 OFFCURVE",
"203 752 OFFCURVE",
"143 723 CURVE"
);
},
{
closed = 1;
nodes = (
"275 319 LINE",
"334 348 LINE",
"332 201 OFFCURVE",
"401 76 OFFCURVE",
"552 0 CURVE",
"682 29 OFFCURVE",
"721 139 OFFCURVE",
"683 197 CURVE",
"526 211 OFFCURVE",
"444 272 OFFCURVE",
"394 405 CURVE",
"365 363 LINE",
"495 439 OFFCURVE",
"649 526 OFFCURVE",
"751 600 CURVE",
"761 690 OFFCURVE",
"701 750 OFFCURVE",
"574 765 CURVE",
"432 510 LINE",
"238 386 LINE"
);
}
);
width = 752;
},
{
layerId = "31954392-1C4E-4333-A60C-122C4BAF07AE";
paths = (
{
closed = 1;
nodes = (
"169 -231 LINE",
"176 -242 OFFCURVE",
"190 -246 OFFCURVE",
"201 -245 CURVE",
"243 -207 OFFCURVE",
"298 -136 OFFCURVE",
"305 -70 CURVE",
"289 -26 OFFCURVE",
"242 -2 OFFCURVE",
"200 -36 CURVE",
"223 -148 LINE"
);
},
{
closed = 1;
nodes = (
"136 497 LINE",
"105 302 OFFCURVE",
"82 217 OFFCURVE",
"37 31 CURVE",
"54 2 OFFCURVE",
"91 -4 OFFCURVE",
"132 0 CURVE",
"148 154 OFFCURVE",
"172 299 OFFCURVE",
"181 401 CURVE",
"256 726 LINE",
"243 732 OFFCURVE",
"232 735 OFFCURVE",
"220 735 CURVE SMOOTH",
"200 735 OFFCURVE",
"179 727 OFFCURVE",
"151 710 CURVE"
);
},
{
closed = 1;
nodes = (
"163 335 LINE",
"195 360 LINE",
"257 210 OFFCURVE",
"356 63 OFFCURVE",
"470 0 CURVE",
"509 15 OFFCURVE",
"528 40 OFFCURVE",
"515 76 CURVE",
"360 140 OFFCURVE",
"278 269 OFFCURVE",
"233 389 CURVE",
"210 364 LINE",
"342 440 OFFCURVE",
"525 607 OFFCURVE",
"592 687 CURVE",
"584 715 OFFCURVE",
"572 730 OFFCURVE",
"536 735 CURVE",
"314 484 LINE",
"148 370 LINE"
);
}
);
width = 588;
}
);
unicode = 0136;
},
{
glyphname = L;
layers = (
{
anchors = (
{
name = bottom;
position = "{384, 0}";
},
{
name = top;
position = "{285, 753}";
}
);
layerId = "5FE12265-991D-4E7A-94BF-8B782DB79986";
paths = (
{
closed = 1;
nodes = (
"419 735 LINE",
"353 767 OFFCURVE",
"246 755 OFFCURVE",
"155 711 CURVE",
"157 541 LINE",
"127 403 OFFCURVE",
"89 277 OFFCURVE",
"35 132 CURVE",
"54 69 OFFCURVE",
"120 25 OFFCURVE",
"195 0 CURVE",
"559 44 LINE",
"590 79 OFFCURVE",
"609 167 OFFCURVE",
"540 196 CURVE",
"450 168 OFFCURVE",
"376 146 OFFCURVE",
"276 127 CURVE",
"314 434 LINE"
);
}
);
width = 631;
},
{
anchors = (
{
name = bottom;
position = "{229, 0}";
},
{
name = top;
position = "{173, 796}";
}
);
layerId = "31954392-1C4E-4333-A60C-122C4BAF07AE";
paths = (
{
closed = 1;
nodes = (
"242 726 LINE",
"208 744 OFFCURVE",
"181 737 OFFCURVE",
"137 710 CURVE",
"124 497 LINE",
"93 334 OFFCURVE",
"65 203 OFFCURVE",
"12 63 CURVE",
"13 31 OFFCURVE",
"42 12 OFFCURVE",
"89 0 CURVE",
"391 31 LINE",
"408 57 OFFCURVE",
"416 100 OFFCURVE",
"387 111 CURVE",
"306 95 OFFCURVE",
"201 76 OFFCURVE",
"98 64 CURVE",
"164 374 LINE"
);
}
);
width = 446;
}
);
unicode = 004C;
},
{
glyphname = Lacute;
layers = (
{
layerId = "5FE12265-991D-4E7A-94BF-8B782DB79986";
paths = (
{
closed = 1;
nodes = (
"419 735 LINE",
"353 767 OFFCURVE",
"246 755 OFFCURVE",
"155 711 CURVE",
"157 541 LINE",
"127 403 OFFCURVE",
"89 277 OFFCURVE",
"35 132 CURVE",
"54 69 OFFCURVE",
"120 25 OFFCURVE",
"195 0 CURVE",
"559 44 LINE",
"590 79 OFFCURVE",
"609 167 OFFCURVE",
"540 196 CURVE",
"450 168 OFFCURVE",
"376 146 OFFCURVE",
"276 127 CURVE",
"314 434 LINE"
);
},
{
closed = 1;
nodes = (
"324 952 LINE",
"249 857 LINE",
"245 825 OFFCURVE",
"292 806 OFFCURVE",
"334 807 CURVE",
"546 987 LINE",
"513 1055 OFFCURVE",
"458 1071 OFFCURVE",
"354 1058 CURVE"
);
}
);
width = 631;
},
{
layerId = "31954392-1C4E-4333-A60C-122C4BAF07AE";
paths = (
{
closed = 1;
nodes = (
"242 726 LINE",
"208 744 OFFCURVE",
"181 737 OFFCURVE",
"137 710 CURVE",
"124 497 LINE",
"93 334 OFFCURVE",
"65 203 OFFCURVE",
"12 63 CURVE",
"13 31 OFFCURVE",
"42 12 OFFCURVE",
"89 0 CURVE",
"391 31 LINE",
"408 57 OFFCURVE",
"416 100 OFFCURVE",
"387 111 CURVE",
"306 95 OFFCURVE",
"201 76 OFFCURVE",
"98 64 CURVE",
"164 374 LINE"
);
},
{
closed = 1;
nodes = (
"227 894 LINE",
"165 801 LINE",
"167 790 OFFCURVE",
"178 784 OFFCURVE",
"198 784 CURVE",
"357 940 LINE",
"356 962 OFFCURVE",
"301 984 OFFCURVE",
"257 972 CURVE"
);
}
);
width = 446;
}
);
unicode = 0139;
},
{
glyphname = Lcaron;
layers = (
{
layerId = "712D9D68-75CB-455F-BBF0-6A9558033E21";
name = "Light Italic Oct 28 14, 11:17";
paths = (
{
closed = 1;
nodes = (
"399 690 OFFCURVE",
"454 761 OFFCURVE",
"461 827 CURVE",
"445 871 OFFCURVE",
"398 895 OFFCURVE",
"356 861 CURVE",
"379 749 LINE",
"325 666 LINE",
"332 655 OFFCURVE",
"346 651 OFFCURVE",
"357 652 CURVE"
);
}
);
width = 446;
},
{
layerId = "975719B3-E082-4404-B156-488762B4AD4B";
name = public.background;
paths = (
{
closed = 1;
nodes = (
"399 690 OFFCURVE",
"454 761 OFFCURVE",
"461 827 CURVE",
"445 871 OFFCURVE",
"398 895 OFFCURVE",
"356 861 CURVE",
"379 749 LINE",
"325 666 LINE",
"332 655 OFFCURVE",
"346 651 OFFCURVE",
"357 652 CURVE"
);
}
);
width = 446;
},
{
layerId = "E80DBF9D-2E7A-4634-81D3-B68D4533EB97";
name = "Bold Italic Oct 28 14, 11:17";
paths = (
{
closed = 1;
nodes = (
"648 667 OFFCURVE",
"696 759 OFFCURVE",
"702 850 CURVE",
"685 898 OFFCURVE",
"601 956 OFFCURVE",
"507 885 CURVE",
"524 716 LINE",
"461 623 LINE",
"470 596 OFFCURVE",
"492 582 OFFCURVE",
"532 581 CURVE"
);
}
);
width = 631;
},
{
layerId = "975719B3-E082-4404-B156-488762B4AD4B";
name = public.background;
paths = (
{
closed = 1;
nodes = (
"648 667 OFFCURVE",
"696 759 OFFCURVE",
"702 850 CURVE",
"685 898 OFFCURVE",
"601 956 OFFCURVE",
"507 885 CURVE",
"524 716 LINE",
"461 623 LINE",
"470 596 OFFCURVE",
"492 582 OFFCURVE",
"532 581 CURVE"
);
}
);
width = 446;
},
{
layerId = "5FE12265-991D-4E7A-94BF-8B782DB79986";
paths = (
{
closed = 1;
nodes = (
"638 607 OFFCURVE",
"686 699 OFFCURVE",
"692 790 CURVE",
"675 838 OFFCURVE",
"591 896 OFFCURVE",
"497 825 CURVE",
"514 656 LINE",
"451 563 LINE",
"460 536 OFFCURVE",
"482 522 OFFCURVE",
"522 521 CURVE"
);
},
{
closed = 1;
nodes = (
"419 735 LINE",
"353 767 OFFCURVE",
"246 755 OFFCURVE",
"155 711 CURVE",
"157 541 LINE",
"127 403 OFFCURVE",
"89 277 OFFCURVE",
"35 132 CURVE",
"54 69 OFFCURVE",
"120 25 OFFCURVE",
"195 0 CURVE",
"559 44 LINE",
"590 79 OFFCURVE",
"609 167 OFFCURVE",
"540 196 CURVE",
"450 168 OFFCURVE",
"376 146 OFFCURVE",
"276 127 CURVE",
"314 434 LINE"
);
}
);
width = 631;
},
{
layerId = "31954392-1C4E-4333-A60C-122C4BAF07AE";
paths = (
{
closed = 1;
nodes = (
"379 640 OFFCURVE",
"434 711 OFFCURVE",
"441 777 CURVE",
"425 821 OFFCURVE",
"378 845 OFFCURVE",
"336 811 CURVE",
"359 699 LINE",
"305 616 LINE",
"312 605 OFFCURVE",
"326 601 OFFCURVE",
"337 602 CURVE"
);
},
{
closed = 1;
nodes = (
"242 726 LINE",
"208 744 OFFCURVE",
"181 737 OFFCURVE",
"137 710 CURVE",
"124 497 LINE",
"93 334 OFFCURVE",
"65 203 OFFCURVE",
"12 63 CURVE",
"13 31 OFFCURVE",
"42 12 OFFCURVE",
"89 0 CURVE",
"391 31 LINE",
"408 57 OFFCURVE",
"416 100 OFFCURVE",
"387 111 CURVE",
"306 95 OFFCURVE",
"201 76 OFFCURVE",
"98 64 CURVE",
"164 374 LINE"
);
}
);
width = 446;
}
);
unicode = 013D;
},
{
glyphname = Lcommaaccent;
layers = (
{
layerId = "5FE12265-991D-4E7A-94BF-8B782DB79986";
paths = (
{
closed = 1;
nodes = (
"162 -313 LINE",
"171 -340 OFFCURVE",
"193 -354 OFFCURVE",
"233 -355 CURVE",
"349 -269 OFFCURVE",
"397 -177 OFFCURVE",
"403 -86 CURVE",
"386 -38 OFFCURVE",
"302 20 OFFCURVE",
"208 -51 CURVE",
"225 -220 LINE"
);
},
{
closed = 1;
nodes = (
"419 735 LINE",
"353 767 OFFCURVE",
"246 755 OFFCURVE",
"155 711 CURVE",
"157 541 LINE",
"127 403 OFFCURVE",
"89 277 OFFCURVE",
"35 132 CURVE",
"54 69 OFFCURVE",
"120 25 OFFCURVE",
"195 0 CURVE",
"559 44 LINE",
"590 79 OFFCURVE",
"609 167 OFFCURVE",
"540 196 CURVE",
"450 168 OFFCURVE",
"376 146 OFFCURVE",
"276 127 CURVE",
"314 434 LINE"
);
}
);
width = 631;
},
{
layerId = "31954392-1C4E-4333-A60C-122C4BAF07AE";
paths = (
{
closed = 1;
nodes = (
"119 -231 LINE",
"126 -242 OFFCURVE",
"140 -246 OFFCURVE",
"151 -245 CURVE",
"193 -207 OFFCURVE",
"248 -136 OFFCURVE",
"255 -70 CURVE",
"239 -26 OFFCURVE",
"192 -2 OFFCURVE",
"150 -36 CURVE",
"173 -148 LINE"
);
},
{
closed = 1;
nodes = (
"242 726 LINE",
"208 744 OFFCURVE",
"181 737 OFFCURVE",
"137 710 CURVE",
"124 497 LINE",
"93 334 OFFCURVE",
"65 203 OFFCURVE",
"12 63 CURVE",
"13 31 OFFCURVE",
"42 12 OFFCURVE",
"89 0 CURVE",
"391 31 LINE",
"408 57 OFFCURVE",
"416 100 OFFCURVE",
"387 111 CURVE",
"306 95 OFFCURVE",
"201 76 OFFCURVE",
"98 64 CURVE",
"164 374 LINE"
);
}
);
width = 446;
}
);
unicode = 013B;
},
{
glyphname = Lslash;
layers = (
{
layerId = "8E19BE74-502D-41B1-8A99-940B686C000D";
name = "Light Italic Oct 28 14, 11:16";
paths = (
{
closed = 1;
nodes = (
"360 373 LINE",
"379 394 OFFCURVE",
"364 423 OFFCURVE",
"345 428 CURVE",
"161 388 LINE",
"52 391 LINE",
"32 378 OFFCURVE",
"37 348 OFFCURVE",
"66 332 CURVE",
"188 352 LINE"
);
}
);
width = 501;
},
{
layerId = "975719B3-E082-4404-B156-488762B4AD4B";
name = public.background;
paths = (
{
closed = 1;
nodes = (
"379 394 OFFCURVE",
"364 423 OFFCURVE",
"345 428 CURVE",
"161 388 LINE",
"52 391 LINE",
"32 378 OFFCURVE",
"37 348 OFFCURVE",
"66 332 CURVE",
"188 352 LINE",
"360 373 LINE"
);
}
);
width = 501;
},
{
layerId = "32217F50-8294-4A7D-914A-DEF473A9DBAE";
name = "Bold Italic Oct 28 14, 11:14";
paths = (
{
closed = 1;
nodes = (
"583 381 LINE",
"637 435 OFFCURVE",
"621 485 OFFCURVE",
"573 507 CURVE",
"217 447 LINE",
"76 465 LINE",
"50 442 OFFCURVE",
"45 392 OFFCURVE",
"88 344 CURVE",
"385 385 LINE"
);
}
);
width = 711;
},
{
layerId = "975719B3-E082-4404-B156-488762B4AD4B";
name = public.background;
paths = (
{
closed = 1;
nodes = (
"637 435 OFFCURVE",
"621 485 OFFCURVE",
"573 507 CURVE",
"217 447 LINE",
"76 465 LINE",
"50 442 OFFCURVE",
"45 392 OFFCURVE",
"88 344 CURVE",
"385 385 LINE",
"583 381 LINE"
);
}
);
width = 501;
},
{
layerId = "5FE12265-991D-4E7A-94BF-8B782DB79986";
paths = (
{
closed = 1;
nodes = (
"587 425 LINE",
"630 488 OFFCURVE",
"604 534 OFFCURVE",
"553 546 CURVE",
"237 437 LINE",
"34 430 LINE",
"13 402 OFFCURVE",
"17 343 OFFCURVE",
"69 304 CURVE",
"360 403 LINE"
);
},
{
closed = 1;
nodes = (
"499 735 LINE",
"433 767 OFFCURVE",
"326 755 OFFCURVE",
"235 711 CURVE",
"237 541 LINE",
"207 403 OFFCURVE",
"169 277 OFFCURVE",
"115 132 CURVE",
"134 69 OFFCURVE",
"200 25 OFFCURVE",
"275 0 CURVE",
"639 44 LINE",
"670 79 OFFCURVE",
"689 167 OFFCURVE",
"620 196 CURVE",
"530 168 OFFCURVE",
"456 146 OFFCURVE",
"356 127 CURVE",
"394 434 LINE"
);
}
);
width = 711;
},
{
layerId = "31954392-1C4E-4333-A60C-122C4BAF07AE";
paths = (
{
closed = 1;
nodes = (
"352 391 LINE",
"369 414 OFFCURVE",
"351 441 OFFCURVE",
"332 444 CURVE",
"153 385 LINE",
"44 376 LINE",
"26 361 OFFCURVE",
"34 332 OFFCURVE",
"64 319 CURVE",
"184 352 LINE"
);
},
{
closed = 1;
nodes = (
"297 726 LINE",
"263 744 OFFCURVE",
"236 737 OFFCURVE",
"192 710 CURVE",
"179 497 LINE",
"148 334 OFFCURVE",
"120 203 OFFCURVE",
"67 63 CURVE",
"68 31 OFFCURVE",
"97 12 OFFCURVE",
"144 0 CURVE",
"446 31 LINE",
"463 57 OFFCURVE",
"471 100 OFFCURVE",
"442 111 CURVE",
"361 95 OFFCURVE",
"256 76 OFFCURVE",
"153 64 CURVE",
"219 374 LINE"
);
}
);
width = 501;
}
);
unicode = 0141;
},
{
glyphname = M;
layers = (
{
layerId = "5FE12265-991D-4E7A-94BF-8B782DB79986";
paths = (
{
closed = 1;
nodes = (
"317 390 OFFCURVE",
"302 496 OFFCURVE",
"290 617 CURVE",
"355 621 LINE",
"299 459 LINE",
"292 348 OFFCURVE",
"283 199 OFFCURVE",
"271 31 CURVE",
"210 -22 OFFCURVE",
"35 3 OFFCURVE",
"11 56 CURVE",
"71 212 OFFCURVE",
"106 385 OFFCURVE",
"134 542 CURVE",
"140 709 LINE",
"188 738 OFFCURVE",
"235 753 OFFCURVE",
"283 753 CURVE SMOOTH",
"325 753 OFFCURVE",
"368 741 OFFCURVE",
"411 715 CURVE",
"414 605 OFFCURVE",
"431 524 OFFCURVE",
"461 390 CURVE",
"518 278 LINE",
"459 249 LINE",
"649 500 LINE",
"754 721 LINE",
"792 736 OFFCURVE",
"839 753 OFFCURVE",
"882 753 CURVE SMOOTH",
"927 753 OFFCURVE",
"967 743 OFFCURVE",
"986 715 CURVE",
"897 454 LINE",
"887 321 OFFCURVE",
"880 181 OFFCURVE",
"872 31 CURVE",
"810 -22 OFFCURVE",
"637 3 OFFCURVE",
"612 56 CURVE",
"665 207 OFFCURVE",
"694 328 OFFCURVE",
"711 435 CURVE",
"737 568 LINE",
"765 526 LINE",
"553 200 LINE",
"483 167 OFFCURVE",
"415 181 OFFCURVE",
"370 229 CURVE"
);
}
);
width = 956;
},
{
layerId = "31954392-1C4E-4333-A60C-122C4BAF07AE";
paths = (
{
closed = 1;
nodes = (
"220 364 OFFCURVE",
"194 505 OFFCURVE",
"177 630 CURVE",
"202 624 LINE",
"158 401 LINE",
"148 299 OFFCURVE",
"124 154 OFFCURVE",
"108 0 CURVE",
"67 -4 OFFCURVE",
"30 2 OFFCURVE",
"13 31 CURVE",
"58 217 OFFCURVE",
"81 302 OFFCURVE",
"112 497 CURVE",
"127 720 LINE",
"146 730 OFFCURVE",
"166 734 OFFCURVE",
"185 734 CURVE SMOOTH",
"202 734 OFFCURVE",
"217 730 OFFCURVE",
"226 719 CURVE",
"235 607 OFFCURVE",
"262 437 OFFCURVE",
"298 340 CURVE",
"364 247 LINE",
"338 237 LINE",
"501 494 LINE",
"618 723 LINE",
"632 728 OFFCURVE",
"652 735 OFFCURVE",
"674 735 CURVE SMOOTH",
"687 735 OFFCURVE",
"700 733 OFFCURVE",
"712 726 CURVE",
"637 401 LINE",
"627 299 OFFCURVE",
"604 154 OFFCURVE",
"588 0 CURVE",
"546 -4 OFFCURVE",
"510 2 OFFCURVE",
"492 31 CURVE",
"536 207 OFFCURVE",
"557 294 OFFCURVE",
"592 497 CURVE",
"595 620 LINE",
"618 599 LINE",
"389 206 LINE",
"346 197 OFFCURVE",
"329 202 OFFCURVE",
"297 225 CURVE"
);
}
);
width = 684;
}
);
unicode = 004D;
},
{
glyphname = N;
layers = (
{
anchors = (
{
name = bottom;
position = "{401, 0}";
},
{
name = top;
position = "{476, 753}";
}
);
layerId = "5FE12265-991D-4E7A-94BF-8B782DB79986";
paths = (
{
closed = 1;
nodes = (
"375 745 OFFCURVE",
"355 753 OFFCURVE",
"316 753 CURVE SMOOTH",
"265 753 OFFCURVE",
"205 745 OFFCURVE",
"133 711 CURVE",
"132 539 LINE",
"107 388 OFFCURVE",
"71 224 OFFCURVE",
"11 56 CURVE",
"34 3 OFFCURVE",
"207 -22 OFFCURVE",
"271 31 CURVE",
"280 177 OFFCURVE",
"289 317 OFFCURVE",
"299 460 CURVE",
"357 629 LINE",
"335 622 LINE",
"339 467 OFFCURVE",
"377 267 OFFCURVE",
"474 45 CURVE",
"535 0 OFFCURVE",
"655 -22 OFFCURVE",
"735 31 CURVE",
"746 192 OFFCURVE",
"756 343 OFFCURVE",
"765 461 CURVE",
"860 734 LINE",
"835 746 OFFCURVE",
"804 752 OFFCURVE",
"766 752 CURVE SMOOTH",
"717 752 OFFCURVE",
"654 739 OFFCURVE",
"595 710 CURVE",
"598 535 LINE",
"575 412 OFFCURVE",
"537 254 OFFCURVE",
"512 146 CURVE",
"541 175 LINE",
"491 282 LINE",
"444 481 OFFCURVE",
"429 599 OFFCURVE",
"405 729 CURVE"
);
}
);
width = 820;
},
{
anchors = (
{
name = bottom;
position = "{301, 0}";
},
{
name = top;
position = "{411, 796}";
}
);
layerId = "31954392-1C4E-4333-A60C-122C4BAF07AE";
paths = (
{
closed = 1;
nodes = (
"219 732 OFFCURVE",
"208 735 OFFCURVE",
"197 735 CURVE SMOOTH",
"176 735 OFFCURVE",
"156 727 OFFCURVE",
"127 710 CURVE",
"110 497 LINE",
"77 302 OFFCURVE",
"54 217 OFFCURVE",
"6 31 CURVE",
"24 2 OFFCURVE",
"60 -4 OFFCURVE",
"102 0 CURVE",
"119 154 OFFCURVE",
"144 299 OFFCURVE",
"154 401 CURVE",
"211 669 LINE",
"184 657 LINE",
"255 431 OFFCURVE",
"326 232 OFFCURVE",
"434 24 CURVE",
"457 3 OFFCURVE",
"492 -3 OFFCURVE",
"528 0 CURVE",
"545 154 OFFCURVE",
"570 299 OFFCURVE",
"581 401 CURVE",
"659 726 LINE",
"646 732 OFFCURVE",
"635 735 OFFCURVE",
"623 735 CURVE SMOOTH",
"603 735 OFFCURVE",
"582 727 OFFCURVE",
"554 710 CURVE",
"537 497 LINE",
"509 314 OFFCURVE",
"484 228 OFFCURVE",
"456 94 CURVE",
"471 112 LINE",
"401 235 LINE",
"338 389 OFFCURVE",
"282 549 OFFCURVE",
"232 726 CURVE"
);
}
);
width = 626;
}
);
unicode = 004E;
},
{
glyphname = Nacute;
layers = (
{
layerId = "5FE12265-991D-4E7A-94BF-8B782DB79986";
paths = (
{
closed = 1;
nodes = (
"375 745 OFFCURVE",
"355 753 OFFCURVE",
"316 753 CURVE SMOOTH",
"265 753 OFFCURVE",
"205 745 OFFCURVE",
"133 711 CURVE",
"132 539 LINE",
"107 388 OFFCURVE",
"71 224 OFFCURVE",
"11 56 CURVE",
"34 3 OFFCURVE",
"207 -22 OFFCURVE",
"271 31 CURVE",
"280 177 OFFCURVE",
"289 317 OFFCURVE",
"299 460 CURVE",
"357 629 LINE",
"335 622 LINE",
"339 467 OFFCURVE",
"377 267 OFFCURVE",
"474 45 CURVE",
"535 0 OFFCURVE",
"655 -22 OFFCURVE",
"735 31 CURVE",
"746 192 OFFCURVE",
"756 343 OFFCURVE",
"765 461 CURVE",
"860 734 LINE",
"835 746 OFFCURVE",
"804 752 OFFCURVE",
"766 752 CURVE SMOOTH",
"717 752 OFFCURVE",
"654 739 OFFCURVE",
"595 710 CURVE",
"598 535 LINE",
"575 412 OFFCURVE",
"537 254 OFFCURVE",
"512 146 CURVE",
"541 175 LINE",
"491 282 LINE",
"444 481 OFFCURVE",
"429 599 OFFCURVE",
"405 729 CURVE"
);
},
{
closed = 1;
nodes = (
"515 952 LINE",
"440 857 LINE",
"436 825 OFFCURVE",
"483 806 OFFCURVE",
"525 807 CURVE",
"737 987 LINE",
"704 1055 OFFCURVE",
"649 1071 OFFCURVE",
"545 1058 CURVE"
);
}
);
width = 820;
},
{
layerId = "31954392-1C4E-4333-A60C-122C4BAF07AE";
paths = (
{
closed = 1;
nodes = (
"219 732 OFFCURVE",
"208 735 OFFCURVE",
"197 735 CURVE SMOOTH",
"176 735 OFFCURVE",
"156 727 OFFCURVE",
"127 710 CURVE",
"110 497 LINE",
"77 302 OFFCURVE",
"54 217 OFFCURVE",
"6 31 CURVE",
"24 2 OFFCURVE",
"60 -4 OFFCURVE",
"102 0 CURVE",
"119 154 OFFCURVE",
"144 299 OFFCURVE",
"154 401 CURVE",
"211 669 LINE",
"184 657 LINE",
"255 431 OFFCURVE",
"326 232 OFFCURVE",
"434 24 CURVE",
"457 3 OFFCURVE",
"492 -3 OFFCURVE",
"528 0 CURVE",
"545 154 OFFCURVE",
"570 299 OFFCURVE",
"581 401 CURVE",
"659 726 LINE",
"646 732 OFFCURVE",
"635 735 OFFCURVE",
"623 735 CURVE SMOOTH",
"603 735 OFFCURVE",
"582 727 OFFCURVE",
"554 710 CURVE",
"537 497 LINE",
"509 314 OFFCURVE",
"484 228 OFFCURVE",
"456 94 CURVE",
"471 112 LINE",
"401 235 LINE",
"338 389 OFFCURVE",
"282 549 OFFCURVE",
"232 726 CURVE"
);
},
{
closed = 1;
nodes = (
"465 894 LINE",
"403 801 LINE",
"405 790 OFFCURVE",
"416 784 OFFCURVE",
"436 784 CURVE",
"595 940 LINE",
"594 962 OFFCURVE",
"539 984 OFFCURVE",
"495 972 CURVE"
);
}
);
width = 626;
}
);
unicode = 0143;
},
{
glyphname = Ncaron;
layers = (
{
layerId = "5FE12265-991D-4E7A-94BF-8B782DB79986";
paths = (
{
closed = 1;
nodes = (
"375 745 OFFCURVE",
"355 753 OFFCURVE",
"316 753 CURVE SMOOTH",
"265 753 OFFCURVE",
"205 745 OFFCURVE",
"133 711 CURVE",
"132 539 LINE",
"107 388 OFFCURVE",
"71 224 OFFCURVE",
"11 56 CURVE",
"34 3 OFFCURVE",
"207 -22 OFFCURVE",
"271 31 CURVE",
"280 177 OFFCURVE",
"289 317 OFFCURVE",
"299 460 CURVE",
"357 629 LINE",
"335 622 LINE",
"339 467 OFFCURVE",
"377 267 OFFCURVE",
"474 45 CURVE",
"535 0 OFFCURVE",
"655 -22 OFFCURVE",
"735 31 CURVE",
"746 192 OFFCURVE",
"756 343 OFFCURVE",
"765 461 CURVE",
"860 734 LINE",
"835 746 OFFCURVE",
"804 752 OFFCURVE",
"766 752 CURVE SMOOTH",
"717 752 OFFCURVE",
"654 739 OFFCURVE",
"595 710 CURVE",
"598 535 LINE",
"575 412 OFFCURVE",
"537 254 OFFCURVE",
"512 146 CURVE",
"541 175 LINE",
"491 282 LINE",
"444 481 OFFCURVE",
"429 599 OFFCURVE",
"405 729 CURVE"
);
},
{
closed = 1;
nodes = (
"418 825 LINE",
"478 793 OFFCURVE",
"560 808 OFFCURVE",
"630 837 CURVE",
"809 1015 LINE",
"777 1079 OFFCURVE",
"666 1057 OFFCURVE",
"634 1048 CURVE",
"498 891 LINE",
"386 1056 LINE",
"344 1066 OFFCURVE",
"300 1047 OFFCURVE",
"286 1017 CURVE"
);
}
);
width = 820;
},
{
layerId = "31954392-1C4E-4333-A60C-122C4BAF07AE";
paths = (
{
closed = 1;
nodes = (
"219 732 OFFCURVE",
"208 735 OFFCURVE",
"197 735 CURVE SMOOTH",
"176 735 OFFCURVE",
"156 727 OFFCURVE",
"127 710 CURVE",
"110 497 LINE",
"77 302 OFFCURVE",
"54 217 OFFCURVE",
"6 31 CURVE",
"24 2 OFFCURVE",
"60 -4 OFFCURVE",
"102 0 CURVE",
"119 154 OFFCURVE",
"144 299 OFFCURVE",
"154 401 CURVE",
"211 669 LINE",
"184 657 LINE",
"255 431 OFFCURVE",
"326 232 OFFCURVE",
"434 24 CURVE",
"457 3 OFFCURVE",
"492 -3 OFFCURVE",
"528 0 CURVE",
"545 154 OFFCURVE",
"570 299 OFFCURVE",
"581 401 CURVE",
"659 726 LINE",
"646 732 OFFCURVE",
"635 735 OFFCURVE",
"623 735 CURVE SMOOTH",
"603 735 OFFCURVE",
"582 727 OFFCURVE",
"554 710 CURVE",
"537 497 LINE",
"509 314 OFFCURVE",
"484 228 OFFCURVE",
"456 94 CURVE",
"471 112 LINE",
"401 235 LINE",
"338 389 OFFCURVE",
"282 549 OFFCURVE",
"232 726 CURVE"
);
},
{
closed = 1;
nodes = (
"358 800 LINE",
"371 790 OFFCURVE",
"400 784 OFFCURVE",
"428 792 CURVE",
"553 908 LINE",
"547 936 OFFCURVE",
"523 945 OFFCURVE",
"489 935 CURVE",
"387 827 LINE",
"337 926 LINE",
"322 932 OFFCURVE",
"306 929 OFFCURVE",
"297 914 CURVE"
);
}
);
width = 626;
}
);
unicode = 0147;
},
{
glyphname = Ncommaaccent;
layers = (
{
layerId = "5FE12265-991D-4E7A-94BF-8B782DB79986";
paths = (
{
closed = 1;
nodes = (
"236 -313 LINE",
"245 -340 OFFCURVE",
"267 -354 OFFCURVE",
"307 -355 CURVE",
"423 -269 OFFCURVE",
"471 -177 OFFCURVE",
"477 -86 CURVE",
"460 -38 OFFCURVE",
"376 20 OFFCURVE",
"282 -51 CURVE",
"299 -220 LINE"
);
},
{
closed = 1;
nodes = (
"375 745 OFFCURVE",
"355 753 OFFCURVE",
"316 753 CURVE SMOOTH",
"265 753 OFFCURVE",
"205 745 OFFCURVE",
"133 711 CURVE",
"132 539 LINE",
"107 388 OFFCURVE",
"71 224 OFFCURVE",
"11 56 CURVE",
"34 3 OFFCURVE",
"207 -22 OFFCURVE",
"271 31 CURVE",
"280 177 OFFCURVE",
"289 317 OFFCURVE",
"299 460 CURVE",
"357 629 LINE",
"335 622 LINE",
"339 467 OFFCURVE",
"377 267 OFFCURVE",
"474 45 CURVE",
"535 0 OFFCURVE",
"655 -22 OFFCURVE",
"735 31 CURVE",
"746 192 OFFCURVE",
"756 343 OFFCURVE",
"765 461 CURVE",
"860 734 LINE",
"835 746 OFFCURVE",
"804 752 OFFCURVE",
"766 752 CURVE SMOOTH",
"717 752 OFFCURVE",
"654 739 OFFCURVE",
"595 710 CURVE",
"598 535 LINE",
"575 412 OFFCURVE",
"537 254 OFFCURVE",
"512 146 CURVE",
"541 175 LINE",
"491 282 LINE",
"444 481 OFFCURVE",
"429 599 OFFCURVE",
"405 729 CURVE"
);
}
);
width = 820;
},
{
layerId = "31954392-1C4E-4333-A60C-122C4BAF07AE";
paths = (
{
closed = 1;
nodes = (
"189 -231 LINE",
"196 -242 OFFCURVE",
"210 -246 OFFCURVE",
"221 -245 CURVE",
"263 -207 OFFCURVE",
"318 -136 OFFCURVE",
"325 -70 CURVE",
"309 -26 OFFCURVE",
"262 -2 OFFCURVE",
"220 -36 CURVE",
"243 -148 LINE"
);
},
{
closed = 1;
nodes = (
"219 732 OFFCURVE",
"208 735 OFFCURVE",
"197 735 CURVE SMOOTH",
"176 735 OFFCURVE",
"156 727 OFFCURVE",
"127 710 CURVE",
"110 497 LINE",
"77 302 OFFCURVE",
"54 217 OFFCURVE",
"6 31 CURVE",
"24 2 OFFCURVE",
"60 -4 OFFCURVE",
"102 0 CURVE",
"119 154 OFFCURVE",
"144 299 OFFCURVE",
"154 401 CURVE",
"211 669 LINE",
"184 657 LINE",
"255 431 OFFCURVE",
"326 232 OFFCURVE",
"434 24 CURVE",
"457 3 OFFCURVE",
"492 -3 OFFCURVE",
"528 0 CURVE",
"545 154 OFFCURVE",
"570 299 OFFCURVE",
"581 401 CURVE",
"659 726 LINE",
"646 732 OFFCURVE",
"635 735 OFFCURVE",
"623 735 CURVE SMOOTH",
"603 735 OFFCURVE",
"582 727 OFFCURVE",
"554 710 CURVE",
"537 497 LINE",
"509 314 OFFCURVE",
"484 228 OFFCURVE",
"456 94 CURVE",
"471 112 LINE",
"401 235 LINE",
"338 389 OFFCURVE",
"282 549 OFFCURVE",
"232 726 CURVE"
);
}
);
width = 626;
}
);
unicode = 0145;
},
{
glyphname = Ntilde;
layers = (
{
layerId = "5FE12265-991D-4E7A-94BF-8B782DB79986";
paths = (
{
closed = 1;
nodes = (
"375 745 OFFCURVE",
"355 753 OFFCURVE",
"316 753 CURVE SMOOTH",
"265 753 OFFCURVE",
"205 745 OFFCURVE",
"133 711 CURVE",
"132 539 LINE",
"107 388 OFFCURVE",
"71 224 OFFCURVE",
"11 56 CURVE",
"34 3 OFFCURVE",
"207 -22 OFFCURVE",
"271 31 CURVE",
"280 177 OFFCURVE",
"289 317 OFFCURVE",
"299 460 CURVE",
"357 629 LINE",
"335 622 LINE",
"339 467 OFFCURVE",
"377 267 OFFCURVE",
"474 45 CURVE",
"535 0 OFFCURVE",
"655 -22 OFFCURVE",
"735 31 CURVE",
"746 192 OFFCURVE",
"756 343 OFFCURVE",
"765 461 CURVE",
"860 734 LINE",
"835 746 OFFCURVE",
"804 752 OFFCURVE",
"766 752 CURVE SMOOTH",
"717 752 OFFCURVE",
"654 739 OFFCURVE",
"595 710 CURVE",
"598 535 LINE",
"575 412 OFFCURVE",
"537 254 OFFCURVE",
"512 146 CURVE",
"541 175 LINE",
"491 282 LINE",
"444 481 OFFCURVE",
"429 599 OFFCURVE",
"405 729 CURVE"
);
},
{
closed = 1;
nodes = (
"351 969 OFFCURVE",
"313 941 OFFCURVE",
"255 871 CURVE",
"251 826 OFFCURVE",
"311 800 OFFCURVE",
"350 809 CURVE",
"424 897 LINE",
"432 899 LINE",
"475 862 OFFCURVE",
"525 821 OFFCURVE",
"639 807 CURVE",
"728 836 OFFCURVE",
"786 907 OFFCURVE",
"818 955 CURVE",
"821 992 OFFCURVE",
"777 1012 OFFCURVE",
"733 1004 CURVE",
"662 908 LINE",
"657 908 LINE",
"621 940 OFFCURVE",
"545 993 OFFCURVE",
"429 1015 CURVE"
);
}
);
width = 820;
},
{
layerId = "31954392-1C4E-4333-A60C-122C4BAF07AE";
paths = (
{
closed = 1;
nodes = (
"219 732 OFFCURVE",
"208 735 OFFCURVE",
"197 735 CURVE SMOOTH",
"176 735 OFFCURVE",
"156 727 OFFCURVE",
"127 710 CURVE",
"110 497 LINE",
"77 302 OFFCURVE",
"54 217 OFFCURVE",
"6 31 CURVE",
"24 2 OFFCURVE",
"60 -4 OFFCURVE",
"102 0 CURVE",
"119 154 OFFCURVE",
"144 299 OFFCURVE",
"154 401 CURVE",
"211 669 LINE",
"184 657 LINE",
"255 431 OFFCURVE",
"326 232 OFFCURVE",
"434 24 CURVE",
"457 3 OFFCURVE",
"492 -3 OFFCURVE",
"528 0 CURVE",
"545 154 OFFCURVE",
"570 299 OFFCURVE",
"581 401 CURVE",
"659 726 LINE",
"646 732 OFFCURVE",
"635 735 OFFCURVE",
"623 735 CURVE SMOOTH",
"603 735 OFFCURVE",
"582 727 OFFCURVE",
"554 710 CURVE",
"537 497 LINE",
"509 314 OFFCURVE",
"484 228 OFFCURVE",
"456 94 CURVE",
"471 112 LINE",
"401 235 LINE",
"338 389 OFFCURVE",
"282 549 OFFCURVE",
"232 726 CURVE"
);
},
{
closed = 1;
nodes = (
"304 895 OFFCURVE",
"271 851 OFFCURVE",
"249 820 CURVE",
"248 804 OFFCURVE",
"267 790 OFFCURVE",
"292 791 CURVE",
"344 862 LINE",
"349 864 LINE",
"371 828 OFFCURVE",
"407 809 OFFCURVE",
"471 787 CURVE",
"529 817 OFFCURVE",
"562 845 OFFCURVE",
"582 879 CURVE",
"588 899 OFFCURVE",
"568 914 OFFCURVE",
"540 908 CURVE",
"481 839 LINE",
"477 840 LINE",
"456 872 OFFCURVE",
"427 891 OFFCURVE",
"369 915 CURVE"
);
}
);
width = 626;
}
);
unicode = 00D1;
},
{
glyphname = O;
layers = (
{
anchors = (
{
name = bottom;
position = "{243, 0}";
},
{
name = top;
position = "{444, 753}";
}
);
layerId = "5FE12265-991D-4E7A-94BF-8B782DB79986";
paths = (
{
closed = 1;
nodes = (
"226 768 OFFCURVE",
"39 543 OFFCURVE",
"39 326 CURVE SMOOTH",
"39 168 OFFCURVE",
"209 0 OFFCURVE",
"340 0 CURVE SMOOTH",
"537 0 OFFCURVE",
"749 216 OFFCURVE",
"746 425 CURVE SMOOTH",
"743 603 OFFCURVE",
"564 768 OFFCURVE",
"448 768 CURVE SMOOTH"
);
},
{
closed = 1;
nodes = (
"504 564 OFFCURVE",
"522 481 OFFCURVE",
"532 377 CURVE",
"508 277 OFFCURVE",
"430 173 OFFCURVE",
"343 109 CURVE",
"300 173 OFFCURVE",
"266 248 OFFCURVE",
"266 339 CURVE SMOOTH",
"266 438 OFFCURVE",
"341 583 OFFCURVE",
"437 660 CURVE"
);
}
);
width = 741;
},
{
anchors = (
{
name = bottom;
position = "{248, 0}";
},
{
name = top;
position = "{416, 798}";
}
);
layerId = "31954392-1C4E-4333-A60C-122C4BAF07AE";
paths = (
{
closed = 1;
nodes = (
"234 735 OFFCURVE",
"51 517 OFFCURVE",
"53 297 CURVE SMOOTH",
"54 180 OFFCURVE",
"156 0 OFFCURVE",
"275 0 CURVE SMOOTH",
"386 0 OFFCURVE",
"588 232 OFFCURVE",
"586 363 CURVE SMOOTH",
"584 539 OFFCURVE",
"486 735 OFFCURVE",
"395 735 CURVE SMOOTH"
);
},
{
closed = 1;
nodes = (
"469 606 OFFCURVE",
"499 492 OFFCURVE",
"515 359 CURVE",
"470 228 OFFCURVE",
"408 130 OFFCURVE",
"272 52 CURVE",
"177 99 OFFCURVE",
"131 212 OFFCURVE",
"130 314 CURVE",
"130 472 OFFCURVE",
"235 612 OFFCURVE",
"389 684 CURVE"
);
}
);
width = 607;
}
);
unicode = 004F;
},
{
glyphname = Oacute;
layers = (
{
layerId = "5FE12265-991D-4E7A-94BF-8B782DB79986";
paths = (
{
closed = 1;
nodes = (
"226 768 OFFCURVE",
"39 543 OFFCURVE",
"39 326 CURVE SMOOTH",
"39 168 OFFCURVE",
"209 0 OFFCURVE",
"340 0 CURVE SMOOTH",
"537 0 OFFCURVE",
"749 216 OFFCURVE",
"746 425 CURVE SMOOTH",
"743 603 OFFCURVE",
"564 768 OFFCURVE",
"448 768 CURVE SMOOTH"
);
},
{
closed = 1;
nodes = (
"504 564 OFFCURVE",
"522 481 OFFCURVE",
"532 377 CURVE",
"508 277 OFFCURVE",
"430 173 OFFCURVE",
"343 109 CURVE",
"300 173 OFFCURVE",
"266 248 OFFCURVE",
"266 339 CURVE SMOOTH",
"266 438 OFFCURVE",
"341 583 OFFCURVE",
"437 660 CURVE"
);
},
{
closed = 1;
nodes = (
"483 952 LINE",
"408 857 LINE",
"404 825 OFFCURVE",
"451 806 OFFCURVE",
"493 807 CURVE",
"705 987 LINE",
"672 1055 OFFCURVE",
"617 1071 OFFCURVE",
"513 1058 CURVE"
);
}
);
width = 741;
},
{
layerId = "31954392-1C4E-4333-A60C-122C4BAF07AE";
paths = (
{
closed = 1;
nodes = (
"234 735 OFFCURVE",
"51 517 OFFCURVE",
"53 297 CURVE SMOOTH",
"54 180 OFFCURVE",
"156 0 OFFCURVE",
"275 0 CURVE SMOOTH",
"386 0 OFFCURVE",
"588 232 OFFCURVE",
"586 363 CURVE SMOOTH",
"584 539 OFFCURVE",
"486 735 OFFCURVE",
"395 735 CURVE SMOOTH"
);
},
{
closed = 1;
nodes = (
"469 606 OFFCURVE",
"499 492 OFFCURVE",
"515 359 CURVE",
"470 228 OFFCURVE",
"408 130 OFFCURVE",
"272 52 CURVE",
"177 99 OFFCURVE",
"131 212 OFFCURVE",
"130 314 CURVE",
"130 472 OFFCURVE",
"235 612 OFFCURVE",
"389 684 CURVE"
);
},
{
closed = 1;
nodes = (
"470 896 LINE",
"408 803 LINE",
"410 792 OFFCURVE",
"421 786 OFFCURVE",
"441 786 CURVE",
"600 942 LINE",
"599 964 OFFCURVE",
"544 986 OFFCURVE",
"500 974 CURVE"
);
}
);
width = 607;
}
);
unicode = 00D3;
},
{
glyphname = Ocircumflex;
layers = (
{
layerId = "5FE12265-991D-4E7A-94BF-8B782DB79986";
paths = (
{
closed = 1;
nodes = (
"226 768 OFFCURVE",
"39 543 OFFCURVE",
"39 326 CURVE SMOOTH",
"39 168 OFFCURVE",
"209 0 OFFCURVE",
"340 0 CURVE SMOOTH",
"537 0 OFFCURVE",
"749 216 OFFCURVE",
"746 425 CURVE SMOOTH",
"743 603 OFFCURVE",
"564 768 OFFCURVE",
"448 768 CURVE SMOOTH"
);
},
{
closed = 1;
nodes = (
"504 564 OFFCURVE",
"522 481 OFFCURVE",
"532 377 CURVE",
"508 277 OFFCURVE",
"430 173 OFFCURVE",
"343 109 CURVE",
"300 173 OFFCURVE",
"266 248 OFFCURVE",
"266 339 CURVE SMOOTH",
"266 438 OFFCURVE",
"341 583 OFFCURVE",
"437 660 CURVE"
);
},
{
closed = 1;
nodes = (
"208 855 LINE",
"212 822 OFFCURVE",
"252 806 OFFCURVE",
"300 808 CURVE",
"467 955 LINE",
"530 827 LINE",
"570 810 OFFCURVE",
"667 785 OFFCURVE",
"739 847 CURVE",
"628 1026 LINE",
"574 1057 OFFCURVE",
"509 1067 OFFCURVE",
"423 1053 CURVE"
);
}
);
width = 741;
},
{
layerId = "31954392-1C4E-4333-A60C-122C4BAF07AE";
paths = (
{
closed = 1;
nodes = (
"234 735 OFFCURVE",
"51 517 OFFCURVE",
"53 297 CURVE SMOOTH",
"54 180 OFFCURVE",
"156 0 OFFCURVE",
"275 0 CURVE SMOOTH",
"386 0 OFFCURVE",
"588 232 OFFCURVE",
"586 363 CURVE SMOOTH",
"584 539 OFFCURVE",
"486 735 OFFCURVE",
"395 735 CURVE SMOOTH"
);
},
{
closed = 1;
nodes = (
"469 606 OFFCURVE",
"499 492 OFFCURVE",
"515 359 CURVE",
"470 228 OFFCURVE",
"408 130 OFFCURVE",
"272 52 CURVE",
"177 99 OFFCURVE",
"131 212 OFFCURVE",
"130 314 CURVE",
"130 472 OFFCURVE",
"235 612 OFFCURVE",
"389 684 CURVE"
);
},
{
closed = 1;
nodes = (
"287 820 LINE",
"289 802 OFFCURVE",
"304 796 OFFCURVE",
"317 794 CURVE",
"443 905 LINE",
"494 797 LINE",
"509 787 OFFCURVE",
"541 783 OFFCURVE",
"564 804 CURVE",
"498 942 LINE",
"482 954 OFFCURVE",
"455 957 OFFCURVE",
"428 950 CURVE"
);
}
);
width = 607;
}
);
unicode = 00D4;
},
{
glyphname = Odieresis;
layers = (
{
layerId = "5FE12265-991D-4E7A-94BF-8B782DB79986";
paths = (
{
closed = 1;
nodes = (
"226 768 OFFCURVE",
"39 543 OFFCURVE",
"39 326 CURVE SMOOTH",
"39 168 OFFCURVE",
"209 0 OFFCURVE",
"340 0 CURVE SMOOTH",
"537 0 OFFCURVE",
"749 216 OFFCURVE",
"746 425 CURVE SMOOTH",
"743 603 OFFCURVE",
"564 768 OFFCURVE",
"448 768 CURVE SMOOTH"
);
},
{
closed = 1;
nodes = (
"504 564 OFFCURVE",
"522 481 OFFCURVE",
"532 377 CURVE",
"508 277 OFFCURVE",
"430 173 OFFCURVE",
"343 109 CURVE",
"300 173 OFFCURVE",
"266 248 OFFCURVE",
"266 339 CURVE SMOOTH",
"266 438 OFFCURVE",
"341 583 OFFCURVE",
"437 660 CURVE"
);
},
{
closed = 1;
nodes = (
"232 870 OFFCURVE",
"277 826 OFFCURVE",
"332 826 CURVE SMOOTH",
"386 826 OFFCURVE",
"429 870 OFFCURVE",
"429 923 CURVE SMOOTH",
"429 975 OFFCURVE",
"386 1018 OFFCURVE",
"332 1018 CURVE SMOOTH",
"277 1018 OFFCURVE",
"232 975 OFFCURVE",
"232 923 CURVE SMOOTH"
);
},
{
closed = 1;
nodes = (
"711 975 OFFCURVE",
"668 1018 OFFCURVE",
"615 1018 CURVE SMOOTH",
"560 1018 OFFCURVE",
"514 975 OFFCURVE",
"514 923 CURVE SMOOTH",
"514 870 OFFCURVE",
"560 826 OFFCURVE",
"615 826 CURVE SMOOTH",
"668 826 OFFCURVE",
"711 870 OFFCURVE",
"711 923 CURVE SMOOTH"
);
}
);
width = 741;
},
{
layerId = "31954392-1C4E-4333-A60C-122C4BAF07AE";
paths = (
{
closed = 1;
nodes = (
"234 735 OFFCURVE",
"51 517 OFFCURVE",
"53 297 CURVE SMOOTH",
"54 180 OFFCURVE",
"156 0 OFFCURVE",
"275 0 CURVE SMOOTH",
"386 0 OFFCURVE",
"588 232 OFFCURVE",
"586 363 CURVE SMOOTH",
"584 539 OFFCURVE",
"486 735 OFFCURVE",
"395 735 CURVE SMOOTH"
);
},
{
closed = 1;
nodes = (
"469 606 OFFCURVE",
"499 492 OFFCURVE",
"515 359 CURVE",
"470 228 OFFCURVE",
"408 130 OFFCURVE",
"272 52 CURVE",
"177 99 OFFCURVE",
"131 212 OFFCURVE",
"130 314 CURVE",
"130 472 OFFCURVE",
"235 612 OFFCURVE",
"389 684 CURVE"
);
},
{
closed = 1;
nodes = (
"281 835 OFFCURVE",
"301 813 OFFCURVE",
"328 813 CURVE SMOOTH",
"354 813 OFFCURVE",
"375 835 OFFCURVE",
"375 860 CURVE SMOOTH",
"375 887 OFFCURVE",
"354 907 OFFCURVE",
"328 907 CURVE SMOOTH",
"301 907 OFFCURVE",
"281 887 OFFCURVE",
"281 860 CURVE SMOOTH"
);
},
{
closed = 1;
nodes = (
"537 887 OFFCURVE",
"516 907 OFFCURVE",
"490 907 CURVE SMOOTH",
"463 907 OFFCURVE",
"443 887 OFFCURVE",
"443 860 CURVE SMOOTH",
"443 835 OFFCURVE",
"463 813 OFFCURVE",
"490 813 CURVE SMOOTH",
"516 813 OFFCURVE",
"537 835 OFFCURVE",
"537 860 CURVE SMOOTH"
);
}
);
width = 607;
}
);
unicode = 00D6;
},
{
glyphname = Ograve;
layers = (
{
layerId = "5FE12265-991D-4E7A-94BF-8B782DB79986";
paths = (
{
closed = 1;
nodes = (
"226 768 OFFCURVE",
"39 543 OFFCURVE",
"39 326 CURVE SMOOTH",
"39 168 OFFCURVE",
"209 0 OFFCURVE",
"340 0 CURVE SMOOTH",
"537 0 OFFCURVE",
"749 216 OFFCURVE",
"746 425 CURVE SMOOTH",
"743 603 OFFCURVE",
"564 768 OFFCURVE",
"448 768 CURVE SMOOTH"
);
},
{
closed = 1;
nodes = (
"504 564 OFFCURVE",
"522 481 OFFCURVE",
"532 377 CURVE",
"508 277 OFFCURVE",
"430 173 OFFCURVE",
"343 109 CURVE",
"300 173 OFFCURVE",
"266 248 OFFCURVE",
"266 339 CURVE SMOOTH",
"266 438 OFFCURVE",
"341 583 OFFCURVE",
"437 660 CURVE"
);
},
{
closed = 1;
nodes = (
"492 1045 LINE",
"452 1072 OFFCURVE",
"341 1065 OFFCURVE",
"300 986 CURVE",
"387 915 LINE",
"459 813 LINE",
"494 799 OFFCURVE",
"543 813 OFFCURVE",
"563 842 CURVE"
);
}
);
width = 741;
},
{
layerId = "31954392-1C4E-4333-A60C-122C4BAF07AE";
paths = (
{
closed = 1;
nodes = (
"234 735 OFFCURVE",
"51 517 OFFCURVE",
"53 297 CURVE SMOOTH",
"54 180 OFFCURVE",
"156 0 OFFCURVE",
"275 0 CURVE SMOOTH",
"386 0 OFFCURVE",
"588 232 OFFCURVE",
"586 363 CURVE SMOOTH",
"584 539 OFFCURVE",
"486 735 OFFCURVE",
"395 735 CURVE SMOOTH"
);
},
{
closed = 1;
nodes = (
"469 606 OFFCURVE",
"499 492 OFFCURVE",
"515 359 CURVE",
"470 228 OFFCURVE",
"408 130 OFFCURVE",
"272 52 CURVE",
"177 99 OFFCURVE",
"131 212 OFFCURVE",
"130 314 CURVE",
"130 472 OFFCURVE",
"235 612 OFFCURVE",
"389 684 CURVE"
);
},
{
closed = 1;
nodes = (
"358 991 LINE",
"315 1000 OFFCURVE",
"278 987 OFFCURVE",
"268 951 CURVE",
"354 863 LINE",
"405 790 LINE",
"424 788 OFFCURVE",
"436 793 OFFCURVE",
"439 804 CURVE"
);
}
);
width = 607;
}
);
unicode = 00D2;
},
{
glyphname = Ohungarumlaut;
layers = (
{
layerId = "5FE12265-991D-4E7A-94BF-8B782DB79986";
paths = (
{
closed = 1;
nodes = (
"226 768 OFFCURVE",
"39 543 OFFCURVE",
"39 326 CURVE SMOOTH",
"39 168 OFFCURVE",
"209 0 OFFCURVE",
"340 0 CURVE SMOOTH",
"537 0 OFFCURVE",
"749 216 OFFCURVE",
"746 425 CURVE SMOOTH",
"743 603 OFFCURVE",
"564 768 OFFCURVE",
"448 768 CURVE SMOOTH"
);
},
{
closed = 1;
nodes = (
"504 564 OFFCURVE",
"522 481 OFFCURVE",
"532 377 CURVE",
"508 277 OFFCURVE",
"430 173 OFFCURVE",
"343 109 CURVE",
"300 173 OFFCURVE",
"266 248 OFFCURVE",
"266 339 CURVE SMOOTH",
"266 438 OFFCURVE",
"341 583 OFFCURVE",
"437 660 CURVE"
);
},
{
closed = 1;
nodes = (
"254 816 LINE",
"288 803 OFFCURVE",
"332 803 OFFCURVE",
"370 806 CURVE",
"474 931 LINE",
"509 1004 LINE",
"476 1014 OFFCURVE",
"416 1014 OFFCURVE",
"343 1004 CURVE"
);
},
{
closed = 1;
nodes = (
"470 816 LINE",
"500 803 OFFCURVE",
"540 803 OFFCURVE",
"573 806 CURVE",
"687 931 LINE",
"722 1004 LINE",
"690 1014 OFFCURVE",
"629 1014 OFFCURVE",
"555 1004 CURVE"
);
}
);
width = 741;
},
{
layerId = "31954392-1C4E-4333-A60C-122C4BAF07AE";
paths = (
{
closed = 1;
nodes = (
"234 735 OFFCURVE",
"51 517 OFFCURVE",
"53 297 CURVE SMOOTH",
"54 180 OFFCURVE",
"156 0 OFFCURVE",
"275 0 CURVE SMOOTH",
"386 0 OFFCURVE",
"588 232 OFFCURVE",
"586 363 CURVE SMOOTH",
"584 539 OFFCURVE",
"486 735 OFFCURVE",
"395 735 CURVE SMOOTH"
);
},
{
closed = 1;
nodes = (
"469 606 OFFCURVE",
"499 492 OFFCURVE",
"515 359 CURVE",
"470 228 OFFCURVE",
"408 130 OFFCURVE",
"272 52 CURVE",
"177 99 OFFCURVE",
"131 212 OFFCURVE",
"130 314 CURVE",
"130 472 OFFCURVE",
"235 612 OFFCURVE",
"389 684 CURVE"
);
},
{
closed = 1;
nodes = (
"320 798 LINE",
"327 793 OFFCURVE",
"339 788 OFFCURVE",
"357 790 CURVE",
"437 898 LINE",
"463 951 LINE",
"452 960 OFFCURVE",
"418 961 OFFCURVE",
"396 951 CURVE"
);
},
{
closed = 1;
nodes = (
"450 798 LINE",
"456 793 OFFCURVE",
"469 788 OFFCURVE",
"486 790 CURVE",
"566 898 LINE",
"592 951 LINE",
"581 960 OFFCURVE",
"548 961 OFFCURVE",
"525 951 CURVE"
);
}
);
width = 607;
}
);
unicode = 0150;
},
{
glyphname = Omacron;
layers = (
{
layerId = "5FE12265-991D-4E7A-94BF-8B782DB79986";
paths = (
{
closed = 1;
nodes = (
"226 768 OFFCURVE",
"39 543 OFFCURVE",
"39 326 CURVE SMOOTH",
"39 168 OFFCURVE",
"209 0 OFFCURVE",
"340 0 CURVE SMOOTH",
"537 0 OFFCURVE",
"749 216 OFFCURVE",
"746 425 CURVE SMOOTH",
"743 603 OFFCURVE",
"564 768 OFFCURVE",
"448 768 CURVE SMOOTH"
);
},
{
closed = 1;
nodes = (
"504 564 OFFCURVE",
"522 481 OFFCURVE",
"532 377 CURVE",
"508 277 OFFCURVE",
"430 173 OFFCURVE",
"343 109 CURVE",
"300 173 OFFCURVE",
"266 248 OFFCURVE",
"266 339 CURVE SMOOTH",
"266 438 OFFCURVE",
"341 583 OFFCURVE",
"437 660 CURVE"
);
},
{
closed = 1;
nodes = (
"476 889 LINE",
"285 894 LINE",
"260 858 OFFCURVE",
"256 832 OFFCURVE",
"271 813 CURVE",
"655 825 LINE",
"687 864 OFFCURVE",
"691 897 OFFCURVE",
"671 909 CURVE"
);
}
);
width = 741;
},
{
layerId = "31954392-1C4E-4333-A60C-122C4BAF07AE";
paths = (
{
closed = 1;
nodes = (
"234 735 OFFCURVE",
"51 517 OFFCURVE",
"53 297 CURVE SMOOTH",
"54 180 OFFCURVE",
"156 0 OFFCURVE",
"275 0 CURVE SMOOTH",
"386 0 OFFCURVE",
"588 232 OFFCURVE",
"586 363 CURVE SMOOTH",
"584 539 OFFCURVE",
"486 735 OFFCURVE",
"395 735 CURVE SMOOTH"
);
},
{
closed = 1;
nodes = (
"469 606 OFFCURVE",
"499 492 OFFCURVE",
"515 359 CURVE",
"470 228 OFFCURVE",
"408 130 OFFCURVE",
"272 52 CURVE",
"177 99 OFFCURVE",
"131 212 OFFCURVE",
"130 314 CURVE",
"130 472 OFFCURVE",
"235 612 OFFCURVE",
"389 684 CURVE"
);
},
{
closed = 1;
nodes = (
"413 869 LINE",
"261 874 LINE",
"240 848 OFFCURVE",
"236 829 OFFCURVE",
"250 815 CURVE",
"536 823 LINE",
"562 852 OFFCURVE",
"567 875 OFFCURVE",
"551 884 CURVE"
);
}
);
width = 607;
}
);
unicode = 014C;
},
{
glyphname = Oslash;
layers = (
{
layerId = "5FE12265-991D-4E7A-94BF-8B782DB79986";
paths = (
{
closed = 1;
nodes = (
"834 653 LINE",
"828 716 OFFCURVE",
"787 747 OFFCURVE",
"701 752 CURVE",
"571 525 LINE",
"-4 112 LINE",
"0 50 OFFCURVE",
"36 24 OFFCURVE",
"116 0 CURVE",
"223 184 LINE"
);
},
{
closed = 1;
nodes = (
"240 768 OFFCURVE",
"53 543 OFFCURVE",
"53 326 CURVE SMOOTH",
"53 168 OFFCURVE",
"223 0 OFFCURVE",
"354 0 CURVE SMOOTH",
"551 0 OFFCURVE",
"763 216 OFFCURVE",
"760 425 CURVE SMOOTH",
"757 603 OFFCURVE",
"578 768 OFFCURVE",
"462 768 CURVE SMOOTH"
);
},
{
closed = 1;
nodes = (
"280 438 OFFCURVE",
"355 583 OFFCURVE",
"451 660 CURVE",
"518 564 OFFCURVE",
"536 481 OFFCURVE",
"546 377 CURVE",
"522 277 OFFCURVE",
"444 173 OFFCURVE",
"357 109 CURVE",
"314 173 OFFCURVE",
"280 248 OFFCURVE",
"280 339 CURVE SMOOTH"
);
}
);
width = 783;
},
{
layerId = "31954392-1C4E-4333-A60C-122C4BAF07AE";
paths = (
{
closed = 1;
nodes = (
"741 665 LINE",
"739 699 OFFCURVE",
"705 724 OFFCURVE",
"659 733 CURVE",
"550 557 LINE",
"6 72 LINE",
"6 29 OFFCURVE",
"35 10 OFFCURVE",
"81 0 CURVE",
"186 165 LINE"
);
},
{
closed = 1;
nodes = (
"269 735 OFFCURVE",
"85 517 OFFCURVE",
"87 297 CURVE SMOOTH",
"89 180 OFFCURVE",
"190 0 OFFCURVE",
"310 0 CURVE SMOOTH",
"420 0 OFFCURVE",
"622 232 OFFCURVE",
"621 363 CURVE SMOOTH",
"619 539 OFFCURVE",
"521 735 OFFCURVE",
"430 735 CURVE SMOOTH"
);
},
{
closed = 1;
nodes = (
"164 472 OFFCURVE",
"270 612 OFFCURVE",
"423 684 CURVE",
"503 606 OFFCURVE",
"534 492 OFFCURVE",
"550 359 CURVE",
"504 228 OFFCURVE",
"443 130 OFFCURVE",
"307 52 CURVE",
"212 99 OFFCURVE",
"165 212 OFFCURVE",
"164 314 CURVE"
);
}
);
width = 705;
}
);
unicode = 00D8;
},
{
glyphname = Otilde;
layers = (
{
layerId = "5FE12265-991D-4E7A-94BF-8B782DB79986";
paths = (
{
closed = 1;
nodes = (
"226 768 OFFCURVE",
"39 543 OFFCURVE",
"39 326 CURVE SMOOTH",
"39 168 OFFCURVE",
"209 0 OFFCURVE",
"340 0 CURVE SMOOTH",
"537 0 OFFCURVE",
"749 216 OFFCURVE",
"746 425 CURVE SMOOTH",
"743 603 OFFCURVE",
"564 768 OFFCURVE",
"448 768 CURVE SMOOTH"
);
},
{
closed = 1;
nodes = (
"504 564 OFFCURVE",
"522 481 OFFCURVE",
"532 377 CURVE",
"508 277 OFFCURVE",
"430 173 OFFCURVE",
"343 109 CURVE",
"300 173 OFFCURVE",
"266 248 OFFCURVE",
"266 339 CURVE SMOOTH",
"266 438 OFFCURVE",
"341 583 OFFCURVE",
"437 660 CURVE"
);
},
{
closed = 1;
nodes = (
"319 969 OFFCURVE",
"281 941 OFFCURVE",
"223 871 CURVE",
"219 826 OFFCURVE",
"279 800 OFFCURVE",
"318 809 CURVE",
"392 897 LINE",
"400 899 LINE",
"443 862 OFFCURVE",
"493 821 OFFCURVE",
"607 807 CURVE",
"696 836 OFFCURVE",
"754 907 OFFCURVE",
"786 955 CURVE",
"789 992 OFFCURVE",
"745 1012 OFFCURVE",
"701 1004 CURVE",
"630 908 LINE",
"625 908 LINE",
"589 940 OFFCURVE",
"513 993 OFFCURVE",
"397 1015 CURVE"
);
}
);
width = 741;
},
{
layerId = "31954392-1C4E-4333-A60C-122C4BAF07AE";
paths = (
{
closed = 1;
nodes = (
"234 735 OFFCURVE",
"51 517 OFFCURVE",
"53 297 CURVE SMOOTH",
"54 180 OFFCURVE",
"156 0 OFFCURVE",
"275 0 CURVE SMOOTH",
"386 0 OFFCURVE",
"588 232 OFFCURVE",
"586 363 CURVE SMOOTH",
"584 539 OFFCURVE",
"486 735 OFFCURVE",
"395 735 CURVE SMOOTH"
);
},
{
closed = 1;
nodes = (
"469 606 OFFCURVE",
"499 492 OFFCURVE",
"515 359 CURVE",
"470 228 OFFCURVE",
"408 130 OFFCURVE",
"272 52 CURVE",
"177 99 OFFCURVE",
"131 212 OFFCURVE",
"130 314 CURVE",
"130 472 OFFCURVE",
"235 612 OFFCURVE",
"389 684 CURVE"
);
},
{
closed = 1;
nodes = (
"309 897 OFFCURVE",
"276 853 OFFCURVE",
"254 822 CURVE",
"253 806 OFFCURVE",
"272 792 OFFCURVE",
"297 793 CURVE",
"349 864 LINE",
"354 866 LINE",
"376 830 OFFCURVE",
"412 811 OFFCURVE",
"476 789 CURVE",
"534 819 OFFCURVE",
"567 847 OFFCURVE",
"587 881 CURVE",
"593 901 OFFCURVE",
"573 916 OFFCURVE",
"545 910 CURVE",
"486 841 LINE",
"482 842 LINE",
"461 874 OFFCURVE",
"432 893 OFFCURVE",
"374 917 CURVE"
);
}
);
width = 607;
}
);
unicode = 00D5;
},
{
glyphname = OE;
layers = (
{
layerId = "5FE12265-991D-4E7A-94BF-8B782DB79986";
paths = (
{
closed = 1;
nodes = (
"891 762 OFFCURVE",
"751 760 OFFCURVE",
"616 710 CURVE",
"572 735 OFFCURVE",
"513 768 OFFCURVE",
"448 768 CURVE SMOOTH",
"226 768 OFFCURVE",
"39 543 OFFCURVE",
"39 326 CURVE SMOOTH",
"39 168 OFFCURVE",
"209 0 OFFCURVE",
"340 0 CURVE SMOOTH",
"401 0 OFFCURVE",
"467 31 OFFCURVE",
"507 54 CURVE",
"545 28 OFFCURVE",
"575 13 OFFCURVE",
"633 1 CURVE",
"1007 25 LINE",
"1050 77 OFFCURVE",
"1072 165 OFFCURVE",
"996 189 CURVE",
"895 162 OFFCURVE",
"779 139 OFFCURVE",
"680 123 CURVE",
"702 326 LINE",
"783 324 OFFCURVE",
"878 318 OFFCURVE",
"950 311 CURVE",
"975 355 OFFCURVE",
"992 417 OFFCURVE",
"949 450 CURVE",
"875 444 OFFCURVE",
"789 432 OFFCURVE",
"716 421 CURVE",
"746 583 LINE",
"784 633 LINE",
"844 644 OFFCURVE",
"883 641 OFFCURVE",
"927 641 CURVE",
"1026 547 LINE",
"1120 590 OFFCURVE",
"1154 657 OFFCURVE",
"1114 746 CURVE"
);
},
{
closed = 1;
nodes = (
"300 173 OFFCURVE",
"266 248 OFFCURVE",
"266 339 CURVE SMOOTH",
"266 438 OFFCURVE",
"341 583 OFFCURVE",
"437 660 CURVE",
"513 584 OFFCURVE",
"546 524 OFFCURVE",
"548 419 CURVE",
"513 279 OFFCURVE",
"434 174 OFFCURVE",
"343 109 CURVE"
);
}
);
width = 1095;
},
{
layerId = "31954392-1C4E-4333-A60C-122C4BAF07AE";
paths = (
{
closed = 1;
nodes = (
"666 728 OFFCURVE",
"583 718 OFFCURVE",
"507 656 CURVE",
"474 696 OFFCURVE",
"434 735 OFFCURVE",
"397 735 CURVE SMOOTH",
"237 735 OFFCURVE",
"53 517 OFFCURVE",
"55 297 CURVE SMOOTH",
"56 180 OFFCURVE",
"158 0 OFFCURVE",
"278 0 CURVE SMOOTH",
"315 0 OFFCURVE",
"364 27 OFFCURVE",
"410 73 CURVE",
"427 30 OFFCURVE",
"453 13 OFFCURVE",
"495 0 CURVE",
"778 29 LINE",
"795 57 OFFCURVE",
"804 103 OFFCURVE",
"772 113 CURVE",
"678 96 OFFCURVE",
"585 79 OFFCURVE",
"497 73 CURVE",
"565 332 LINE",
"649 334 OFFCURVE",
"712 329 OFFCURVE",
"775 325 CURVE",
"794 355 OFFCURVE",
"796 390 OFFCURVE",
"784 408 CURVE",
"730 402 OFFCURVE",
"662 399 OFFCURVE",
"569 389 CURVE",
"548 597 LINE",
"580 646 LINE",
"653 666 OFFCURVE",
"718 663 OFFCURVE",
"764 656 CURVE",
"827 615 LINE",
"861 644 OFFCURVE",
"878 708 OFFCURVE",
"850 728 CURVE"
);
},
{
closed = 1;
nodes = (
"176 99 OFFCURVE",
"130 212 OFFCURVE",
"132 314 CURVE",
"132 472 OFFCURVE",
"238 612 OFFCURVE",
"391 684 CURVE",
"486 590 OFFCURVE",
"501 514 OFFCURVE",
"509 373 CURVE",
"491 247 OFFCURVE",
"423 125 OFFCURVE",
"281 52 CURVE"
);
}
);
width = 860;
}
);
unicode = 0152;
},
{
glyphname = P;
layers = (
{
layerId = "5FE12265-991D-4E7A-94BF-8B782DB79986";
paths = (
{
closed = 1;
nodes = (
"335 193 OFFCURVE",
"339 312 OFFCURVE",
"351 460 CURVE",
"406 686 LINE",
"346 651 LINE",
"455 654 OFFCURVE",
"539 582 OFFCURVE",
"539 510 CURVE SMOOTH",
"538 462 OFFCURVE",
"520 413 OFFCURVE",
"492 378 CURVE",
"459 351 OFFCURVE",
"368 321 OFFCURVE",
"271 304 CURVE",
"294 222 LINE",
"428 235 OFFCURVE",
"503 260 OFFCURVE",
"561 277 CURVE",
"684 339 OFFCURVE",
"755 401 OFFCURVE",
"758 518 CURVE SMOOTH",
"761 635 OFFCURVE",
"599 765 OFFCURVE",
"388 765 CURVE SMOOTH",
"286 765 OFFCURVE",
"178 749 OFFCURVE",
"103 722 CURVE",
"86 698 OFFCURVE",
"94 659 OFFCURVE",
"124 640 CURVE",
"170 631 LINE",
"186 547 LINE",
"153 349 OFFCURVE",
"122 233 OFFCURVE",
"63 55 CURVE",
"99 -3 OFFCURVE",
"267 -18 OFFCURVE",
"324 31 CURVE"
);
}
);
width = 739;
},
{
layerId = "31954392-1C4E-4333-A60C-122C4BAF07AE";
paths = (
{
closed = 1;
nodes = (
"176 140 OFFCURVE",
"194 268 OFFCURVE",
"202 407 CURVE",
"264 697 LINE",
"206 667 LINE",
"392 698 OFFCURVE",
"467 632 OFFCURVE",
"469 535 CURVE SMOOTH",
"470 464 OFFCURVE",
"433 399 OFFCURVE",
"375 364 CURVE",
"309 333 OFFCURVE",
"242 322 OFFCURVE",
"153 310 CURVE",
"176 269 LINE",
"234 271 OFFCURVE",
"323 285 OFFCURVE",
"402 312 CURVE",
"501 366 OFFCURVE",
"544 451 OFFCURVE",
"543 539 CURVE SMOOTH",
"541 644 OFFCURVE",
"459 735 OFFCURVE",
"282 735 CURVE SMOOTH",
"219 735 OFFCURVE",
"176 730 OFFCURVE",
"133 720 CURVE",
"117 713 OFFCURVE",
"112 687 OFFCURVE",
"127 662 CURVE",
"175 667 LINE",
"149 449 LINE",
"127 324 OFFCURVE",
"106 188 OFFCURVE",
"62 25 CURVE",
"83 2 OFFCURVE",
"131 -5 OFFCURVE",
"157 3 CURVE"
);
}
);
width = 532;
}
);
unicode = 0050;
},
{
glyphname = Thorn;
layers = (
{
layerId = "5FE12265-991D-4E7A-94BF-8B782DB79986";
paths = (
{
closed = 1;
nodes = (
"154 538 LINE",
"126 366 OFFCURVE",
"82 195 OFFCURVE",
"22 56 CURVE",
"47 3 OFFCURVE",
"231 -22 OFFCURVE",
"292 34 CURVE",
"306 206 OFFCURVE",
"315 421 OFFCURVE",
"325 593 CURVE",
"396 836 LINE",
"326 864 OFFCURVE",
"232 852 OFFCURVE",
"142 799 CURVE"
);
},
{
closed = 1;
nodes = (
"282 497 LINE",
"309 516 OFFCURVE",
"354 538 OFFCURVE",
"429 538 CURVE",
"474 524 OFFCURVE",
"504 488 OFFCURVE",
"504 415 CURVE",
"506 377 OFFCURVE",
"493 336 OFFCURVE",
"465 304 CURVE",
"421 260 OFFCURVE",
"327 260 OFFCURVE",
"234 296 CURVE",
"211 219 LINE",
"302 194 OFFCURVE",
"398 176 OFFCURVE",
"535 202 CURVE",
"665 270 OFFCURVE",
"724 334 OFFCURVE",
"724 424 CURVE SMOOTH",
"726 567 OFFCURVE",
"585 635 OFFCURVE",
"430 651 CURVE",
"370 633 OFFCURVE",
"283 586 OFFCURVE",
"243 568 CURVE"
);
}
);
width = 716;
},
{
layerId = "31954392-1C4E-4333-A60C-122C4BAF07AE";
paths = (
{
closed = 1;
nodes = (
"174 540 LINE",
"127 324 OFFCURVE",
"106 188 OFFCURVE",
"62 25 CURVE",
"83 2 OFFCURVE",
"131 -5 OFFCURVE",
"157 3 CURVE",
"176 140 OFFCURVE",
"202 394 OFFCURVE",
"233 573 CURVE",
"289 804 LINE",
"256 822 OFFCURVE",
"229 814 OFFCURVE",
"185 787 CURVE"
);
},
{
closed = 1;
nodes = (
"211 516 LINE",
"248 535 OFFCURVE",
"309 556 OFFCURVE",
"351 552 CURVE",
"421 532 OFFCURVE",
"464 482 OFFCURVE",
"467 419 CURVE",
"468 362 OFFCURVE",
"432 324 OFFCURVE",
"379 278 CURVE",
"303 260 OFFCURVE",
"261 255 OFFCURVE",
"189 265 CURVE",
"174 232 LINE",
"243 205 OFFCURVE",
"314 206 OFFCURVE",
"408 225 CURVE",
"501 292 OFFCURVE",
"543 343 OFFCURVE",
"541 423 CURVE SMOOTH",
"539 504 OFFCURVE",
"478 577 OFFCURVE",
"377 605 CURVE",
"315 609 OFFCURVE",
"237 589 OFFCURVE",
"190 553 CURVE"
);
}
);
width = 532;
}
);
unicode = 00DE;
},
{
glyphname = Q;
layers = (
{
layerId = "5FE12265-991D-4E7A-94BF-8B782DB79986";
paths = (
{
closed = 1;
nodes = (
"329 44 LINE",
"440 -186 LINE",
"518 -231 OFFCURVE",
"650 -196 OFFCURVE",
"663 -67 CURVE",
"494 -12 LINE",
"462 48 LINE"
);
},
{
closed = 1;
nodes = (
"226 768 OFFCURVE",
"39 543 OFFCURVE",
"39 326 CURVE SMOOTH",
"39 168 OFFCURVE",
"209 0 OFFCURVE",
"340 0 CURVE SMOOTH",
"537 0 OFFCURVE",
"749 216 OFFCURVE",
"746 425 CURVE SMOOTH",
"743 603 OFFCURVE",
"564 768 OFFCURVE",
"448 768 CURVE SMOOTH"
);
},
{
closed = 1;
nodes = (
"504 564 OFFCURVE",
"522 481 OFFCURVE",
"532 377 CURVE",
"508 277 OFFCURVE",
"430 173 OFFCURVE",
"343 109 CURVE",
"300 173 OFFCURVE",
"266 248 OFFCURVE",
"266 339 CURVE SMOOTH",
"266 438 OFFCURVE",
"341 583 OFFCURVE",
"437 660 CURVE"
);
}
);
width = 741;
},
{
layerId = "31954392-1C4E-4333-A60C-122C4BAF07AE";
paths = (
{
closed = 1;
nodes = (
"275 13 LINE",
"384 -161 LINE",
"440 -151 OFFCURVE",
"460 -130 OFFCURVE",
"455 -99 CURVE",
"362 -42 LINE",
"316 35 LINE"
);
},
{
closed = 1;
nodes = (
"234 735 OFFCURVE",
"51 517 OFFCURVE",
"53 297 CURVE SMOOTH",
"54 180 OFFCURVE",
"156 0 OFFCURVE",
"275 0 CURVE SMOOTH",
"386 0 OFFCURVE",
"588 232 OFFCURVE",
"586 363 CURVE SMOOTH",
"584 539 OFFCURVE",
"486 735 OFFCURVE",
"395 735 CURVE SMOOTH"
);
},
{
closed = 1;
nodes = (
"469 606 OFFCURVE",
"499 492 OFFCURVE",
"515 359 CURVE",
"470 228 OFFCURVE",
"408 130 OFFCURVE",
"272 52 CURVE",
"177 99 OFFCURVE",
"131 212 OFFCURVE",
"130 314 CURVE",
"130 472 OFFCURVE",
"235 612 OFFCURVE",
"389 684 CURVE"
);
}
);
width = 630;
}
);
unicode = 0051;
},
{
glyphname = R;
layers = (
{
anchors = (
{
name = bottom;
position = "{438, 0}";
},
{
name = top;
position = "{385, 753}";
}
);
layerId = "5FE12265-991D-4E7A-94BF-8B782DB79986";
paths = (
{
closed = 1;
nodes = (
"353 334 LINE",
"356 178 OFFCURVE",
"434 55 OFFCURVE",
"577 0 CURVE",
"682 34 OFFCURVE",
"746 120 OFFCURVE",
"700 198 CURVE",
"536 209 OFFCURVE",
"481 241 OFFCURVE",
"427 344 CURVE"
);
},
{
closed = 1;
nodes = (
"294 282 LINE",
"365 285 OFFCURVE",
"463 285 OFFCURVE",
"540 297 CURVE",
"684 369 OFFCURVE",
"745 421 OFFCURVE",
"748 538 CURVE SMOOTH",
"751 655 OFFCURVE",
"599 765 OFFCURVE",
"388 765 CURVE SMOOTH",
"286 765 OFFCURVE",
"178 749 OFFCURVE",
"103 722 CURVE",
"86 698 OFFCURVE",
"94 659 OFFCURVE",
"124 640 CURVE",
"170 631 LINE",
"186 547 LINE",
"153 349 OFFCURVE",
"122 233 OFFCURVE",
"63 55 CURVE",
"99 -3 OFFCURVE",
"267 -18 OFFCURVE",
"324 31 CURVE",
"335 193 OFFCURVE",
"339 312 OFFCURVE",
"351 460 CURVE",
"406 686 LINE",
"346 651 LINE",
"471 654 OFFCURVE",
"532 596 OFFCURVE",
"532 523 CURVE SMOOTH",
"532 485 OFFCURVE",
"515 442 OFFCURVE",
"481 402 CURVE",
"428 381 OFFCURVE",
"368 364 OFFCURVE",
"271 364 CURVE"
);
}
);
width = 760;
},
{
anchors = (
{
name = bottom;
position = "{266, 0}";
},
{
name = top;
position = "{323, 796}";
}
);
layerId = "31954392-1C4E-4333-A60C-122C4BAF07AE";
paths = (
{
closed = 1;
nodes = (
"206 336 LINE",
"226 212 OFFCURVE",
"294 85 OFFCURVE",
"427 0 CURVE",
"472 13 OFFCURVE",
"495 44 OFFCURVE",
"482 73 CURVE",
"341 135 OFFCURVE",
"281 204 OFFCURVE",
"235 346 CURVE"
);
},
{
closed = 1;
nodes = (
"185 326 LINE",
"272 328 OFFCURVE",
"295 330 OFFCURVE",
"372 340 CURVE",
"482 400 OFFCURVE",
"531 460 OFFCURVE",
"531 561 CURVE SMOOTH",
"531 649 OFFCURVE",
"457 737 OFFCURVE",
"280 737 CURVE SMOOTH",
"217 737 OFFCURVE",
"174 731 OFFCURVE",
"131 721 CURVE",
"114 714 OFFCURVE",
"110 688 OFFCURVE",
"125 663 CURVE",
"176 666 LINE",
"147 455 LINE",
"124 329 OFFCURVE",
"102 188 OFFCURVE",
"55 25 CURVE",
"77 2 OFFCURVE",
"124 -5 OFFCURVE",
"150 3 CURVE",
"179 179 OFFCURVE",
"192 296 OFFCURVE",
"200 413 CURVE",
"265 698 LINE",
"204 669 LINE",
"382 703 OFFCURVE",
"449 634 OFFCURVE",
"449 556 CURVE SMOOTH",
"449 478 OFFCURVE",
"423 438 OFFCURVE",
"354 392 CURVE",
"293 376 OFFCURVE",
"246 370 OFFCURVE",
"180 369 CURVE"
);
}
);
width = 568;
}
);
unicode = 0052;
},
{
glyphname = Racute;
layers = (
{
layerId = "5FE12265-991D-4E7A-94BF-8B782DB79986";
paths = (
{
closed = 1;
nodes = (
"353 334 LINE",
"356 178 OFFCURVE",
"434 55 OFFCURVE",
"577 0 CURVE",
"682 34 OFFCURVE",
"746 120 OFFCURVE",
"700 198 CURVE",
"536 209 OFFCURVE",
"481 241 OFFCURVE",
"427 344 CURVE"
);
},
{
closed = 1;
nodes = (
"294 282 LINE",
"365 285 OFFCURVE",
"463 285 OFFCURVE",
"540 297 CURVE",
"684 369 OFFCURVE",
"745 421 OFFCURVE",
"748 538 CURVE SMOOTH",
"751 655 OFFCURVE",
"599 765 OFFCURVE",
"388 765 CURVE SMOOTH",
"286 765 OFFCURVE",
"178 749 OFFCURVE",
"103 722 CURVE",
"86 698 OFFCURVE",
"94 659 OFFCURVE",
"124 640 CURVE",
"170 631 LINE",
"186 547 LINE",
"153 349 OFFCURVE",
"122 233 OFFCURVE",
"63 55 CURVE",
"99 -3 OFFCURVE",
"267 -18 OFFCURVE",
"324 31 CURVE",
"335 193 OFFCURVE",
"339 312 OFFCURVE",
"351 460 CURVE",
"406 686 LINE",
"346 651 LINE",
"471 654 OFFCURVE",
"532 596 OFFCURVE",
"532 523 CURVE SMOOTH",
"532 485 OFFCURVE",
"515 442 OFFCURVE",
"481 402 CURVE",
"428 381 OFFCURVE",
"368 364 OFFCURVE",
"271 364 CURVE"
);
},
{
closed = 1;
nodes = (
"424 952 LINE",
"349 857 LINE",
"345 825 OFFCURVE",
"392 806 OFFCURVE",
"434 807 CURVE",
"646 987 LINE",
"613 1055 OFFCURVE",
"558 1071 OFFCURVE",
"454 1058 CURVE"
);
}
);
width = 760;
},
{
layerId = "31954392-1C4E-4333-A60C-122C4BAF07AE";
paths = (
{
closed = 1;
nodes = (
"206 336 LINE",
"226 212 OFFCURVE",
"294 85 OFFCURVE",
"427 0 CURVE",
"472 13 OFFCURVE",
"495 44 OFFCURVE",
"482 73 CURVE",
"341 135 OFFCURVE",
"281 204 OFFCURVE",
"235 346 CURVE"
);
},
{
closed = 1;
nodes = (
"185 326 LINE",
"272 328 OFFCURVE",
"295 330 OFFCURVE",
"372 340 CURVE",
"482 400 OFFCURVE",
"531 460 OFFCURVE",
"531 561 CURVE SMOOTH",
"531 649 OFFCURVE",
"457 737 OFFCURVE",
"280 737 CURVE SMOOTH",
"217 737 OFFCURVE",
"174 731 OFFCURVE",
"131 721 CURVE",
"114 714 OFFCURVE",
"110 688 OFFCURVE",
"125 663 CURVE",
"176 666 LINE",
"147 455 LINE",
"124 329 OFFCURVE",
"102 188 OFFCURVE",
"55 25 CURVE",
"77 2 OFFCURVE",
"124 -5 OFFCURVE",
"150 3 CURVE",
"179 179 OFFCURVE",
"192 296 OFFCURVE",
"200 413 CURVE",
"265 698 LINE",
"204 669 LINE",
"382 703 OFFCURVE",
"449 634 OFFCURVE",
"449 556 CURVE SMOOTH",
"449 478 OFFCURVE",
"423 438 OFFCURVE",
"354 392 CURVE",
"293 376 OFFCURVE",
"246 370 OFFCURVE",
"180 369 CURVE"
);
},
{
closed = 1;
nodes = (
"377 894 LINE",
"315 801 LINE",
"317 790 OFFCURVE",
"328 784 OFFCURVE",
"348 784 CURVE",
"507 940 LINE",
"506 962 OFFCURVE",
"451 984 OFFCURVE",
"407 972 CURVE"
);
}
);
width = 568;
}
);
unicode = 0154;
},
{
glyphname = Rcaron;
layers = (
{
layerId = "5FE12265-991D-4E7A-94BF-8B782DB79986";
paths = (
{
closed = 1;
nodes = (
"353 334 LINE",
"356 178 OFFCURVE",
"434 55 OFFCURVE",
"577 0 CURVE",
"682 34 OFFCURVE",
"746 120 OFFCURVE",
"700 198 CURVE",
"536 209 OFFCURVE",
"481 241 OFFCURVE",
"427 344 CURVE"
);
},
{
closed = 1;
nodes = (
"294 282 LINE",
"365 285 OFFCURVE",
"463 285 OFFCURVE",
"540 297 CURVE",
"684 369 OFFCURVE",
"745 421 OFFCURVE",
"748 538 CURVE SMOOTH",
"751 655 OFFCURVE",
"599 765 OFFCURVE",
"388 765 CURVE SMOOTH",
"286 765 OFFCURVE",
"178 749 OFFCURVE",
"103 722 CURVE",
"86 698 OFFCURVE",
"94 659 OFFCURVE",
"124 640 CURVE",
"170 631 LINE",
"186 547 LINE",
"153 349 OFFCURVE",
"122 233 OFFCURVE",
"63 55 CURVE",
"99 -3 OFFCURVE",
"267 -18 OFFCURVE",
"324 31 CURVE",
"335 193 OFFCURVE",
"339 312 OFFCURVE",
"351 460 CURVE",
"406 686 LINE",
"346 651 LINE",
"471 654 OFFCURVE",
"532 596 OFFCURVE",
"532 523 CURVE SMOOTH",
"532 485 OFFCURVE",
"515 442 OFFCURVE",
"481 402 CURVE",
"428 381 OFFCURVE",
"368 364 OFFCURVE",
"271 364 CURVE"
);
},
{
closed = 1;
nodes = (
"327 825 LINE",
"387 793 OFFCURVE",
"469 808 OFFCURVE",
"539 837 CURVE",
"718 1015 LINE",
"686 1079 OFFCURVE",
"575 1057 OFFCURVE",
"543 1048 CURVE",
"407 891 LINE",
"295 1056 LINE",
"253 1066 OFFCURVE",
"209 1047 OFFCURVE",
"195 1017 CURVE"
);
}
);
width = 760;
},
{
layerId = "31954392-1C4E-4333-A60C-122C4BAF07AE";
paths = (
{
closed = 1;
nodes = (
"206 336 LINE",
"226 212 OFFCURVE",
"294 85 OFFCURVE",
"427 0 CURVE",
"472 13 OFFCURVE",
"495 44 OFFCURVE",
"482 73 CURVE",
"341 135 OFFCURVE",
"281 204 OFFCURVE",
"235 346 CURVE"
);
},
{
closed = 1;
nodes = (
"185 326 LINE",
"272 328 OFFCURVE",
"295 330 OFFCURVE",
"372 340 CURVE",
"482 400 OFFCURVE",
"531 460 OFFCURVE",
"531 561 CURVE SMOOTH",
"531 649 OFFCURVE",
"457 737 OFFCURVE",
"280 737 CURVE SMOOTH",
"217 737 OFFCURVE",
"174 731 OFFCURVE",
"131 721 CURVE",
"114 714 OFFCURVE",
"110 688 OFFCURVE",
"125 663 CURVE",
"176 666 LINE",
"147 455 LINE",
"124 329 OFFCURVE",
"102 188 OFFCURVE",
"55 25 CURVE",
"77 2 OFFCURVE",
"124 -5 OFFCURVE",
"150 3 CURVE",
"179 179 OFFCURVE",
"192 296 OFFCURVE",
"200 413 CURVE",
"265 698 LINE",
"204 669 LINE",
"382 703 OFFCURVE",
"449 634 OFFCURVE",
"449 556 CURVE SMOOTH",
"449 478 OFFCURVE",
"423 438 OFFCURVE",
"354 392 CURVE",
"293 376 OFFCURVE",
"246 370 OFFCURVE",
"180 369 CURVE"
);
},
{
closed = 1;
nodes = (
"270 800 LINE",
"283 790 OFFCURVE",
"312 784 OFFCURVE",
"340 792 CURVE",
"465 908 LINE",
"459 936 OFFCURVE",
"435 945 OFFCURVE",
"401 935 CURVE",
"299 827 LINE",
"249 926 LINE",
"234 932 OFFCURVE",
"218 929 OFFCURVE",
"209 914 CURVE"
);
}
);
width = 568;
}
);
unicode = 0158;
},
{
glyphname = Rcommaaccent;
layers = (
{
layerId = "5FE12265-991D-4E7A-94BF-8B782DB79986";
paths = (
{
closed = 1;
nodes = (
"248 -313 LINE",
"257 -340 OFFCURVE",
"279 -354 OFFCURVE",
"319 -355 CURVE",
"435 -269 OFFCURVE",
"483 -177 OFFCURVE",
"489 -86 CURVE",
"472 -38 OFFCURVE",
"388 20 OFFCURVE",
"294 -51 CURVE",
"311 -220 LINE"
);
},
{
closed = 1;
nodes = (
"353 334 LINE",
"356 178 OFFCURVE",
"434 55 OFFCURVE",
"577 0 CURVE",
"682 34 OFFCURVE",
"746 120 OFFCURVE",
"700 198 CURVE",
"536 209 OFFCURVE",
"481 241 OFFCURVE",
"427 344 CURVE"
);
},
{
closed = 1;
nodes = (
"294 282 LINE",
"365 285 OFFCURVE",
"463 285 OFFCURVE",
"540 297 CURVE",
"684 369 OFFCURVE",
"745 421 OFFCURVE",
"748 538 CURVE SMOOTH",
"751 655 OFFCURVE",
"599 765 OFFCURVE",
"388 765 CURVE SMOOTH",
"286 765 OFFCURVE",
"178 749 OFFCURVE",
"103 722 CURVE",
"86 698 OFFCURVE",
"94 659 OFFCURVE",
"124 640 CURVE",
"170 631 LINE",
"186 547 LINE",
"153 349 OFFCURVE",
"122 233 OFFCURVE",
"63 55 CURVE",
"99 -3 OFFCURVE",
"267 -18 OFFCURVE",
"324 31 CURVE",
"335 193 OFFCURVE",
"339 312 OFFCURVE",
"351 460 CURVE",
"406 686 LINE",
"346 651 LINE",
"471 654 OFFCURVE",
"532 596 OFFCURVE",
"532 523 CURVE SMOOTH",
"532 485 OFFCURVE",
"515 442 OFFCURVE",
"481 402 CURVE",
"428 381 OFFCURVE",
"368 364 OFFCURVE",
"271 364 CURVE"
);
}
);
width = 760;
},
{
layerId = "31954392-1C4E-4333-A60C-122C4BAF07AE";
paths = (
{
closed = 1;
nodes = (
"179 -231 LINE",
"186 -242 OFFCURVE",
"200 -246 OFFCURVE",
"211 -245 CURVE",
"253 -207 OFFCURVE",
"308 -136 OFFCURVE",
"315 -70 CURVE",
"299 -26 OFFCURVE",
"252 -2 OFFCURVE",
"210 -36 CURVE",
"233 -148 LINE"
);
},
{
closed = 1;
nodes = (
"206 336 LINE",
"226 212 OFFCURVE",
"294 85 OFFCURVE",
"427 0 CURVE",
"472 13 OFFCURVE",
"495 44 OFFCURVE",
"482 73 CURVE",
"341 135 OFFCURVE",
"281 204 OFFCURVE",
"235 346 CURVE"
);
},
{
closed = 1;
nodes = (
"185 326 LINE",
"272 328 OFFCURVE",
"295 330 OFFCURVE",
"372 340 CURVE",
"482 400 OFFCURVE",
"531 460 OFFCURVE",
"531 561 CURVE SMOOTH",
"531 649 OFFCURVE",
"457 737 OFFCURVE",
"280 737 CURVE SMOOTH",
"217 737 OFFCURVE",
"174 731 OFFCURVE",
"131 721 CURVE",
"114 714 OFFCURVE",
"110 688 OFFCURVE",
"125 663 CURVE",
"176 666 LINE",
"147 455 LINE",
"124 329 OFFCURVE",
"102 188 OFFCURVE",
"55 25 CURVE",
"77 2 OFFCURVE",
"124 -5 OFFCURVE",
"150 3 CURVE",
"179 179 OFFCURVE",
"192 296 OFFCURVE",
"200 413 CURVE",
"265 698 LINE",
"204 669 LINE",
"382 703 OFFCURVE",
"449 634 OFFCURVE",
"449 556 CURVE SMOOTH",
"449 478 OFFCURVE",
"423 438 OFFCURVE",
"354 392 CURVE",
"293 376 OFFCURVE",
"246 370 OFFCURVE",
"180 369 CURVE"
);
}
);
width = 568;
}
);
unicode = 0156;
},
{
glyphname = S;
layers = (
{
anchors = (
{
name = bottom;
position = "{371, 0}";
},
{
name = top;
position = "{424, 753}";
}
);
layerId = "5FE12265-991D-4E7A-94BF-8B782DB79986";
paths = (
{
closed = 1;
nodes = (
"510 14 OFFCURVE",
"667 107 OFFCURVE",
"691 263 CURVE",
"647 420 OFFCURVE",
"309 511 OFFCURVE",
"309 569 CURVE SMOOTH",
"309 600 OFFCURVE",
"384 641 OFFCURVE",
"437 660 CURVE",
"459 631 OFFCURVE",
"479 591 OFFCURVE",
"482 523 CURVE",
"618 495 OFFCURVE",
"683 528 OFFCURVE",
"706 625 CURVE",
"660 702 OFFCURVE",
"566 760 OFFCURVE",
"440 765 CURVE",
"273 747 OFFCURVE",
"140 667 OFFCURVE",
"76 538 CURVE",
"107 324 OFFCURVE",
"441 285 OFFCURVE",
"441 215 CURVE SMOOTH",
"441 161 OFFCURVE",
"384 117 OFFCURVE",
"319 105 CURVE",
"282 163 OFFCURVE",
"253 217 OFFCURVE",
"245 282 CURVE",
"120 321 OFFCURVE",
"54 241 OFFCURVE",
"14 156 CURVE",
"62 77 OFFCURVE",
"183 17 OFFCURVE",
"312 0 CURVE"
);
}
);
width = 724;
},
{
anchors = (
{
name = bottom;
position = "{275, 0}";
},
{
name = top;
position = "{382, 796}";
}
);
layerId = "31954392-1C4E-4333-A60C-122C4BAF07AE";
paths = (
{
closed = 1;
nodes = (
"420 33 OFFCURVE",
"509 122 OFFCURVE",
"526 232 CURVE",
"462 377 OFFCURVE",
"170 450 OFFCURVE",
"165 544 CURVE SMOOTH",
"163 594 OFFCURVE",
"272 673 OFFCURVE",
"359 692 CURVE",
"402 660 OFFCURVE",
"436 626 OFFCURVE",
"468 543 CURVE",
"509 539 OFFCURVE",
"535 559 OFFCURVE",
"539 583 CURVE",
"503 657 OFFCURVE",
"442 712 OFFCURVE",
"366 744 CURVE",
"261 735 OFFCURVE",
"131 657 OFFCURVE",
"87 548 CURVE",
"112 388 OFFCURVE",
"447 311 OFFCURVE",
"449 229 CURVE SMOOTH",
"449 151 OFFCURVE",
"364 81 OFFCURVE",
"251 53 CURVE",
"162 107 OFFCURVE",
"135 140 OFFCURVE",
"105 232 CURVE",
"66 245 OFFCURVE",
"48 239 OFFCURVE",
"21 202 CURVE",
"35 131 OFFCURVE",
"137 33 OFFCURVE",
"241 0 CURVE"
);
}
);
width = 565;
}
);
unicode = 0053;
},
{
glyphname = Sacute;
layers = (
{
layerId = "5FE12265-991D-4E7A-94BF-8B782DB79986";
paths = (
{
closed = 1;
nodes = (
"510 14 OFFCURVE",
"667 107 OFFCURVE",
"691 263 CURVE",
"647 420 OFFCURVE",
"309 511 OFFCURVE",
"309 569 CURVE SMOOTH",
"309 600 OFFCURVE",
"384 641 OFFCURVE",
"437 660 CURVE",
"459 631 OFFCURVE",
"479 591 OFFCURVE",
"482 523 CURVE",
"618 495 OFFCURVE",
"683 528 OFFCURVE",
"706 625 CURVE",
"660 702 OFFCURVE",
"566 760 OFFCURVE",
"440 765 CURVE",
"273 747 OFFCURVE",
"140 667 OFFCURVE",
"76 538 CURVE",
"107 324 OFFCURVE",
"441 285 OFFCURVE",
"441 215 CURVE SMOOTH",
"441 161 OFFCURVE",
"384 117 OFFCURVE",
"319 105 CURVE",
"282 163 OFFCURVE",
"253 217 OFFCURVE",
"245 282 CURVE",
"120 321 OFFCURVE",
"54 241 OFFCURVE",
"14 156 CURVE",
"62 77 OFFCURVE",
"183 17 OFFCURVE",
"312 0 CURVE"
);
},
{
closed = 1;
nodes = (
"463 952 LINE",
"388 857 LINE",
"384 825 OFFCURVE",
"431 806 OFFCURVE",
"473 807 CURVE",
"685 987 LINE",
"652 1055 OFFCURVE",
"597 1071 OFFCURVE",
"493 1058 CURVE"
);
}
);
width = 724;
},
{
layerId = "31954392-1C4E-4333-A60C-122C4BAF07AE";
paths = (
{
closed = 1;
nodes = (
"420 33 OFFCURVE",
"509 122 OFFCURVE",
"526 232 CURVE",
"462 377 OFFCURVE",
"170 450 OFFCURVE",
"165 544 CURVE SMOOTH",
"163 594 OFFCURVE",
"272 673 OFFCURVE",
"359 692 CURVE",
"402 660 OFFCURVE",
"436 626 OFFCURVE",
"468 543 CURVE",
"509 539 OFFCURVE",
"535 559 OFFCURVE",
"539 583 CURVE",
"503 657 OFFCURVE",
"442 712 OFFCURVE",
"366 744 CURVE",
"261 735 OFFCURVE",
"131 657 OFFCURVE",
"87 548 CURVE",
"112 388 OFFCURVE",
"447 311 OFFCURVE",
"449 229 CURVE SMOOTH",
"449 151 OFFCURVE",
"364 81 OFFCURVE",
"251 53 CURVE",
"162 107 OFFCURVE",
"135 140 OFFCURVE",
"105 232 CURVE",
"66 245 OFFCURVE",
"48 239 OFFCURVE",
"21 202 CURVE",
"35 131 OFFCURVE",
"137 33 OFFCURVE",
"241 0 CURVE"
);
},
{
closed = 1;
nodes = (
"436 894 LINE",
"374 801 LINE",
"376 790 OFFCURVE",
"387 784 OFFCURVE",
"407 784 CURVE",
"566 940 LINE",
"565 962 OFFCURVE",
"510 984 OFFCURVE",
"466 972 CURVE"
);
}
);
width = 565;
}
);
unicode = 015A;
},
{
glyphname = Scaron;
layers = (
{
layerId = "5FE12265-991D-4E7A-94BF-8B782DB79986";
paths = (
{
closed = 1;
nodes = (
"510 14 OFFCURVE",
"667 107 OFFCURVE",
"691 263 CURVE",
"647 420 OFFCURVE",
"309 511 OFFCURVE",
"309 569 CURVE SMOOTH",
"309 600 OFFCURVE",
"384 641 OFFCURVE",
"437 660 CURVE",
"459 631 OFFCURVE",
"479 591 OFFCURVE",
"482 523 CURVE",
"618 495 OFFCURVE",
"683 528 OFFCURVE",
"706 625 CURVE",
"660 702 OFFCURVE",
"566 760 OFFCURVE",
"440 765 CURVE",
"273 747 OFFCURVE",
"140 667 OFFCURVE",
"76 538 CURVE",
"107 324 OFFCURVE",
"441 285 OFFCURVE",
"441 215 CURVE SMOOTH",
"441 161 OFFCURVE",
"384 117 OFFCURVE",
"319 105 CURVE",
"282 163 OFFCURVE",
"253 217 OFFCURVE",
"245 282 CURVE",
"120 321 OFFCURVE",
"54 241 OFFCURVE",
"14 156 CURVE",
"62 77 OFFCURVE",
"183 17 OFFCURVE",
"312 0 CURVE"
);
},
{
closed = 1;
nodes = (
"366 825 LINE",
"426 793 OFFCURVE",
"508 808 OFFCURVE",
"578 837 CURVE",
"757 1015 LINE",
"725 1079 OFFCURVE",
"614 1057 OFFCURVE",
"582 1048 CURVE",
"446 891 LINE",
"334 1056 LINE",
"292 1066 OFFCURVE",
"248 1047 OFFCURVE",
"234 1017 CURVE"
);
}
);
width = 724;
},
{
layerId = "31954392-1C4E-4333-A60C-122C4BAF07AE";
paths = (
{
closed = 1;
nodes = (
"420 33 OFFCURVE",
"509 122 OFFCURVE",
"526 232 CURVE",
"462 377 OFFCURVE",
"170 450 OFFCURVE",
"165 544 CURVE SMOOTH",
"163 594 OFFCURVE",
"272 673 OFFCURVE",
"359 692 CURVE",
"402 660 OFFCURVE",
"436 626 OFFCURVE",
"468 543 CURVE",
"509 539 OFFCURVE",
"535 559 OFFCURVE",
"539 583 CURVE",
"503 657 OFFCURVE",
"442 712 OFFCURVE",
"366 744 CURVE",
"261 735 OFFCURVE",
"131 657 OFFCURVE",
"87 548 CURVE",
"112 388 OFFCURVE",
"447 311 OFFCURVE",
"449 229 CURVE SMOOTH",
"449 151 OFFCURVE",
"364 81 OFFCURVE",
"251 53 CURVE",
"162 107 OFFCURVE",
"135 140 OFFCURVE",
"105 232 CURVE",
"66 245 OFFCURVE",
"48 239 OFFCURVE",
"21 202 CURVE",
"35 131 OFFCURVE",
"137 33 OFFCURVE",
"241 0 CURVE"
);
},
{
closed = 1;
nodes = (
"329 800 LINE",
"342 790 OFFCURVE",
"371 784 OFFCURVE",
"399 792 CURVE",
"524 908 LINE",
"518 936 OFFCURVE",
"494 945 OFFCURVE",
"460 935 CURVE",
"358 827 LINE",
"308 926 LINE",
"293 932 OFFCURVE",
"277 929 OFFCURVE",
"268 914 CURVE"
);
}
);
width = 565;
}
);
unicode = 0160;
},
{
glyphname = Scedilla;
layers = (
{
layerId = "5FE12265-991D-4E7A-94BF-8B782DB79986";
paths = (
{
closed = 1;
nodes = (
"510 14 OFFCURVE",
"667 107 OFFCURVE",
"691 263 CURVE",
"647 420 OFFCURVE",
"309 511 OFFCURVE",
"309 569 CURVE SMOOTH",
"309 600 OFFCURVE",
"384 641 OFFCURVE",
"437 660 CURVE",
"459 631 OFFCURVE",
"479 591 OFFCURVE",
"482 523 CURVE",
"618 495 OFFCURVE",
"683 528 OFFCURVE",
"706 625 CURVE",
"660 702 OFFCURVE",
"566 760 OFFCURVE",
"440 765 CURVE",
"273 747 OFFCURVE",
"140 667 OFFCURVE",
"76 538 CURVE",
"107 324 OFFCURVE",
"441 285 OFFCURVE",
"441 215 CURVE SMOOTH",
"441 161 OFFCURVE",
"384 117 OFFCURVE",
"319 105 CURVE",
"282 163 OFFCURVE",
"253 217 OFFCURVE",
"245 282 CURVE",
"120 321 OFFCURVE",
"54 241 OFFCURVE",
"14 156 CURVE",
"62 77 OFFCURVE",
"183 17 OFFCURVE",
"312 0 CURVE"
);
},
{
closed = 1;
nodes = (
"295 35 LINE",
"229 -97 LINE",
"234 -122 OFFCURVE",
"268 -142 OFFCURVE",
"301 -142 CURVE",
"318 -132 OFFCURVE",
"331 -124 OFFCURVE",
"352 -120 CURVE",
"363 -132 OFFCURVE",
"369 -150 OFFCURVE",
"366 -164 CURVE",
"363 -188 OFFCURVE",
"342 -210 OFFCURVE",
"290 -210 CURVE SMOOTH",
"228 -210 OFFCURVE",
"186 -191 OFFCURVE",
"139 -141 CURVE",
"120 -142 OFFCURVE",
"104 -165 OFFCURVE",
"107 -195 CURVE",
"139 -253 OFFCURVE",
"220 -299 OFFCURVE",
"310 -301 CURVE SMOOTH",
"408 -303 OFFCURVE",
"490 -252 OFFCURVE",
"507 -153 CURVE SMOOTH",
"518 -87 OFFCURVE",
"475 -40 OFFCURVE",
"420 -40 CURVE SMOOTH",
"392 -40 OFFCURVE",
"363 -50 OFFCURVE",
"340 -68 CURVE",
"393 35 LINE"
);
}
);
width = 724;
},
{
layerId = "31954392-1C4E-4333-A60C-122C4BAF07AE";
paths = (
{
closed = 1;
nodes = (
"420 33 OFFCURVE",
"509 122 OFFCURVE",
"526 232 CURVE",
"462 377 OFFCURVE",
"170 450 OFFCURVE",
"165 544 CURVE SMOOTH",
"163 594 OFFCURVE",
"272 673 OFFCURVE",
"359 692 CURVE",
"402 660 OFFCURVE",
"436 626 OFFCURVE",
"468 543 CURVE",
"509 539 OFFCURVE",
"535 559 OFFCURVE",
"539 583 CURVE",
"503 657 OFFCURVE",
"442 712 OFFCURVE",
"366 744 CURVE",
"261 735 OFFCURVE",
"131 657 OFFCURVE",
"87 548 CURVE",
"112 388 OFFCURVE",
"447 311 OFFCURVE",
"449 229 CURVE SMOOTH",
"449 151 OFFCURVE",
"364 81 OFFCURVE",
"251 53 CURVE",
"162 107 OFFCURVE",
"135 140 OFFCURVE",
"105 232 CURVE",
"66 245 OFFCURVE",
"48 239 OFFCURVE",
"21 202 CURVE",
"35 131 OFFCURVE",
"137 33 OFFCURVE",
"241 0 CURVE"
);
},
{
closed = 1;
nodes = (
"229 19 LINE",
"173 -100 LINE",
"180 -122 OFFCURVE",
"201 -127 OFFCURVE",
"218 -127 CURVE",
"238 -110 OFFCURVE",
"258 -100 OFFCURVE",
"283 -97 CURVE",
"289 -106 OFFCURVE",
"295 -121 OFFCURVE",
"291 -140 CURVE SMOOTH",
"283 -172 OFFCURVE",
"256 -188 OFFCURVE",
"217 -188 CURVE SMOOTH",
"174 -188 OFFCURVE",
"138 -168 OFFCURVE",
"104 -134 CURVE",
"92 -135 OFFCURVE",
"83 -151 OFFCURVE",
"82 -171 CURVE",
"117 -215 OFFCURVE",
"178 -240 OFFCURVE",
"237 -240 CURVE SMOOTH",
"308 -240 OFFCURVE",
"361 -203 OFFCURVE",
"373 -144 CURVE",
"383 -87 OFFCURVE",
"353 -51 OFFCURVE",
"310 -51 CURVE SMOOTH",
"283 -51 OFFCURVE",
"260 -62 OFFCURVE",
"240 -81 CURVE",
"292 19 LINE"
);
}
);
width = 565;
}
);
unicode = 015E;
},
{
glyphname = Scommaaccent;
layers = (
{
layerId = "5FE12265-991D-4E7A-94BF-8B782DB79986";
paths = (
{
closed = 1;
nodes = (
"162 -313 LINE",
"171 -340 OFFCURVE",
"193 -354 OFFCURVE",
"233 -355 CURVE",
"349 -269 OFFCURVE",
"397 -177 OFFCURVE",
"403 -86 CURVE",
"386 -38 OFFCURVE",
"302 20 OFFCURVE",
"208 -51 CURVE",
"225 -220 LINE"
);
},
{
closed = 1;
nodes = (
"510 14 OFFCURVE",
"667 107 OFFCURVE",
"691 263 CURVE",
"647 420 OFFCURVE",
"309 511 OFFCURVE",
"309 569 CURVE SMOOTH",
"309 600 OFFCURVE",
"384 641 OFFCURVE",
"437 660 CURVE",
"459 631 OFFCURVE",
"479 591 OFFCURVE",
"482 523 CURVE",
"618 495 OFFCURVE",
"683 528 OFFCURVE",
"706 625 CURVE",
"660 702 OFFCURVE",
"566 760 OFFCURVE",
"440 765 CURVE",
"273 747 OFFCURVE",
"140 667 OFFCURVE",
"76 538 CURVE",
"107 324 OFFCURVE",
"441 285 OFFCURVE",
"441 215 CURVE SMOOTH",
"441 161 OFFCURVE",
"384 117 OFFCURVE",
"319 105 CURVE",
"282 163 OFFCURVE",
"253 217 OFFCURVE",
"245 282 CURVE",
"120 321 OFFCURVE",
"54 241 OFFCURVE",
"14 156 CURVE",
"62 77 OFFCURVE",
"183 17 OFFCURVE",
"312 0 CURVE"
);
}
);
width = 724;
},
{
layerId = "31954392-1C4E-4333-A60C-122C4BAF07AE";
paths = (
{
closed = 1;
nodes = (
"169 -231 LINE",
"176 -242 OFFCURVE",
"190 -246 OFFCURVE",
"201 -245 CURVE",
"243 -207 OFFCURVE",
"298 -136 OFFCURVE",
"305 -70 CURVE",
"289 -26 OFFCURVE",
"242 -2 OFFCURVE",
"200 -36 CURVE",
"223 -148 LINE"
);
},
{
closed = 1;
nodes = (
"420 33 OFFCURVE",
"509 122 OFFCURVE",
"526 232 CURVE",
"462 377 OFFCURVE",
"170 450 OFFCURVE",
"165 544 CURVE SMOOTH",
"163 594 OFFCURVE",
"272 673 OFFCURVE",
"359 692 CURVE",
"402 660 OFFCURVE",
"436 626 OFFCURVE",
"468 543 CURVE",
"509 539 OFFCURVE",
"535 559 OFFCURVE",
"539 583 CURVE",
"503 657 OFFCURVE",
"442 712 OFFCURVE",
"366 744 CURVE",
"261 735 OFFCURVE",
"131 657 OFFCURVE",
"87 548 CURVE",
"112 388 OFFCURVE",
"447 311 OFFCURVE",
"449 229 CURVE SMOOTH",
"449 151 OFFCURVE",
"364 81 OFFCURVE",
"251 53 CURVE",
"162 107 OFFCURVE",
"135 140 OFFCURVE",
"105 232 CURVE",
"66 245 OFFCURVE",
"48 239 OFFCURVE",
"21 202 CURVE",
"35 131 OFFCURVE",
"137 33 OFFCURVE",
"241 0 CURVE"
);
}
);
width = 565;
}
);
unicode = 0218;
},
{
glyphname = T;
layers = (
{
anchors = (
{
name = bottom;
position = "{371, 0}";
},
{
name = top;
position = "{425, 753}";
}
);
layerId = "5FE12265-991D-4E7A-94BF-8B782DB79986";
paths = (
{
closed = 1;
nodes = (
"318 549 LINE",
"287 342 OFFCURVE",
"256 215 OFFCURVE",
"201 56 CURVE",
"225 3 OFFCURVE",
"401 -22 OFFCURVE",
"463 31 CURVE",
"467 152 OFFCURVE",
"469 250 OFFCURVE",
"481 468 CURVE",
"546 707 LINE",
"497 735 OFFCURVE",
"419 733 OFFCURVE",
"316 682 CURVE"
);
},
{
closed = 1;
nodes = (
"497 759 OFFCURVE",
"364 755 OFFCURVE",
"105 734 CURVE",
"84 684 OFFCURVE",
"88 640 OFFCURVE",
"132 583 CURVE",
"444 625 LINE",
"749 588 LINE",
"794 666 OFFCURVE",
"786 710 OFFCURVE",
"763 740 CURVE"
);
}
);
width = 727;
},
{
anchors = (
{
name = bottom;
position = "{255, 0}";
},
{
name = top;
position = "{363, 796}";
}
);
layerId = "31954392-1C4E-4333-A60C-122C4BAF07AE";
paths = (
{
closed = 1;
nodes = (
"284 505 LINE",
"253 321 OFFCURVE",
"226 206 OFFCURVE",
"180 30 CURVE",
"198 2 OFFCURVE",
"234 -4 OFFCURVE",
"275 0 CURVE",
"292 147 OFFCURVE",
"310 276 OFFCURVE",
"322 389 CURVE",
"393 703 LINE",
"370 715 OFFCURVE",
"339 713 OFFCURVE",
"292 688 CURVE"
);
},
{
closed = 1;
nodes = (
"382 728 OFFCURVE",
"245 724 OFFCURVE",
"103 715 CURVE",
"90 698 OFFCURVE",
"87 681 OFFCURVE",
"111 657 CURVE",
"367 676 LINE",
"588 663 LINE",
"613 686 OFFCURVE",
"617 713 OFFCURVE",
"603 725 CURVE"
);
}
);
width = 537;
}
);
unicode = 0054;
},
{
glyphname = Tcaron;
layers = (
{
layerId = "5FE12265-991D-4E7A-94BF-8B782DB79986";
paths = (
{
closed = 1;
nodes = (
"318 549 LINE",
"287 342 OFFCURVE",
"256 215 OFFCURVE",
"201 56 CURVE",
"225 3 OFFCURVE",
"401 -22 OFFCURVE",
"463 31 CURVE",
"467 152 OFFCURVE",
"469 250 OFFCURVE",
"481 468 CURVE",
"546 707 LINE",
"497 735 OFFCURVE",
"419 733 OFFCURVE",
"316 682 CURVE"
);
},
{
closed = 1;
nodes = (
"497 759 OFFCURVE",
"364 755 OFFCURVE",
"105 734 CURVE",
"84 684 OFFCURVE",
"88 640 OFFCURVE",
"132 583 CURVE",
"444 625 LINE",
"749 588 LINE",
"794 666 OFFCURVE",
"786 710 OFFCURVE",
"763 740 CURVE"
);
},
{
closed = 1;
nodes = (
"367 825 LINE",
"427 793 OFFCURVE",
"509 808 OFFCURVE",
"579 837 CURVE",
"758 1015 LINE",
"726 1079 OFFCURVE",
"615 1057 OFFCURVE",
"583 1048 CURVE",
"447 891 LINE",
"335 1056 LINE",
"293 1066 OFFCURVE",
"249 1047 OFFCURVE",
"235 1017 CURVE"
);
}
);
width = 727;
},
{
layerId = "31954392-1C4E-4333-A60C-122C4BAF07AE";
paths = (
{
closed = 1;
nodes = (
"284 505 LINE",
"253 321 OFFCURVE",
"226 206 OFFCURVE",
"180 30 CURVE",
"198 2 OFFCURVE",
"234 -4 OFFCURVE",
"275 0 CURVE",
"292 147 OFFCURVE",
"310 276 OFFCURVE",
"322 389 CURVE",
"393 703 LINE",
"370 715 OFFCURVE",
"339 713 OFFCURVE",
"292 688 CURVE"
);
},
{
closed = 1;
nodes = (
"382 728 OFFCURVE",
"245 724 OFFCURVE",
"103 715 CURVE",
"90 698 OFFCURVE",
"87 681 OFFCURVE",
"111 657 CURVE",
"367 676 LINE",
"588 663 LINE",
"613 686 OFFCURVE",
"617 713 OFFCURVE",
"603 725 CURVE"
);
},
{
closed = 1;
nodes = (
"310 800 LINE",
"323 790 OFFCURVE",
"352 784 OFFCURVE",
"380 792 CURVE",
"505 908 LINE",
"499 936 OFFCURVE",
"475 945 OFFCURVE",
"441 935 CURVE",
"339 827 LINE",
"289 926 LINE",
"274 932 OFFCURVE",
"258 929 OFFCURVE",
"249 914 CURVE"
);
}
);
width = 537;
}
);
unicode = 0164;
},
{
glyphname = Tcedilla;
layers = (
{
layerId = "5FE12265-991D-4E7A-94BF-8B782DB79986";
paths = (
{
closed = 1;
nodes = (
"318 549 LINE",
"287 342 OFFCURVE",
"256 215 OFFCURVE",
"201 56 CURVE",
"225 3 OFFCURVE",
"401 -22 OFFCURVE",
"463 31 CURVE",
"467 152 OFFCURVE",
"469 250 OFFCURVE",
"481 468 CURVE",
"546 707 LINE",
"497 735 OFFCURVE",
"419 733 OFFCURVE",
"316 682 CURVE"
);
},
{
closed = 1;
nodes = (
"497 759 OFFCURVE",
"364 755 OFFCURVE",
"105 734 CURVE",
"84 684 OFFCURVE",
"88 640 OFFCURVE",
"132 583 CURVE",
"444 625 LINE",
"749 588 LINE",
"794 666 OFFCURVE",
"786 710 OFFCURVE",
"763 740 CURVE"
);
},
{
closed = 1;
nodes = (
"295 35 LINE",
"229 -97 LINE",
"234 -122 OFFCURVE",
"268 -142 OFFCURVE",
"301 -142 CURVE",
"318 -132 OFFCURVE",
"331 -124 OFFCURVE",
"352 -120 CURVE",
"363 -132 OFFCURVE",
"369 -150 OFFCURVE",
"366 -164 CURVE",
"363 -188 OFFCURVE",
"342 -210 OFFCURVE",
"290 -210 CURVE SMOOTH",
"228 -210 OFFCURVE",
"186 -191 OFFCURVE",
"139 -141 CURVE",
"120 -142 OFFCURVE",
"104 -165 OFFCURVE",
"107 -195 CURVE",
"139 -253 OFFCURVE",
"220 -299 OFFCURVE",
"310 -301 CURVE SMOOTH",
"408 -303 OFFCURVE",
"490 -252 OFFCURVE",
"507 -153 CURVE SMOOTH",
"518 -87 OFFCURVE",
"475 -40 OFFCURVE",
"420 -40 CURVE SMOOTH",
"392 -40 OFFCURVE",
"363 -50 OFFCURVE",
"340 -68 CURVE",
"393 35 LINE"
);
}
);
width = 727;
},
{
layerId = "31954392-1C4E-4333-A60C-122C4BAF07AE";
paths = (
{
closed = 1;
nodes = (
"284 505 LINE",
"253 321 OFFCURVE",
"226 206 OFFCURVE",
"180 30 CURVE",
"198 2 OFFCURVE",
"234 -4 OFFCURVE",
"275 0 CURVE",
"292 147 OFFCURVE",
"310 276 OFFCURVE",
"322 389 CURVE",
"393 703 LINE",
"370 715 OFFCURVE",
"339 713 OFFCURVE",
"292 688 CURVE"
);
},
{
closed = 1;
nodes = (
"382 728 OFFCURVE",
"245 724 OFFCURVE",
"103 715 CURVE",
"90 698 OFFCURVE",
"87 681 OFFCURVE",
"111 657 CURVE",
"367 676 LINE",
"588 663 LINE",
"613 686 OFFCURVE",
"617 713 OFFCURVE",
"603 725 CURVE"
);
},
{
closed = 1;
nodes = (
"209 19 LINE",
"153 -100 LINE",
"160 -122 OFFCURVE",
"181 -127 OFFCURVE",
"198 -127 CURVE",
"218 -110 OFFCURVE",
"238 -100 OFFCURVE",
"263 -97 CURVE",
"269 -106 OFFCURVE",
"275 -121 OFFCURVE",
"271 -140 CURVE SMOOTH",
"263 -172 OFFCURVE",
"236 -188 OFFCURVE",
"197 -188 CURVE SMOOTH",
"154 -188 OFFCURVE",
"118 -168 OFFCURVE",
"84 -134 CURVE",
"72 -135 OFFCURVE",
"63 -151 OFFCURVE",
"62 -171 CURVE",
"97 -215 OFFCURVE",
"158 -240 OFFCURVE",
"217 -240 CURVE SMOOTH",
"288 -240 OFFCURVE",
"341 -203 OFFCURVE",
"353 -144 CURVE",
"363 -87 OFFCURVE",
"333 -51 OFFCURVE",
"290 -51 CURVE SMOOTH",
"263 -51 OFFCURVE",
"240 -62 OFFCURVE",
"220 -81 CURVE",
"272 19 LINE"
);
}
);
width = 537;
}
);
unicode = 0162;
},
{
glyphname = Tcommaaccent;
layers = (
{
layerId = "5FE12265-991D-4E7A-94BF-8B782DB79986";
paths = (
{
closed = 1;
nodes = (
"182 -313 LINE",
"191 -340 OFFCURVE",
"213 -354 OFFCURVE",
"253 -355 CURVE",
"369 -269 OFFCURVE",
"417 -177 OFFCURVE",
"423 -86 CURVE",
"406 -38 OFFCURVE",
"322 20 OFFCURVE",
"228 -51 CURVE",
"245 -220 LINE"
);
},
{
closed = 1;
nodes = (
"318 549 LINE",
"287 342 OFFCURVE",
"256 215 OFFCURVE",
"201 56 CURVE",
"225 3 OFFCURVE",
"401 -22 OFFCURVE",
"463 31 CURVE",
"467 152 OFFCURVE",
"469 250 OFFCURVE",
"481 468 CURVE",
"546 707 LINE",
"497 735 OFFCURVE",
"419 733 OFFCURVE",
"316 682 CURVE"
);
},
{
closed = 1;
nodes = (
"497 759 OFFCURVE",
"364 755 OFFCURVE",
"105 734 CURVE",
"84 684 OFFCURVE",
"88 640 OFFCURVE",
"132 583 CURVE",
"444 625 LINE",
"749 588 LINE",
"794 666 OFFCURVE",
"786 710 OFFCURVE",
"763 740 CURVE"
);
}
);
width = 727;
},
{
layerId = "31954392-1C4E-4333-A60C-122C4BAF07AE";
paths = (
{
closed = 1;
nodes = (
"129 -231 LINE",
"136 -242 OFFCURVE",
"150 -246 OFFCURVE",
"161 -245 CURVE",
"203 -207 OFFCURVE",
"258 -136 OFFCURVE",
"265 -70 CURVE",
"249 -26 OFFCURVE",
"202 -2 OFFCURVE",
"160 -36 CURVE",
"183 -148 LINE"
);
},
{
closed = 1;
nodes = (
"284 505 LINE",
"253 321 OFFCURVE",
"226 206 OFFCURVE",
"180 30 CURVE",
"198 2 OFFCURVE",
"234 -4 OFFCURVE",
"275 0 CURVE",
"292 147 OFFCURVE",
"310 276 OFFCURVE",
"322 389 CURVE",
"393 703 LINE",
"370 715 OFFCURVE",
"339 713 OFFCURVE",
"292 688 CURVE"
);
},
{
closed = 1;
nodes = (
"382 728 OFFCURVE",
"245 724 OFFCURVE",
"103 715 CURVE",
"90 698 OFFCURVE",
"87 681 OFFCURVE",
"111 657 CURVE",
"367 676 LINE",
"588 663 LINE",
"613 686 OFFCURVE",
"617 713 OFFCURVE",
"603 725 CURVE"
);
}
);
width = 537;
}
);
unicode = 021A;
},
{
glyphname = U;
layers = (
{
anchors = (
{
name = ogonek;
position = "{369, 0}";
},
{
name = top;
position = "{446, 753}";
}
);
layerId = "5FE12265-991D-4E7A-94BF-8B782DB79986";
paths = (
{
closed = 1;
nodes = (
"557 0 OFFCURVE",
"668 132 OFFCURVE",
"704 329 CURVE SMOOTH",
"727 457 OFFCURVE",
"751 611 OFFCURVE",
"766 747 CURVE",
"742 759 OFFCURVE",
"711 765 OFFCURVE",
"674 765 CURVE SMOOTH",
"623 765 OFFCURVE",
"561 752 OFFCURVE",
"501 723 CURVE",
"545 485 LINE",
"525 333 OFFCURVE",
"497 237 OFFCURVE",
"440 130 CURVE",
"260 130 OFFCURVE",
"271 229 OFFCURVE",
"291 364 CURVE SMOOTH",
"307 465 OFFCURVE",
"344 592 OFFCURVE",
"393 747 CURVE",
"368 759 OFFCURVE",
"337 765 OFFCURVE",
"301 765 CURVE SMOOTH",
"250 765 OFFCURVE",
"188 752 OFFCURVE",
"128 723 CURVE",
"110 539 OFFCURVE",
"93 405 OFFCURVE",
"59 228 CURVE",
"78 101 OFFCURVE",
"189 0 OFFCURVE",
"362 0 CURVE SMOOTH"
);
}
);
width = 735;
},
{
anchors = (
{
name = ogonek;
position = "{280, 0}";
},
{
name = top;
position = "{360, 796}";
}
);
layerId = "31954392-1C4E-4333-A60C-122C4BAF07AE";
paths = (
{
closed = 1;
nodes = (
"438 0 OFFCURVE",
"488 145 OFFCURVE",
"536 376 CURVE SMOOTH",
"565 515 OFFCURVE",
"578 618 OFFCURVE",
"603 726 CURVE",
"590 732 OFFCURVE",
"579 735 OFFCURVE",
"567 735 CURVE SMOOTH",
"546 735 OFFCURVE",
"526 727 OFFCURVE",
"498 710 CURVE",
"498 497 LINE",
"468 315 OFFCURVE",
"440 166 OFFCURVE",
"348 76 CURVE",
"229 15 OFFCURVE",
"126 96 OFFCURVE",
"126 174 CURVE SMOOTH",
"126 347 OFFCURVE",
"178 549 OFFCURVE",
"231 726 CURVE",
"218 732 OFFCURVE",
"207 735 OFFCURVE",
"195 735 CURVE SMOOTH",
"175 735 OFFCURVE",
"154 727 OFFCURVE",
"126 710 CURVE",
"109 510 OFFCURVE",
"82 375 OFFCURVE",
"46 166 CURVE",
"56 105 OFFCURVE",
"118 0 OFFCURVE",
"248 0 CURVE SMOOTH"
);
}
);
width = 570;
}
);
unicode = 0055;
},
{
glyphname = Uacute;
layers = (
{
layerId = "5FE12265-991D-4E7A-94BF-8B782DB79986";
paths = (
{
closed = 1;
nodes = (
"557 0 OFFCURVE",
"668 132 OFFCURVE",
"704 329 CURVE SMOOTH",
"727 457 OFFCURVE",
"751 611 OFFCURVE",
"766 747 CURVE",
"742 759 OFFCURVE",
"711 765 OFFCURVE",
"674 765 CURVE SMOOTH",
"623 765 OFFCURVE",
"561 752 OFFCURVE",
"501 723 CURVE",
"545 485 LINE",
"525 333 OFFCURVE",
"497 237 OFFCURVE",
"440 130 CURVE",
"260 130 OFFCURVE",
"271 229 OFFCURVE",
"291 364 CURVE SMOOTH",
"307 465 OFFCURVE",
"344 592 OFFCURVE",
"393 747 CURVE",
"368 759 OFFCURVE",
"337 765 OFFCURVE",
"301 765 CURVE SMOOTH",
"250 765 OFFCURVE",
"188 752 OFFCURVE",
"128 723 CURVE",
"110 539 OFFCURVE",
"93 405 OFFCURVE",
"59 228 CURVE",
"78 101 OFFCURVE",
"189 0 OFFCURVE",
"362 0 CURVE SMOOTH"
);
},
{
closed = 1;
nodes = (
"485 952 LINE",
"410 857 LINE",
"406 825 OFFCURVE",
"453 806 OFFCURVE",
"495 807 CURVE",
"707 987 LINE",
"674 1055 OFFCURVE",
"619 1071 OFFCURVE",
"515 1058 CURVE"
);
}
);
width = 735;
},
{
layerId = "31954392-1C4E-4333-A60C-122C4BAF07AE";
paths = (
{
closed = 1;
nodes = (
"438 0 OFFCURVE",
"488 145 OFFCURVE",
"536 376 CURVE SMOOTH",
"565 515 OFFCURVE",
"578 618 OFFCURVE",
"603 726 CURVE",
"590 732 OFFCURVE",
"579 735 OFFCURVE",
"567 735 CURVE SMOOTH",
"546 735 OFFCURVE",
"526 727 OFFCURVE",
"498 710 CURVE",
"498 497 LINE",
"468 315 OFFCURVE",
"440 166 OFFCURVE",
"348 76 CURVE",
"229 15 OFFCURVE",
"126 96 OFFCURVE",
"126 174 CURVE SMOOTH",
"126 347 OFFCURVE",
"178 549 OFFCURVE",
"231 726 CURVE",
"218 732 OFFCURVE",
"207 735 OFFCURVE",
"195 735 CURVE SMOOTH",
"175 735 OFFCURVE",
"154 727 OFFCURVE",
"126 710 CURVE",
"109 510 OFFCURVE",
"82 375 OFFCURVE",
"46 166 CURVE",
"56 105 OFFCURVE",
"118 0 OFFCURVE",
"248 0 CURVE SMOOTH"
);
},
{
closed = 1;
nodes = (
"414 894 LINE",
"352 801 LINE",
"354 790 OFFCURVE",
"365 784 OFFCURVE",
"385 784 CURVE",
"544 940 LINE",
"543 962 OFFCURVE",
"488 984 OFFCURVE",
"444 972 CURVE"
);
}
);
width = 570;
}
);
unicode = 00DA;
},
{
glyphname = Ucircumflex;
layers = (
{
layerId = "5FE12265-991D-4E7A-94BF-8B782DB79986";
paths = (
{
closed = 1;
nodes = (
"557 0 OFFCURVE",
"668 132 OFFCURVE",
"704 329 CURVE SMOOTH",
"727 457 OFFCURVE",
"751 611 OFFCURVE",
"766 747 CURVE",
"742 759 OFFCURVE",
"711 765 OFFCURVE",
"674 765 CURVE SMOOTH",
"623 765 OFFCURVE",
"561 752 OFFCURVE",
"501 723 CURVE",
"545 485 LINE",
"525 333 OFFCURVE",
"497 237 OFFCURVE",
"440 130 CURVE",
"260 130 OFFCURVE",
"271 229 OFFCURVE",
"291 364 CURVE SMOOTH",
"307 465 OFFCURVE",
"344 592 OFFCURVE",
"393 747 CURVE",
"368 759 OFFCURVE",
"337 765 OFFCURVE",
"301 765 CURVE SMOOTH",
"250 765 OFFCURVE",
"188 752 OFFCURVE",
"128 723 CURVE",
"110 539 OFFCURVE",
"93 405 OFFCURVE",
"59 228 CURVE",
"78 101 OFFCURVE",
"189 0 OFFCURVE",
"362 0 CURVE SMOOTH"
);
},
{
closed = 1;
nodes = (
"210 855 LINE",
"214 822 OFFCURVE",
"254 806 OFFCURVE",
"302 808 CURVE",
"469 955 LINE",
"532 827 LINE",
"572 810 OFFCURVE",
"669 785 OFFCURVE",
"741 847 CURVE",
"630 1026 LINE",
"576 1057 OFFCURVE",
"511 1067 OFFCURVE",
"425 1053 CURVE"
);
}
);
width = 735;
},
{
layerId = "31954392-1C4E-4333-A60C-122C4BAF07AE";
paths = (
{
closed = 1;
nodes = (
"438 0 OFFCURVE",
"488 145 OFFCURVE",
"536 376 CURVE SMOOTH",
"565 515 OFFCURVE",
"578 618 OFFCURVE",
"603 726 CURVE",
"590 732 OFFCURVE",
"579 735 OFFCURVE",
"567 735 CURVE SMOOTH",
"546 735 OFFCURVE",
"526 727 OFFCURVE",
"498 710 CURVE",
"498 497 LINE",
"468 315 OFFCURVE",
"440 166 OFFCURVE",
"348 76 CURVE",
"229 15 OFFCURVE",
"126 96 OFFCURVE",
"126 174 CURVE SMOOTH",
"126 347 OFFCURVE",
"178 549 OFFCURVE",
"231 726 CURVE",
"218 732 OFFCURVE",
"207 735 OFFCURVE",
"195 735 CURVE SMOOTH",
"175 735 OFFCURVE",
"154 727 OFFCURVE",
"126 710 CURVE",
"109 510 OFFCURVE",
"82 375 OFFCURVE",
"46 166 CURVE",
"56 105 OFFCURVE",
"118 0 OFFCURVE",
"248 0 CURVE SMOOTH"
);
},
{
closed = 1;
nodes = (
"231 818 LINE",
"233 800 OFFCURVE",
"248 794 OFFCURVE",
"261 792 CURVE",
"387 903 LINE",
"438 795 LINE",
"453 785 OFFCURVE",
"485 781 OFFCURVE",
"508 802 CURVE",
"442 940 LINE",
"426 952 OFFCURVE",
"399 955 OFFCURVE",
"372 948 CURVE"
);
}
);
width = 570;
}
);
unicode = 00DB;
},
{
glyphname = Udieresis;
layers = (
{
layerId = "5FE12265-991D-4E7A-94BF-8B782DB79986";
paths = (
{
closed = 1;
nodes = (
"557 0 OFFCURVE",
"668 132 OFFCURVE",
"704 329 CURVE SMOOTH",
"727 457 OFFCURVE",
"751 611 OFFCURVE",
"766 747 CURVE",
"742 759 OFFCURVE",
"711 765 OFFCURVE",
"674 765 CURVE SMOOTH",
"623 765 OFFCURVE",
"561 752 OFFCURVE",
"501 723 CURVE",
"545 485 LINE",
"525 333 OFFCURVE",
"497 237 OFFCURVE",
"440 130 CURVE",
"260 130 OFFCURVE",
"271 229 OFFCURVE",
"291 364 CURVE SMOOTH",
"307 465 OFFCURVE",
"344 592 OFFCURVE",
"393 747 CURVE",
"368 759 OFFCURVE",
"337 765 OFFCURVE",
"301 765 CURVE SMOOTH",
"250 765 OFFCURVE",
"188 752 OFFCURVE",
"128 723 CURVE",
"110 539 OFFCURVE",
"93 405 OFFCURVE",
"59 228 CURVE",
"78 101 OFFCURVE",
"189 0 OFFCURVE",
"362 0 CURVE SMOOTH"
);
},
{
closed = 1;
nodes = (
"234 870 OFFCURVE",
"279 826 OFFCURVE",
"334 826 CURVE SMOOTH",
"388 826 OFFCURVE",
"431 870 OFFCURVE",
"431 923 CURVE SMOOTH",
"431 975 OFFCURVE",
"388 1018 OFFCURVE",
"334 1018 CURVE SMOOTH",
"279 1018 OFFCURVE",
"234 975 OFFCURVE",
"234 923 CURVE SMOOTH"
);
},
{
closed = 1;
nodes = (
"713 975 OFFCURVE",
"670 1018 OFFCURVE",
"617 1018 CURVE SMOOTH",
"562 1018 OFFCURVE",
"516 975 OFFCURVE",
"516 923 CURVE SMOOTH",
"516 870 OFFCURVE",
"562 826 OFFCURVE",
"617 826 CURVE SMOOTH",
"670 826 OFFCURVE",
"713 870 OFFCURVE",
"713 923 CURVE SMOOTH"
);
}
);
width = 735;
},
{
layerId = "31954392-1C4E-4333-A60C-122C4BAF07AE";
paths = (
{
closed = 1;
nodes = (
"438 0 OFFCURVE",
"488 145 OFFCURVE",
"536 376 CURVE SMOOTH",
"565 515 OFFCURVE",
"578 618 OFFCURVE",
"603 726 CURVE",
"590 732 OFFCURVE",
"579 735 OFFCURVE",
"567 735 CURVE SMOOTH",
"546 735 OFFCURVE",
"526 727 OFFCURVE",
"498 710 CURVE",
"498 497 LINE",
"468 315 OFFCURVE",
"440 166 OFFCURVE",
"348 76 CURVE",
"229 15 OFFCURVE",
"126 96 OFFCURVE",
"126 174 CURVE SMOOTH",
"126 347 OFFCURVE",
"178 549 OFFCURVE",
"231 726 CURVE",
"218 732 OFFCURVE",
"207 735 OFFCURVE",
"195 735 CURVE SMOOTH",
"175 735 OFFCURVE",
"154 727 OFFCURVE",
"126 710 CURVE",
"109 510 OFFCURVE",
"82 375 OFFCURVE",
"46 166 CURVE",
"56 105 OFFCURVE",
"118 0 OFFCURVE",
"248 0 CURVE SMOOTH"
);
},
{
closed = 1;
nodes = (
"225 833 OFFCURVE",
"245 811 OFFCURVE",
"272 811 CURVE SMOOTH",
"298 811 OFFCURVE",
"319 833 OFFCURVE",
"319 858 CURVE SMOOTH",
"319 885 OFFCURVE",
"298 905 OFFCURVE",
"272 905 CURVE SMOOTH",
"245 905 OFFCURVE",
"225 885 OFFCURVE",
"225 858 CURVE SMOOTH"
);
},
{
closed = 1;
nodes = (
"481 885 OFFCURVE",
"460 905 OFFCURVE",
"434 905 CURVE SMOOTH",
"407 905 OFFCURVE",
"387 885 OFFCURVE",
"387 858 CURVE SMOOTH",
"387 833 OFFCURVE",
"407 811 OFFCURVE",
"434 811 CURVE SMOOTH",
"460 811 OFFCURVE",
"481 833 OFFCURVE",
"481 858 CURVE SMOOTH"
);
}
);
width = 570;
}
);
unicode = 00DC;
},
{
glyphname = Ugrave;
layers = (
{
layerId = "5FE12265-991D-4E7A-94BF-8B782DB79986";
paths = (
{
closed = 1;
nodes = (
"557 0 OFFCURVE",
"668 132 OFFCURVE",
"704 329 CURVE SMOOTH",
"727 457 OFFCURVE",
"751 611 OFFCURVE",
"766 747 CURVE",
"742 759 OFFCURVE",
"711 765 OFFCURVE",
"674 765 CURVE SMOOTH",
"623 765 OFFCURVE",
"561 752 OFFCURVE",
"501 723 CURVE",
"545 485 LINE",
"525 333 OFFCURVE",
"497 237 OFFCURVE",
"440 130 CURVE",
"260 130 OFFCURVE",
"271 229 OFFCURVE",
"291 364 CURVE SMOOTH",
"307 465 OFFCURVE",
"344 592 OFFCURVE",
"393 747 CURVE",
"368 759 OFFCURVE",
"337 765 OFFCURVE",
"301 765 CURVE SMOOTH",
"250 765 OFFCURVE",
"188 752 OFFCURVE",
"128 723 CURVE",
"110 539 OFFCURVE",
"93 405 OFFCURVE",
"59 228 CURVE",
"78 101 OFFCURVE",
"189 0 OFFCURVE",
"362 0 CURVE SMOOTH"
);
},
{
closed = 1;
nodes = (
"494 1045 LINE",
"454 1072 OFFCURVE",
"343 1065 OFFCURVE",
"302 986 CURVE",
"389 915 LINE",
"461 813 LINE",
"496 799 OFFCURVE",
"545 813 OFFCURVE",
"565 842 CURVE"
);
}
);
width = 735;
},
{
layerId = "31954392-1C4E-4333-A60C-122C4BAF07AE";
paths = (
{
closed = 1;
nodes = (
"438 0 OFFCURVE",
"488 145 OFFCURVE",
"536 376 CURVE SMOOTH",
"565 515 OFFCURVE",
"578 618 OFFCURVE",
"603 726 CURVE",
"590 732 OFFCURVE",
"579 735 OFFCURVE",
"567 735 CURVE SMOOTH",
"546 735 OFFCURVE",
"526 727 OFFCURVE",
"498 710 CURVE",
"498 497 LINE",
"468 315 OFFCURVE",
"440 166 OFFCURVE",
"348 76 CURVE",
"229 15 OFFCURVE",
"126 96 OFFCURVE",
"126 174 CURVE SMOOTH",
"126 347 OFFCURVE",
"178 549 OFFCURVE",
"231 726 CURVE",
"218 732 OFFCURVE",
"207 735 OFFCURVE",
"195 735 CURVE SMOOTH",
"175 735 OFFCURVE",
"154 727 OFFCURVE",
"126 710 CURVE",
"109 510 OFFCURVE",
"82 375 OFFCURVE",
"46 166 CURVE",
"56 105 OFFCURVE",
"118 0 OFFCURVE",
"248 0 CURVE SMOOTH"
);
},
{
closed = 1;
nodes = (
"302 989 LINE",
"259 998 OFFCURVE",
"222 985 OFFCURVE",
"212 949 CURVE",
"298 861 LINE",
"349 788 LINE",
"368 786 OFFCURVE",
"380 791 OFFCURVE",
"383 802 CURVE"
);
}
);
width = 570;
}
);
unicode = 00D9;
},
{
glyphname = Uhungarumlaut;
layers = (
{
layerId = "5FE12265-991D-4E7A-94BF-8B782DB79986";
paths = (
{
closed = 1;
nodes = (
"557 0 OFFCURVE",
"668 132 OFFCURVE",
"704 329 CURVE SMOOTH",
"727 457 OFFCURVE",
"751 611 OFFCURVE",
"766 747 CURVE",
"742 759 OFFCURVE",
"711 765 OFFCURVE",
"674 765 CURVE SMOOTH",
"623 765 OFFCURVE",
"561 752 OFFCURVE",
"501 723 CURVE",
"545 485 LINE",
"525 333 OFFCURVE",
"497 237 OFFCURVE",
"440 130 CURVE",
"260 130 OFFCURVE",
"271 229 OFFCURVE",
"291 364 CURVE SMOOTH",
"307 465 OFFCURVE",
"344 592 OFFCURVE",
"393 747 CURVE",
"368 759 OFFCURVE",
"337 765 OFFCURVE",
"301 765 CURVE SMOOTH",
"250 765 OFFCURVE",
"188 752 OFFCURVE",
"128 723 CURVE",
"110 539 OFFCURVE",
"93 405 OFFCURVE",
"59 228 CURVE",
"78 101 OFFCURVE",
"189 0 OFFCURVE",
"362 0 CURVE SMOOTH"
);
},
{
closed = 1;
nodes = (
"256 816 LINE",
"290 803 OFFCURVE",
"334 803 OFFCURVE",
"372 806 CURVE",
"476 931 LINE",
"511 1004 LINE",
"478 1014 OFFCURVE",
"418 1014 OFFCURVE",
"345 1004 CURVE"
);
},
{
closed = 1;
nodes = (
"472 816 LINE",
"502 803 OFFCURVE",
"542 803 OFFCURVE",
"575 806 CURVE",
"689 931 LINE",
"724 1004 LINE",
"692 1014 OFFCURVE",
"631 1014 OFFCURVE",
"557 1004 CURVE"
);
}
);
width = 735;
},
{
layerId = "31954392-1C4E-4333-A60C-122C4BAF07AE";
paths = (
{
closed = 1;
nodes = (
"438 0 OFFCURVE",
"488 145 OFFCURVE",
"536 376 CURVE SMOOTH",
"565 515 OFFCURVE",
"578 618 OFFCURVE",
"603 726 CURVE",
"590 732 OFFCURVE",
"579 735 OFFCURVE",
"567 735 CURVE SMOOTH",
"546 735 OFFCURVE",
"526 727 OFFCURVE",
"498 710 CURVE",
"498 497 LINE",
"468 315 OFFCURVE",
"440 166 OFFCURVE",
"348 76 CURVE",
"229 15 OFFCURVE",
"126 96 OFFCURVE",
"126 174 CURVE SMOOTH",
"126 347 OFFCURVE",
"178 549 OFFCURVE",
"231 726 CURVE",
"218 732 OFFCURVE",
"207 735 OFFCURVE",
"195 735 CURVE SMOOTH",
"175 735 OFFCURVE",
"154 727 OFFCURVE",
"126 710 CURVE",
"109 510 OFFCURVE",
"82 375 OFFCURVE",
"46 166 CURVE",
"56 105 OFFCURVE",
"118 0 OFFCURVE",
"248 0 CURVE SMOOTH"
);
},
{
closed = 1;
nodes = (
"264 796 LINE",
"271 791 OFFCURVE",
"283 786 OFFCURVE",
"301 788 CURVE",
"381 896 LINE",
"407 949 LINE",
"396 958 OFFCURVE",
"362 959 OFFCURVE",
"340 949 CURVE"
);
},
{
closed = 1;
nodes = (
"394 796 LINE",
"400 791 OFFCURVE",
"413 786 OFFCURVE",
"430 788 CURVE",
"510 896 LINE",
"536 949 LINE",
"525 958 OFFCURVE",
"492 959 OFFCURVE",
"469 949 CURVE"
);
}
);
width = 570;
}
);
unicode = 0170;
},
{
glyphname = Umacron;
layers = (
{
layerId = "5FE12265-991D-4E7A-94BF-8B782DB79986";
paths = (
{
closed = 1;
nodes = (
"557 0 OFFCURVE",
"668 132 OFFCURVE",
"704 329 CURVE SMOOTH",
"727 457 OFFCURVE",
"751 611 OFFCURVE",
"766 747 CURVE",
"742 759 OFFCURVE",
"711 765 OFFCURVE",
"674 765 CURVE SMOOTH",
"623 765 OFFCURVE",
"561 752 OFFCURVE",
"501 723 CURVE",
"545 485 LINE",
"525 333 OFFCURVE",
"497 237 OFFCURVE",
"440 130 CURVE",
"260 130 OFFCURVE",
"271 229 OFFCURVE",
"291 364 CURVE SMOOTH",
"307 465 OFFCURVE",
"344 592 OFFCURVE",
"393 747 CURVE",
"368 759 OFFCURVE",
"337 765 OFFCURVE",
"301 765 CURVE SMOOTH",
"250 765 OFFCURVE",
"188 752 OFFCURVE",
"128 723 CURVE",
"110 539 OFFCURVE",
"93 405 OFFCURVE",
"59 228 CURVE",
"78 101 OFFCURVE",
"189 0 OFFCURVE",
"362 0 CURVE SMOOTH"
);
},
{
closed = 1;
nodes = (
"478 889 LINE",
"287 894 LINE",
"262 858 OFFCURVE",
"258 832 OFFCURVE",
"273 813 CURVE",
"657 825 LINE",
"689 864 OFFCURVE",
"693 897 OFFCURVE",
"673 909 CURVE"
);
}
);
width = 735;
},
{
layerId = "31954392-1C4E-4333-A60C-122C4BAF07AE";
paths = (
{
closed = 1;
nodes = (
"438 0 OFFCURVE",
"488 145 OFFCURVE",
"536 376 CURVE SMOOTH",
"565 515 OFFCURVE",
"578 618 OFFCURVE",
"603 726 CURVE",
"590 732 OFFCURVE",
"579 735 OFFCURVE",
"567 735 CURVE SMOOTH",
"546 735 OFFCURVE",
"526 727 OFFCURVE",
"498 710 CURVE",
"498 497 LINE",
"468 315 OFFCURVE",
"440 166 OFFCURVE",
"348 76 CURVE",
"229 15 OFFCURVE",
"126 96 OFFCURVE",
"126 174 CURVE SMOOTH",
"126 347 OFFCURVE",
"178 549 OFFCURVE",
"231 726 CURVE",
"218 732 OFFCURVE",
"207 735 OFFCURVE",
"195 735 CURVE SMOOTH",
"175 735 OFFCURVE",
"154 727 OFFCURVE",
"126 710 CURVE",
"109 510 OFFCURVE",
"82 375 OFFCURVE",
"46 166 CURVE",
"56 105 OFFCURVE",
"118 0 OFFCURVE",
"248 0 CURVE SMOOTH"
);
},
{
closed = 1;
nodes = (
"357 867 LINE",
"205 872 LINE",
"184 846 OFFCURVE",
"180 827 OFFCURVE",
"194 813 CURVE",
"480 821 LINE",
"506 850 OFFCURVE",
"511 873 OFFCURVE",
"495 882 CURVE"
);
}
);
width = 570;
}
);
unicode = 016A;
},
{
glyphname = Uogonek;
layers = (
{
layerId = "975719B3-E082-4404-B156-488762B4AD4B";
name = public.background;
paths = (
{
closed = 1;
nodes = (
"291 1 OFFCURVE",
"279 9 OFFCURVE",
"251 9 CURVE",
"170 -8 OFFCURVE",
"125 -40 OFFCURVE",
"116 -95 CURVE SMOOTH",
"106 -154 OFFCURVE",
"170 -198 OFFCURVE",
"247 -198 CURVE SMOOTH",
"301 -198 OFFCURVE",
"346 -171 OFFCURVE",
"378 -137 CURVE",
"374 -119 OFFCURVE",
"365 -113 OFFCURVE",
"351 -112 CURVE",
"324 -135 OFFCURVE",
"288 -147 OFFCURVE",
"253 -147 CURVE SMOOTH",
"220 -147 OFFCURVE",
"193 -138 OFFCURVE",
"179 -113 CURVE",
"186 -62 OFFCURVE",
"224 -26 OFFCURVE",
"287 -14 CURVE"
);
}
);
width = 570;
},
{
layerId = "975719B3-E082-4404-B156-488762B4AD4B";
name = public.background;
paths = (
{
closed = 1;
nodes = (
"443 21 OFFCURVE",
"418 41 OFFCURVE",
"378 50 CURVE",
"250 40 OFFCURVE",
"134 -7 OFFCURVE",
"120 -108 CURVE SMOOTH",
"104 -212 OFFCURVE",
"207 -268 OFFCURVE",
"329 -268 CURVE SMOOTH",
"427 -268 OFFCURVE",
"496 -235 OFFCURVE",
"552 -175 CURVE",
"554 -145 OFFCURVE",
"539 -120 OFFCURVE",
"520 -119 CURVE",
"490 -145 OFFCURVE",
"447 -163 OFFCURVE",
"405 -163 CURVE SMOOTH",
"365 -163 OFFCURVE",
"331 -153 OFFCURVE",
"316 -122 CURVE",
"323 -61 OFFCURVE",
"389 -18 OFFCURVE",
"444 -7 CURVE"
);
}
);
width = 570;
},
{
layerId = "5FE12265-991D-4E7A-94BF-8B782DB79986";
paths = (
{
closed = 1;
nodes = (
"443 37 OFFCURVE",
"440 67 OFFCURVE",
"393 72 CURVE",
"247 50 OFFCURVE",
"141 -38 OFFCURVE",
"141 -127 CURVE SMOOTH",
"141 -202 OFFCURVE",
"213 -268 OFFCURVE",
"350 -268 CURVE SMOOTH",
"427 -268 OFFCURVE",
"507 -236 OFFCURVE",
"552 -175 CURVE",
"555 -140 OFFCURVE",
"539 -115 OFFCURVE",
"503 -119 CURVE",
"471 -148 OFFCURVE",
"425 -165 OFFCURVE",
"383 -165 CURVE SMOOTH",
"346 -165 OFFCURVE",
"312 -151 OFFCURVE",
"294 -122 CURVE",
"300 -63 OFFCURVE",
"370 -4 OFFCURVE",
"444 9 CURVE"
);
},
{
closed = 1;
nodes = (
"557 0 OFFCURVE",
"668 132 OFFCURVE",
"704 329 CURVE SMOOTH",
"727 457 OFFCURVE",
"751 611 OFFCURVE",
"766 747 CURVE",
"742 759 OFFCURVE",
"711 765 OFFCURVE",
"674 765 CURVE SMOOTH",
"623 765 OFFCURVE",
"561 752 OFFCURVE",
"501 723 CURVE",
"545 485 LINE",
"525 333 OFFCURVE",
"497 237 OFFCURVE",
"440 130 CURVE",
"260 130 OFFCURVE",
"271 229 OFFCURVE",
"291 364 CURVE SMOOTH",
"307 465 OFFCURVE",
"344 592 OFFCURVE",
"393 747 CURVE",
"368 759 OFFCURVE",
"337 765 OFFCURVE",
"301 765 CURVE SMOOTH",
"250 765 OFFCURVE",
"188 752 OFFCURVE",
"128 723 CURVE",
"110 539 OFFCURVE",
"93 405 OFFCURVE",
"59 228 CURVE",
"78 101 OFFCURVE",
"189 0 OFFCURVE",
"362 0 CURVE SMOOTH"
);
}
);
width = 735;
},
{
layerId = "31954392-1C4E-4333-A60C-122C4BAF07AE";
paths = (
{
closed = 1;
nodes = (
"281 17 OFFCURVE",
"269 25 OFFCURVE",
"251 25 CURVE",
"164 -6 OFFCURVE",
"122 -62 OFFCURVE",
"122 -109 CURVE SMOOTH",
"122 -158 OFFCURVE",
"165 -198 OFFCURVE",
"247 -198 CURVE SMOOTH",
"301 -198 OFFCURVE",
"346 -171 OFFCURVE",
"378 -137 CURVE",
"374 -119 OFFCURVE",
"365 -113 OFFCURVE",
"351 -112 CURVE",
"321 -137 OFFCURVE",
"285 -151 OFFCURVE",
"251 -151 CURVE SMOOTH",
"221 -151 OFFCURVE",
"194 -141 OFFCURVE",
"172 -119 CURVE",
"183 -63 OFFCURVE",
"225 -22 OFFCURVE",
"284 2 CURVE"
);
},
{
closed = 1;
nodes = (
"438 0 OFFCURVE",
"488 145 OFFCURVE",
"536 376 CURVE SMOOTH",
"565 515 OFFCURVE",
"578 618 OFFCURVE",
"603 726 CURVE",
"590 732 OFFCURVE",
"579 735 OFFCURVE",
"567 735 CURVE SMOOTH",
"546 735 OFFCURVE",
"526 727 OFFCURVE",
"498 710 CURVE",
"498 497 LINE",
"468 315 OFFCURVE",
"440 166 OFFCURVE",
"348 76 CURVE",
"229 15 OFFCURVE",
"126 96 OFFCURVE",
"126 174 CURVE SMOOTH",
"126 347 OFFCURVE",
"178 549 OFFCURVE",
"231 726 CURVE",
"218 732 OFFCURVE",
"207 735 OFFCURVE",
"195 735 CURVE SMOOTH",
"175 735 OFFCURVE",
"154 727 OFFCURVE",
"126 710 CURVE",
"109 510 OFFCURVE",
"82 375 OFFCURVE",
"46 166 CURVE",
"56 105 OFFCURVE",
"118 0 OFFCURVE",
"248 0 CURVE SMOOTH"
);
}
);
width = 570;
}
);
unicode = 0172;
},
{
glyphname = Uring;
layers = (
{
layerId = "5FE12265-991D-4E7A-94BF-8B782DB79986";
paths = (
{
closed = 1;
nodes = (
"557 0 OFFCURVE",
"668 132 OFFCURVE",
"704 329 CURVE SMOOTH",
"727 457 OFFCURVE",
"751 611 OFFCURVE",
"766 747 CURVE",
"742 759 OFFCURVE",
"711 765 OFFCURVE",
"674 765 CURVE SMOOTH",
"623 765 OFFCURVE",
"561 752 OFFCURVE",
"501 723 CURVE",
"545 485 LINE",
"525 333 OFFCURVE",
"497 237 OFFCURVE",
"440 130 CURVE",
"260 130 OFFCURVE",
"271 229 OFFCURVE",
"291 364 CURVE SMOOTH",
"307 465 OFFCURVE",
"344 592 OFFCURVE",
"393 747 CURVE",
"368 759 OFFCURVE",
"337 765 OFFCURVE",
"301 765 CURVE SMOOTH",
"250 765 OFFCURVE",
"188 752 OFFCURVE",
"128 723 CURVE",
"110 539 OFFCURVE",
"93 405 OFFCURVE",
"59 228 CURVE",
"78 101 OFFCURVE",
"189 0 OFFCURVE",
"362 0 CURVE SMOOTH"
);
},
{
closed = 1;
nodes = (
"415 1062 OFFCURVE",
"319 1028 OFFCURVE",
"290 930 CURVE SMOOTH",
"263 840 OFFCURVE",
"349 802 OFFCURVE",
"440 802 CURVE SMOOTH",
"555 802 OFFCURVE",
"652 841 OFFCURVE",
"680 930 CURVE",
"717 1036 OFFCURVE",
"615 1062 OFFCURVE",
"528 1062 CURVE"
);
},
{
closed = 1;
nodes = (
"510 1010 OFFCURVE",
"526 988 OFFCURVE",
"512 930 CURVE",
"503 897 OFFCURVE",
"492 870 OFFCURVE",
"477 852 CURVE",
"473 851 OFFCURVE",
"470 851 OFFCURVE",
"467 851 CURVE SMOOTH",
"455 851 OFFCURVE",
"438 873 OFFCURVE",
"453 930 CURVE",
"459 962 OFFCURVE",
"472 990 OFFCURVE",
"484 1007 CURVE",
"488 1010 OFFCURVE",
"493 1010 OFFCURVE",
"499 1010 CURVE"
);
}
);
width = 735;
},
{
layerId = "31954392-1C4E-4333-A60C-122C4BAF07AE";
paths = (
{
closed = 1;
nodes = (
"438 0 OFFCURVE",
"488 145 OFFCURVE",
"536 376 CURVE SMOOTH",
"565 515 OFFCURVE",
"578 618 OFFCURVE",
"603 726 CURVE",
"590 732 OFFCURVE",
"579 735 OFFCURVE",
"567 735 CURVE SMOOTH",
"546 735 OFFCURVE",
"526 727 OFFCURVE",
"498 710 CURVE",
"498 497 LINE",
"468 315 OFFCURVE",
"440 166 OFFCURVE",
"348 76 CURVE",
"229 15 OFFCURVE",
"126 96 OFFCURVE",
"126 174 CURVE SMOOTH",
"126 347 OFFCURVE",
"178 549 OFFCURVE",
"231 726 CURVE",
"218 732 OFFCURVE",
"207 735 OFFCURVE",
"195 735 CURVE SMOOTH",
"175 735 OFFCURVE",
"154 727 OFFCURVE",
"126 710 CURVE",
"109 510 OFFCURVE",
"82 375 OFFCURVE",
"46 166 CURVE",
"56 105 OFFCURVE",
"118 0 OFFCURVE",
"248 0 CURVE SMOOTH"
);
},
{
closed = 1;
nodes = (
"381 985 OFFCURVE",
"331 933 OFFCURVE",
"312 885 CURVE",
"293 828 OFFCURVE",
"319 784 OFFCURVE",
"374 784 CURVE SMOOTH",
"429 784 OFFCURVE",
"480 836 OFFCURVE",
"499 885 CURVE",
"518 941 OFFCURVE",
"492 985 OFFCURVE",
"437 985 CURVE"
);
},
{
closed = 1;
nodes = (
"457 955 OFFCURVE",
"457 921 OFFCURVE",
"446 885 CURVE",
"441 862 OFFCURVE",
"432 842 OFFCURVE",
"421 826 CURVE",
"412 820 OFFCURVE",
"404 814 OFFCURVE",
"389 814 CURVE SMOOTH",
"353 814 OFFCURVE",
"352 848 OFFCURVE",
"364 885 CURVE SMOOTH",
"371 907 OFFCURVE",
"381 929 OFFCURVE",
"392 944 CURVE",
"402 949 OFFCURVE",
"411 955 OFFCURVE",
"420 955 CURVE"
);
}
);
width = 570;
}
);
unicode = 016E;
},
{
glyphname = V;
layers = (
{
layerId = "5FE12265-991D-4E7A-94BF-8B782DB79986";
paths = (
{
closed = 1;
nodes = (
"368 370 LINE",
"372 741 LINE",
"322 782 OFFCURVE",
"169 770 OFFCURVE",
"90 674 CURVE",
"226 75 LINE",
"279 7 OFFCURVE",
"390 -17 OFFCURVE",
"484 11 CURVE",
"542 144 LINE",
"618 265 OFFCURVE",
"671 343 OFFCURVE",
"745 459 CURVE SMOOTH",
"790 527 OFFCURVE",
"820 628 OFFCURVE",
"812 715 CURVE",
"758 766 OFFCURVE",
"607 787 OFFCURVE",
"544 707 CURVE",
"600 462 LINE",
"378 60 LINE",
"418 78 LINE"
);
}
);
width = 767;
},
{
layerId = "31954392-1C4E-4333-A60C-122C4BAF07AE";
paths = (
{
closed = 1;
nodes = (
"216 247 LINE",
"197 713 LINE",
"176 730 OFFCURVE",
"132 721 OFFCURVE",
"108 705 CURVE",
"177 22 LINE",
"204 -2 OFFCURVE",
"247 -5 OFFCURVE",
"280 3 CURVE",
"337 161 LINE",
"406 291 OFFCURVE",
"476 403 OFFCURVE",
"546 532 CURVE",
"570 584 OFFCURVE",
"590 639 OFFCURVE",
"584 706 CURVE",
"559 725 OFFCURVE",
"528 730 OFFCURVE",
"471 706 CURVE",
"484 552 LINE",
"224 32 LINE",
"247 29 LINE"
);
}
);
width = 536;
}
);
unicode = 0056;
},
{
glyphname = W;
layers = (
{
layerId = "5FE12265-991D-4E7A-94BF-8B782DB79986";
paths = (
{
closed = 1;
nodes = (
"1100 763 OFFCURVE",
"958 789 OFFCURVE",
"893 707 CURVE",
"953 462 LINE",
"776 79 LINE",
"802 77 LINE",
"740 403 LINE",
"755 696 LINE",
"658 744 OFFCURVE",
"556 706 OFFCURVE",
"501 641 CURVE",
"567 404 LINE",
"402 81 LINE",
"427 80 LINE",
"373 371 LINE",
"370 742 LINE",
"317 780 OFFCURVE",
"175 775 OFFCURVE",
"89 673 CURVE",
"236 74 LINE",
"294 8 OFFCURVE",
"399 -17 OFFCURVE",
"496 11 CURVE",
"531 133 LINE",
"600 272 LINE",
"623 68 LINE",
"670 7 OFFCURVE",
"772 -15 OFFCURVE",
"869 11 CURVE",
"913 145 LINE",
"1099 461 LINE",
"1145 545 OFFCURVE",
"1166 635 OFFCURVE",
"1161 715 CURVE"
);
}
);
width = 1115;
},
{
layerId = "31954392-1C4E-4333-A60C-122C4BAF07AE";
paths = (
{
closed = 1;
nodes = (
"822 730 OFFCURVE",
"791 735 OFFCURVE",
"733 712 CURVE",
"746 555 LINE",
"526 26 LINE",
"551 24 LINE",
"513 272 LINE",
"500 658 LINE",
"470 671 OFFCURVE",
"441 663 OFFCURVE",
"413 640 CURVE",
"434 437 LINE",
"221 39 LINE",
"255 24 LINE",
"220 247 LINE",
"198 718 LINE",
"176 735 OFFCURVE",
"132 727 OFFCURVE",
"109 711 CURVE",
"184 22 LINE",
"211 -2 OFFCURVE",
"254 -5 OFFCURVE",
"286 3 CURVE",
"348 161 LINE",
"445 345 LINE",
"480 22 LINE",
"507 -2 OFFCURVE",
"554 -6 OFFCURVE",
"585 4 CURVE",
"632 164 LINE",
"809 536 LINE SMOOTH",
"834 588 OFFCURVE",
"852 645 OFFCURVE",
"847 712 CURVE"
);
}
);
width = 791;
}
);
unicode = 0057;
},
{
glyphname = X;
layers = (
{
layerId = "5FE12265-991D-4E7A-94BF-8B782DB79986";
paths = (
{
closed = 1;
nodes = (
"654 250 OFFCURVE",
"550 308 OFFCURVE",
"469 405 CURVE",
"454 527 OFFCURVE",
"385 692 OFFCURVE",
"281 762 CURVE",
"150 753 OFFCURVE",
"85 657 OFFCURVE",
"96 552 CURVE",
"219 523 OFFCURVE",
"344 442 OFFCURVE",
"403 342 CURVE",
"425 222 OFFCURVE",
"490 92 OFFCURVE",
"587 0 CURVE",
"740 30 OFFCURVE",
"788 132 OFFCURVE",
"754 216 CURVE"
);
},
{
closed = 1;
nodes = (
"840 698 OFFCURVE",
"801 772 OFFCURVE",
"686 763 CURVE",
"411 400 LINE",
"298 299 OFFCURVE",
"193 238 OFFCURVE",
"42 153 CURVE",
"29 84 OFFCURVE",
"64 8 OFFCURVE",
"210 0 CURVE",
"459 355 LINE",
"615 482 OFFCURVE",
"734 565 OFFCURVE",
"831 621 CURVE"
);
}
);
width = 812;
},
{
layerId = "31954392-1C4E-4333-A60C-122C4BAF07AE";
paths = (
{
closed = 1;
nodes = (
"458 137 OFFCURVE",
"362 322 OFFCURVE",
"330 391 CURVE",
"302 522 OFFCURVE",
"237 656 OFFCURVE",
"158 733 CURVE",
"113 725 OFFCURVE",
"89 697 OFFCURVE",
"93 658 CURVE",
"160 599 OFFCURVE",
"240 492 OFFCURVE",
"301 362 CURVE",
"311 264 OFFCURVE",
"401 70 OFFCURVE",
"463 0 CURVE",
"511 8 OFFCURVE",
"539 36 OFFCURVE",
"537 69 CURVE"
);
},
{
closed = 1;
nodes = (
"620 720 OFFCURVE",
"600 737 OFFCURVE",
"562 734 CURVE",
"310 379 LINE",
"227 288 OFFCURVE",
"96 138 OFFCURVE",
"9 64 CURVE",
"9 32 OFFCURVE",
"24 9 OFFCURVE",
"76 0 CURVE",
"335 360 LINE",
"447 486 OFFCURVE",
"544 593 OFFCURVE",
"632 676 CURVE"
);
}
);
width = 595;
}
);
unicode = 0058;
},
